<svg xmlns="http://www.w3.org/2000/svg" width="20" height="15" viewBox="0 0 20 15"><defs><style>.a,.b{fill:#1c64d2;fill-rule:evenodd;}.b{opacity:0.3;}</style></defs><g transform="translate(-3 -6)"><path class="a" d="M21,12.083A6.005,6.005,0,0,0,14.083,19H5a2,2,0,0,1-2-2V8A2,2,0,0,1,5,6H19a2,2,0,0,1,2,2ZM18.144,7.84,12,11.148,5.856,7.84A.75.75,0,0,0,5.144,9.16l6.5,3.5a.75.75,0,0,0,.711,0l6.5-3.5a.75.75,0,0,0-.711-1.321Z"/><path class="b" d="M17.625,10.625V8.875a.875.875,0,0,1,1.75,0v1.75h1.75a.875.875,0,0,1,0,1.75h-1.75v1.75a.875.875,0,0,1-1.75,0v-1.75h-1.75a.875.875,0,0,1,0-1.75Z" transform="translate(1 6)"/></g></svg>