<svg xmlns="http://www.w3.org/2000/svg" width="15.321" height="15.321" viewBox="0 0 15.321 15.321"><defs><style>.a,.b{fill:#fff;fill-rule:evenodd;}.a{opacity:0.3;}</style></defs><g transform="translate(-2.34 -2.34)"><path class="a" d="M6.667,2.5h-2.5a.833.833,0,1,0,0,1.667h2.5V5A1.667,1.667,0,0,1,5,6.667H1.667A1.667,1.667,0,0,1,0,5V1.667A1.667,1.667,0,0,1,1.667,0H5A1.667,1.667,0,0,1,6.667,1.667Z" transform="translate(2.34 12.946) rotate(-45)"/><path class="b" d="M0,4.167H2.5A.833.833,0,0,0,2.5,2.5H0V1.667A1.667,1.667,0,0,1,1.667,0H5A1.667,1.667,0,0,1,6.667,1.667V5A1.667,1.667,0,0,1,5,6.667H1.667A1.667,1.667,0,0,1,0,5Z" transform="translate(8.232 7.054) rotate(-45)"/></g></svg>