<svg xmlns="http://www.w3.org/2000/svg" width="11.25" height="18.333" viewBox="0 0 11.25 18.333"><defs><style>.a,.b{fill:#fff;}.a{fill-rule:evenodd;opacity:0.3;}</style></defs><g transform="translate(-4.375 -0.833)"><path class="a" d="M7.792,2.5A1.042,1.042,0,0,0,6.75,3.542v13.75a1.042,1.042,0,0,0,1.042,1.042h6.667A1.042,1.042,0,0,0,15.5,17.292V3.542A1.042,1.042,0,0,0,14.458,2.5Z" transform="translate(-1.125 -0.417)"/><path class="b" d="M7.542,2.25A1.042,1.042,0,0,0,6.5,3.292v13.75a1.042,1.042,0,0,0,1.042,1.042h6.667a1.042,1.042,0,0,0,1.042-1.042V3.292A1.042,1.042,0,0,0,14.208,2.25Zm0-1.25h6.667A2.292,2.292,0,0,1,16.5,3.292v13.75a2.292,2.292,0,0,1-2.292,2.292H7.542A2.292,2.292,0,0,1,5.25,17.042V3.292A2.292,2.292,0,0,1,7.542,1Zm1.25.625h4.167a.417.417,0,0,1,.417.417v.833a.417.417,0,0,1-.417.417H8.792a.417.417,0,0,1-.417-.417V2.042A.417.417,0,0,1,8.792,1.625Z" transform="translate(-0.875 -0.167)"/></g></svg>