<svg xmlns="http://www.w3.org/2000/svg" width="17.854" height="13.411" viewBox="0 0 17.854 13.411"><defs><style>.a{fill:#fff;}</style></defs><g transform="translate(-30.278 -447)"><path class="a" d="M14.193,11.335H7.707a6.879,6.879,0,0,0,.035-.69A6.732,6.732,0,0,0,4.49,4.857h11.7V9.335A2,2,0,0,1,14.193,11.335ZM12.145,7.286a.81.81,0,1,0,0,1.619h1.619a.81.81,0,1,0,0-1.619ZM16.193,2.43H0L0,2A2,2,0,0,1,2,0H14.193a2,2,0,0,1,2,2v.429Z" transform="translate(31.939 447)"/><path class="a" d="M0,5.483V1.367A.517.517,0,0,1,.155,1l.867-.85A.517.517,0,0,1,1.74.142L2.6.956a.517.517,0,0,1,.161.374V5.483A.517.517,0,0,1,2.239,6H.517A.517.517,0,0,1,0,5.483Z" transform="translate(32.227 460.411) rotate(-135)"/></g></svg>