<svg xmlns="http://www.w3.org/2000/svg" width="18.253" height="13.008" viewBox="0 0 18.253 13.008"><defs><style>.a,.b{fill:#fff;}.b{fill-rule:evenodd;}</style></defs><g transform="translate(-29.879 -447)"><path class="a" d="M14.193,11.335H7.707a6.879,6.879,0,0,0,.035-.69A6.732,6.732,0,0,0,4.49,4.857h11.7V9.335A2,2,0,0,1,14.193,11.335ZM12.145,7.286a.81.81,0,1,0,0,1.619h1.619a.81.81,0,1,0,0-1.619ZM16.193,2.43H0L0,2A2,2,0,0,1,2,0H14.193a2,2,0,0,1,2,2v.429Z" transform="translate(31.939 447)"/><path class="b" d="M10.586,14,9.172,12.586a1,1,0,1,1,1.414-1.414L12,12.586l1.414-1.414a1,1,0,1,1,1.414,1.414L13.414,14l1.414,1.414a1,1,0,0,1-1.414,1.414L12,15.414l-1.414,1.414a1,1,0,0,1-1.414-1.414Z" transform="translate(21 442.887)"/></g></svg>