<svg xmlns="http://www.w3.org/2000/svg" width="16.667" height="13.333" viewBox="0 0 16.667 13.333"><defs><style>.a,.b{fill:#fff;}.a{opacity:0.3;}</style></defs><g transform="translate(585.333 36.667)"><path class="a" d="M-583.333-36H-570a1.672,1.672,0,0,1,1.667,1.667v10A1.672,1.672,0,0,1-570-22.667h-13.333A1.672,1.672,0,0,1-585-24.333v-10A1.672,1.672,0,0,1-583.333-36Z" transform="translate(-0.333 -0.667)"/><path class="b" d="M-570.917-29H-581.75A1.248,1.248,0,0,0-583-27.75v.417h3.825a.861.861,0,0,1,.592.242l.833.833a2.026,2.026,0,0,0,1.425.592,2.005,2.005,0,0,0,1.425-.592l.833-.833a.825.825,0,0,1,.592-.242h3.825v-.417A1.274,1.274,0,0,0-570.917-29Z" transform="translate(-0.667 -1.833)"/><path class="b" d="M-581.75-34A1.248,1.248,0,0,0-583-32.75v.417h13.333v-.417a1.248,1.248,0,0,0-1.25-1.25Z" transform="translate(-0.667 -1)"/></g></svg>