<svg xmlns="http://www.w3.org/2000/svg" width="16" height="14" viewBox="0 0 16 14"><defs><style>.a{fill:#fff;}.a,.b{fill-rule:evenodd;}.b{fill:#656f92;}</style></defs><g transform="translate(-70 -524.887)"><path class="a" d="M4.412,7H9.118a1.458,1.458,0,0,1,1.412,1.5A1.458,1.458,0,0,1,9.118,10H4.412A1.458,1.458,0,0,1,3,8.5,1.458,1.458,0,0,1,4.412,7Zm8.471,8h4.706a1.5,1.5,0,0,1,0,3H12.882a1.5,1.5,0,0,1,0-3Z" transform="translate(67 519.887)"/><path class="b" d="M16.176,11a2.916,2.916,0,0,1-2.824-3,2.916,2.916,0,0,1,2.824-3A2.916,2.916,0,0,1,19,8,2.916,2.916,0,0,1,16.176,11ZM5.824,19A2.916,2.916,0,0,1,3,16a2.916,2.916,0,0,1,2.824-3,2.916,2.916,0,0,1,2.824,3A2.916,2.916,0,0,1,5.824,19Z" transform="translate(67 519.887)"/></g></svg>