<svg xmlns="http://www.w3.org/2000/svg" width="17.639" height="20" viewBox="0 0 17.639 20"><defs><style>.a,.b,.c{fill:#fff;}.a,.b{fill-rule:evenodd;}.b{opacity:0.3;}</style></defs><g transform="translate(-2 -0.323)"><path class="a" d="M19.639,17v3.528a1.764,1.764,0,0,1-1.764,1.764H3.764A1.764,1.764,0,0,1,2,20.528V17H5.774l.48,1.44a1.764,1.764,0,0,0,1.673,1.206H13.8a1.764,1.764,0,0,0,1.578-.975L16.215,17Z" transform="translate(0 -1.969)"/><path class="b" d="M2.563,14.174,5.529,8.9A1.764,1.764,0,0,1,7.067,8h7.638a1.764,1.764,0,0,1,1.537.9l2.967,5.275H16.282a1.764,1.764,0,0,0-1.578.975l-.835,1.671H7.994l-.48-1.44A1.764,1.764,0,0,0,5.84,14.174Z" transform="translate(-0.066 -0.906)"/><path class="c" d="M2.212,5.676V3.951H.441A.441.441,0,0,1,0,3.51v-.9a.441.441,0,0,1,.441-.441H2.212V.441A.441.441,0,0,1,2.938.1L6.03,2.722a.441.441,0,0,1,0,.673L2.938,6.013a.441.441,0,0,1-.726-.337Z" transform="translate(7.69 6.509) rotate(-90)"/></g></svg>