<svg xmlns="http://www.w3.org/2000/svg" width="16.667" height="16.667" viewBox="0 0 16.667 16.667"><defs><style>.a,.b{fill:#fff;}.a{opacity:0.3;}</style></defs><g transform="translate(516.333 254.333)"><path class="a" d="M-514.333-254h5a1.672,1.672,0,0,1,1.667,1.667v6.667A1.672,1.672,0,0,1-509.333-244h-5A1.672,1.672,0,0,1-516-245.667v-6.667A1.672,1.672,0,0,1-514.333-254Z" transform="translate(-0.333 -0.333)"/><path class="b" d="M-514.333-250H-501a1.672,1.672,0,0,1,1.667,1.667v10A1.672,1.672,0,0,1-501-236.667h-13.333A1.672,1.672,0,0,1-516-238.333v-10A1.672,1.672,0,0,1-514.333-250Zm11.667,8.333A1.672,1.672,0,0,0-501-243.333,1.672,1.672,0,0,0-502.667-245a1.672,1.672,0,0,0-1.667,1.667A1.672,1.672,0,0,0-502.667-241.667Z" transform="translate(-0.333 -1)"/></g></svg>