<svg xmlns="http://www.w3.org/2000/svg" width="14" height="18" viewBox="0 0 14 18"><defs><style>.a,.b{fill:#fff;}.a{opacity:0.3;}</style></defs><g transform="translate(-144 1.261)"><path class="a" d="M4.444,1H9.795a1.133,1.133,0,0,1,.753.29l3.705,3.3a1.254,1.254,0,0,1,.413.937V15.8c0,1.465-.016,1.568-1.444,1.568H4.444C3.016,17.364,3,17.26,3,15.8V2.568C3,1.1,3.016,1,4.444,1Zm2.444,9a.819.819,0,0,0,0,1.636h5.444a.819.819,0,0,0,0-1.636Zm0,3.273a.819.819,0,0,0,0,1.636H9.222a.819.819,0,0,0,0-1.636Z" transform="translate(141 -2.261)"/><path class="b" d="M6.444,3h6.128a1.133,1.133,0,0,1,.753.29l3.705,3.3a1.254,1.254,0,0,1,.413.937V17.8c0,1.465-.016,1.568-1.444,1.568H6.444C5.016,19.364,5,19.26,5,17.8V4.568C5,3.1,5.016,3,6.444,3Zm.889,7.364a.819.819,0,0,0,0,1.636h5.444a.819.819,0,0,0,0-1.636Zm0,3.273a.819.819,0,0,0,0,1.636H9.667a.819.819,0,0,0,0-1.636Z" transform="translate(140.556 -2.625)"/></g></svg>