<svg xmlns="http://www.w3.org/2000/svg" width="15.854" height="14.655" viewBox="0 0 15.854 14.655"><defs><style>.a,.b{fill:#fff;fill-rule:evenodd;}.a{opacity:0.3;}</style></defs><g transform="translate(-2.5 -2.5)"><path class="a" d="M18.833,13.008,18.854,13v3.821a.833.833,0,0,1-1.423.589L15.521,15.5H5.5A2.5,2.5,0,0,1,3,13V5.5A2.5,2.5,0,0,1,5.5,3H16.333a2.5,2.5,0,0,1,2.5,2.5V13S18.833,13.005,18.833,13.008Z" transform="translate(-0.5 -0.5)"/><path class="b" d="M7.25,11.5A1.25,1.25,0,1,1,8.5,10.25,1.25,1.25,0,0,1,7.25,11.5Zm4.167,0a1.25,1.25,0,1,1,1.25-1.25A1.25,1.25,0,0,1,11.417,11.5Zm4.167,0a1.25,1.25,0,1,1,1.25-1.25A1.25,1.25,0,0,1,15.583,11.5Z" transform="translate(-1 -1.5)"/></g></svg>