<svg xmlns="http://www.w3.org/2000/svg" width="18" height="18" viewBox="0 0 18 18"><defs><style>.a,.b{fill:#fff;}.a{opacity:0.3;}</style></defs><g transform="translate(-30.007 -124.887)"><path class="a" d="M13.5,10.8a.9.9,0,0,0,0,1.8h.9A3.6,3.6,0,0,0,18,9V3.6A3.6,3.6,0,0,0,14.4,0H3.6A3.6,3.6,0,0,0,0,3.6V9.006a3.6,3.6,0,0,0,3.6,3.6h.9a.9.9,0,0,0,0-1.8H3.6a1.8,1.8,0,0,1-1.8-1.8V3.6A1.8,1.8,0,0,1,3.6,1.8H14.4a1.8,1.8,0,0,1,1.8,1.8V9a1.8,1.8,0,0,1-1.8,1.8Z" transform="translate(30.007 142.887) rotate(-90)"/><rect class="b" width="1.8" height="10.8" rx="0.9" transform="translate(46.207 132.987) rotate(90)"/><path class="b" d="M5.664.264A.9.9,0,0,1,6.936,1.536l-2.7,2.7a.9.9,0,0,1-1.273,0l-2.7-2.7A.9.9,0,0,1,1.536.264L3.6,2.327Z" transform="translate(43.507 137.487) rotate(-90)"/></g></svg>