<svg xmlns="http://www.w3.org/2000/svg" width="16.667" height="14.167" viewBox="0 0 16.667 14.167"><defs><style>.a,.b{fill:#fff;fill-rule:evenodd;}.a{opacity:0.3;}</style></defs><g transform="translate(-1.667 -3.333)"><path class="a" d="M3.25,18.167H17.417a1.25,1.25,0,0,0,1.25-1.25V7.75a1.25,1.25,0,0,0-1.25-1.25H8.667L6.533,4.366A1.25,1.25,0,0,0,5.649,4H3.25A1.25,1.25,0,0,0,2,5.25V16.917A1.25,1.25,0,0,0,3.25,18.167Z" transform="translate(-0.333 -0.667)"/><path class="b" d="M8.46,13.736h1.769V15.41a.417.417,0,0,0,.417.417h.973a.417.417,0,0,0,.417-.417V13.736H13.8a.417.417,0,0,0,.309-.7l-2.672-2.946a.417.417,0,0,0-.589-.029l-.029.029L8.151,13.04a.417.417,0,0,0,.309.7Z" transform="translate(-1.34 -1.66)"/></g></svg>