<svg xmlns="http://www.w3.org/2000/svg" width="15" height="12.5" viewBox="0 0 15 12.5"><defs><style>.a,.b{fill:#fff;}.a{fill-rule:evenodd;}.b{opacity:0.3;}</style></defs><g transform="translate(-2.5 -3.333)"><path class="a" d="M4.667,7H16.333A1.667,1.667,0,0,1,18,8.667v6.667A1.667,1.667,0,0,1,16.333,17H4.667A1.667,1.667,0,0,1,3,15.333V8.667A1.667,1.667,0,0,1,4.667,7ZM10.5,15.333A3.333,3.333,0,1,0,7.167,12,3.333,3.333,0,0,0,10.5,15.333Z" transform="translate(-0.5 -1.167)"/><rect class="b" width="5" height="1.667" rx="0.833" transform="translate(7.5 3.333)"/><circle class="b" cx="1.667" cy="1.667" r="1.667" transform="translate(8.334 9.166)"/></g></svg>