<svg xmlns="http://www.w3.org/2000/svg" width="20" height="20" viewBox="0 0 20 20"><defs><style>.a,.b{fill:#fff;}.a{opacity:0.3;}.b{fill-rule:evenodd;}</style></defs><g transform="translate(-29 -138.387)"><circle class="a" cx="10" cy="10" r="10" transform="translate(29 138.387)"/><path class="b" d="M12.706,23A10,10,0,0,1,3,13q0-.139,0-.276c.732.07,2.059.229,2.121.743.087.712,0,1.6.606,1.868s.779-1.068,1.3-.712,1.9.7,1.9,1.328-.26,1.608,0,1.786a7.042,7.042,0,0,1,1.3,1.6c0,.178.366,1.083.257,1.429A4.9,4.9,0,0,1,9.5,22.35,9.713,9.713,0,0,0,12.706,23ZM8.87,3.89a10.01,10.01,0,0,1,13.06,4.6,5.086,5.086,0,0,0,.222,1.876c.975,1.364-2.374,2.3-1.865,4.364.224.91-2.227.621-2.826,1.473s-2.063.279-2.4.116-1.639.382-1.526-.546.9-.982,1.752-1.364,2.07-1.65,1.47-1.816A5.991,5.991,0,0,1,12.96,9.087c-.17-.033-.127-1.93-.862-1.985a9.813,9.813,0,0,1-2.2,0c-1.074-.218-.848-.927-1.017-2.455A2.828,2.828,0,0,1,8.87,3.89ZM23,12.863q0,.068,0,.137a10,10,0,0,1-9.9,10A10.152,10.152,0,0,0,23,12.863Z" transform="translate(26 135.387)"/></g></svg>