<svg xmlns="http://www.w3.org/2000/svg" width="13.333" height="16.667" viewBox="0 0 13.333 16.667"><defs><style>.a,.b{fill:#fff;}.a{opacity:0.3;}.b{fill-rule:evenodd;}</style></defs><g transform="translate(-3.334 -1.666)"><path class="a" d="M5.548,2h6.566a1.25,1.25,0,0,1,.807.3l3.97,3.358a1.25,1.25,0,0,1,.443.954V17.069c0,1.492-.017,1.6-1.548,1.6H5.548c-1.531,0-1.548-.105-1.548-1.6V3.6C4,2.105,4.017,2,5.548,2Z" transform="translate(-0.666 -0.334)"/><path class="b" d="M10.3,12.48,9.123,11.3A.833.833,0,1,1,10.3,10.123L11.48,11.3l1.179-1.179A.833.833,0,1,1,13.837,11.3L12.658,12.48l1.179,1.179a.833.833,0,1,1-1.179,1.179L11.48,13.658,10.3,14.837a.833.833,0,0,1-1.179-1.179Z" transform="translate(-1.479 -1.646)"/></g></svg>