<svg xmlns="http://www.w3.org/2000/svg" width="13.333" height="16.905" viewBox="0 0 13.333 16.905"><defs><style>.a,.b{fill:#fff;fill-rule:evenodd;}.a{opacity:0.3;}</style></defs><g transform="translate(-3.333 -2.112)"><path class="a" d="M4,3.756l6.36-1.192a1.667,1.667,0,0,1,.614,0l6.36,1.192v7.736A7.092,7.092,0,0,1,14,17.506l-2.892,1.807a.833.833,0,0,1-.883,0L7.333,17.506A7.092,7.092,0,0,1,4,11.492Z" transform="translate(-0.667 -0.423)"/><path class="b" d="M10.3,11.48,9.123,10.3A.833.833,0,0,1,10.3,9.123L11.48,10.3l1.179-1.179A.833.833,0,1,1,13.837,10.3L12.658,11.48l1.179,1.179a.833.833,0,0,1-1.179,1.179L11.48,12.658,10.3,13.837a.833.833,0,0,1-1.179-1.179Z" transform="translate(-1.48 -1.479)"/></g></svg>