<svg xmlns="http://www.w3.org/2000/svg" width="12.8" height="16" viewBox="0 0 12.8 16"><defs><style>.a,.b{fill:#fff;}.a{opacity:0.3;}</style></defs><g transform="translate(-350 -678)"><path class="a" d="M5.486,2h6.3a1.2,1.2,0,0,1,.775.284l3.811,3.223a1.2,1.2,0,0,1,.425.916V16.467C16.8,17.9,16.784,18,15.314,18H5.486C4.016,18,4,17.9,4,16.467V3.533C4,2.1,4.016,2,5.486,2Z" transform="translate(346 676)"/><path class="b" d="M7.988,11.177a.571.571,0,0,1-.834-.782L9.3,8.109a.571.571,0,0,1,.788-.044l1.691,1.443,2.2-2.791a.571.571,0,0,1,.9.708l-2.571,3.257a.571.571,0,0,1-.819.081L9.758,9.289Z" transform="translate(345.4 678.5)"/></g></svg>