<svg id="svg" version="1.1" xmlns="http://www.w3.org/2000/svg" xmlns:xlink="http://www.w3.org/1999/xlink" width="400" height="366.97247706422013" viewBox="0, 0, 400,366.97247706422013"><g id="svgg"><path id="path0" d="M240.000 32.110 C 240.000 32.543,239.490 32.661,237.615 32.661 C 236.269 32.661,235.229 32.821,235.229 33.028 C 235.229 33.229,234.651 33.394,233.945 33.394 C 233.048 33.394,232.661 33.561,232.661 33.945 C 232.661 34.343,232.253 34.495,231.193 34.495 C 230.385 34.495,229.725 34.661,229.725 34.862 C 229.725 35.064,229.312 35.229,228.807 35.229 C 228.236 35.229,227.890 35.437,227.890 35.780 C 227.890 36.092,227.561 36.330,227.130 36.330 C 226.317 36.330,225.321 37.124,225.321 37.772 C 225.321 37.988,224.908 38.165,224.404 38.165 C 223.899 38.165,223.486 38.330,223.486 38.532 C 223.486 38.734,223.239 38.899,222.936 38.899 C 222.633 38.899,222.385 39.076,222.385 39.292 C 222.385 39.800,221.452 40.734,220.944 40.734 C 220.727 40.734,220.550 40.911,220.550 41.127 C 220.550 41.635,219.617 42.569,219.109 42.569 C 218.893 42.569,218.716 42.746,218.716 42.962 C 218.716 43.470,217.782 44.404,217.274 44.404 C 217.058 44.404,216.881 44.817,216.881 45.321 C 216.881 45.826,216.716 46.239,216.514 46.239 C 216.312 46.239,216.147 46.486,216.147 46.789 C 216.147 47.092,215.899 47.339,215.596 47.339 C 215.254 47.339,215.046 47.686,215.046 48.257 C 215.046 48.761,214.881 49.174,214.679 49.174 C 214.477 49.174,214.312 49.587,214.312 50.092 C 214.312 50.663,214.104 51.009,213.761 51.009 C 213.377 51.009,213.211 51.397,213.211 52.294 C 213.211 53.000,213.046 53.578,212.844 53.578 C 212.642 53.578,212.477 54.239,212.477 55.046 C 212.477 56.106,212.324 56.514,211.927 56.514 C 211.498 56.514,211.376 57.003,211.376 58.716 C 211.376 59.939,211.213 60.917,211.009 60.917 C 210.765 60.917,210.642 92.049,210.642 153.578 C 210.642 215.107,210.765 246.239,211.009 246.239 C 211.216 246.239,211.376 247.278,211.376 248.624 C 211.376 249.969,211.216 251.009,211.009 251.009 C 210.784 251.009,210.642 252.783,210.642 255.596 C 210.642 258.410,210.784 260.183,211.009 260.183 C 211.229 260.183,211.376 261.651,211.376 263.853 C 211.376 266.055,211.229 267.523,211.009 267.523 C 210.784 267.523,210.642 269.297,210.642 272.110 C 210.642 274.924,210.784 276.697,211.009 276.697 C 211.229 276.697,211.376 278.165,211.376 280.367 C 211.376 282.569,211.229 284.037,211.009 284.037 C 210.784 284.037,210.642 285.810,210.642 288.624 C 210.642 291.437,210.784 293.211,211.009 293.211 C 211.229 293.211,211.376 294.679,211.376 296.881 C 211.376 299.083,211.229 300.550,211.009 300.550 C 210.784 300.550,210.642 302.324,210.642 305.138 C 210.642 307.951,210.784 309.725,211.009 309.725 C 211.232 309.725,211.376 311.315,211.376 313.761 C 211.376 317.105,211.471 317.798,211.927 317.798 C 212.359 317.798,212.477 318.308,212.477 320.183 C 212.477 321.529,212.637 322.569,212.844 322.569 C 213.046 322.569,213.211 323.147,213.211 323.853 C 213.211 324.750,213.377 325.138,213.761 325.138 C 214.159 325.138,214.312 325.545,214.312 326.606 C 214.312 327.413,214.477 328.073,214.679 328.073 C 214.881 328.073,215.046 328.486,215.046 328.991 C 215.046 329.562,215.254 329.908,215.596 329.908 C 215.908 329.908,216.147 330.237,216.147 330.668 C 216.147 331.481,216.941 332.477,217.588 332.477 C 217.805 332.477,217.982 332.890,217.982 333.394 C 217.982 333.899,218.147 334.312,218.349 334.312 C 218.550 334.312,218.716 334.560,218.716 334.862 C 218.716 335.165,218.893 335.413,219.109 335.413 C 219.617 335.413,220.550 336.346,220.550 336.855 C 220.550 337.071,220.727 337.248,220.944 337.248 C 221.452 337.248,222.385 338.181,222.385 338.689 C 222.385 338.906,222.562 339.083,222.779 339.083 C 223.287 339.083,224.220 340.016,224.220 340.524 C 224.220 340.740,224.633 340.917,225.138 340.917 C 225.642 340.917,226.055 341.083,226.055 341.284 C 226.055 341.486,226.468 341.651,226.972 341.651 C 227.543 341.651,227.890 341.859,227.890 342.202 C 227.890 342.505,228.138 342.752,228.440 342.752 C 228.743 342.752,228.991 342.917,228.991 343.119 C 228.991 343.321,229.404 343.486,229.908 343.486 C 230.479 343.486,230.826 343.694,230.826 344.037 C 230.826 344.421,231.213 344.587,232.110 344.587 C 232.817 344.587,233.394 344.752,233.394 344.954 C 233.394 345.156,234.055 345.321,234.862 345.321 C 235.923 345.321,236.330 345.474,236.330 345.872 C 236.330 346.300,236.820 346.422,238.532 346.422 C 239.755 346.422,240.734 346.585,240.734 346.789 C 240.734 347.009,242.202 347.156,244.404 347.156 C 246.606 347.156,248.073 347.009,248.073 346.789 C 248.073 346.577,249.235 346.422,250.826 346.422 C 253.028 346.422,253.578 346.312,253.578 345.872 C 253.578 345.456,254.027 345.321,255.413 345.321 C 256.422 345.321,257.248 345.156,257.248 344.954 C 257.248 344.752,257.908 344.587,258.716 344.587 C 259.776 344.587,260.183 344.434,260.183 344.037 C 260.183 343.725,260.513 343.486,260.944 343.486 C 261.756 343.486,262.752 342.692,262.752 342.045 C 262.752 341.828,263.165 341.651,263.670 341.651 C 264.174 341.651,264.587 341.486,264.587 341.284 C 264.587 341.083,264.835 340.917,265.138 340.917 C 265.440 340.917,265.688 340.670,265.688 340.367 C 265.688 340.055,266.017 339.817,266.448 339.817 C 267.261 339.817,268.257 339.022,268.257 338.375 C 268.257 338.159,268.434 337.982,268.650 337.982 C 269.158 337.982,270.092 337.048,270.092 336.540 C 270.092 336.324,270.269 336.147,270.485 336.147 C 271.133 336.147,271.927 335.151,271.927 334.338 C 271.927 333.907,272.165 333.578,272.477 333.578 C 272.780 333.578,273.028 333.330,273.028 333.028 C 273.028 332.725,273.193 332.477,273.394 332.477 C 273.596 332.477,273.761 332.064,273.761 331.560 C 273.761 330.989,273.969 330.642,274.312 330.642 C 274.654 330.642,274.862 330.296,274.862 329.725 C 274.862 329.220,275.028 328.807,275.229 328.807 C 275.431 328.807,275.596 328.394,275.596 327.890 C 275.596 327.319,275.804 326.972,276.147 326.972 C 276.531 326.972,276.697 326.585,276.697 325.688 C 276.697 324.982,276.862 324.404,277.064 324.404 C 277.266 324.404,277.431 323.578,277.431 322.569 C 277.431 321.182,277.566 320.734,277.982 320.734 C 278.430 320.734,278.532 320.122,278.532 317.431 C 278.532 315.474,278.682 314.128,278.899 314.128 C 279.141 314.128,279.266 300.734,279.266 274.679 C 279.266 248.624,279.141 235.229,278.899 235.229 C 278.655 235.229,278.532 206.116,278.532 148.624 C 278.532 71.886,278.469 62.018,277.982 62.018 C 277.549 62.018,277.431 61.509,277.431 59.633 C 277.431 58.287,277.271 57.248,277.064 57.248 C 276.862 57.248,276.697 56.422,276.697 55.413 C 276.697 54.027,276.563 53.578,276.147 53.578 C 275.762 53.578,275.596 53.191,275.596 52.294 C 275.596 51.587,275.431 51.009,275.229 51.009 C 275.028 51.009,274.862 50.596,274.862 50.092 C 274.862 49.521,274.654 49.174,274.312 49.174 C 274.009 49.174,273.761 48.927,273.761 48.624 C 273.761 48.321,273.596 48.073,273.394 48.073 C 273.193 48.073,273.028 47.661,273.028 47.156 C 273.028 46.651,272.851 46.239,272.634 46.239 C 271.987 46.239,271.193 45.242,271.193 44.430 C 271.193 43.999,270.954 43.670,270.642 43.670 C 270.339 43.670,270.092 43.493,270.092 43.277 C 270.092 42.768,269.158 41.835,268.650 41.835 C 268.434 41.835,268.257 41.658,268.257 41.442 C 268.257 40.934,267.323 40.000,266.815 40.000 C 266.599 40.000,266.422 39.823,266.422 39.607 C 266.422 38.959,265.426 38.165,264.613 38.165 C 264.182 38.165,263.853 37.927,263.853 37.615 C 263.853 37.272,263.507 37.064,262.936 37.064 C 262.431 37.064,262.018 36.899,262.018 36.697 C 262.018 36.495,261.771 36.330,261.468 36.330 C 261.165 36.330,260.917 36.083,260.917 35.780 C 260.917 35.437,260.571 35.229,260.000 35.229 C 259.495 35.229,259.083 35.064,259.083 34.862 C 259.083 34.661,258.505 34.495,257.798 34.495 C 256.901 34.495,256.514 34.329,256.514 33.945 C 256.514 33.547,256.106 33.394,255.046 33.394 C 254.239 33.394,253.578 33.229,253.578 33.028 C 253.578 32.824,252.599 32.661,251.376 32.661 C 249.664 32.661,249.174 32.538,249.174 32.110 C 249.174 31.650,248.420 31.560,244.587 31.560 C 240.754 31.560,240.000 31.650,240.000 32.110 " stroke="none" fill="#1464d4" fill-rule="evenodd"></path><path id="path1" d="M143.486 125.688 C 143.486 126.134,142.895 126.239,140.367 126.239 C 138.532 126.239,137.248 126.390,137.248 126.606 C 137.248 126.807,136.422 126.972,135.413 126.972 C 134.027 126.972,133.578 127.107,133.578 127.523 C 133.578 127.920,133.170 128.073,132.110 128.073 C 131.303 128.073,130.642 128.239,130.642 128.440 C 130.642 128.642,130.229 128.807,129.725 128.807 C 129.154 128.807,128.807 129.015,128.807 129.358 C 128.807 129.700,128.461 129.908,127.890 129.908 C 127.385 129.908,126.972 130.073,126.972 130.275 C 126.972 130.477,126.560 130.642,126.055 130.642 C 125.550 130.642,125.138 130.819,125.138 131.035 C 125.138 131.683,124.141 132.477,123.329 132.477 C 122.898 132.477,122.569 132.715,122.569 133.028 C 122.569 133.330,122.392 133.578,122.176 133.578 C 121.668 133.578,120.734 134.512,120.734 135.020 C 120.734 135.236,120.486 135.413,120.183 135.413 C 119.871 135.413,119.633 135.742,119.633 136.173 C 119.633 136.985,118.839 137.982,118.191 137.982 C 117.975 137.982,117.798 138.394,117.798 138.899 C 117.798 139.404,117.633 139.817,117.431 139.817 C 117.229 139.817,117.064 140.064,117.064 140.367 C 117.064 140.670,116.817 140.917,116.514 140.917 C 116.171 140.917,115.963 141.264,115.963 141.835 C 115.963 142.339,115.798 142.752,115.596 142.752 C 115.394 142.752,115.229 143.330,115.229 144.037 C 115.229 144.934,115.063 145.321,114.679 145.321 C 114.281 145.321,114.128 145.729,114.128 146.789 C 114.128 147.596,113.963 148.257,113.761 148.257 C 113.558 148.257,113.394 149.235,113.394 150.459 C 113.394 152.171,113.272 152.661,112.844 152.661 C 112.384 152.661,112.294 153.415,112.294 157.248 C 112.294 160.061,112.152 161.835,111.927 161.835 C 111.693 161.835,111.560 164.832,111.560 170.092 C 111.560 175.352,111.693 178.349,111.927 178.349 C 112.164 178.349,112.294 182.752,112.294 190.826 C 112.294 201.672,112.366 203.303,112.844 203.303 C 113.330 203.303,113.394 208.033,113.394 243.670 C 113.394 270.336,113.519 284.037,113.761 284.037 C 114.001 284.037,114.128 290.214,114.128 301.835 C 114.128 317.411,114.197 319.633,114.679 319.633 C 115.112 319.633,115.229 320.143,115.229 322.018 C 115.229 323.364,115.389 324.404,115.596 324.404 C 115.798 324.404,115.963 324.982,115.963 325.688 C 115.963 326.585,116.129 326.972,116.514 326.972 C 116.911 326.972,117.064 327.380,117.064 328.440 C 117.064 329.248,117.229 329.908,117.431 329.908 C 117.633 329.908,117.798 330.486,117.798 331.193 C 117.798 332.090,117.964 332.477,118.349 332.477 C 118.691 332.477,118.899 332.824,118.899 333.394 C 118.899 333.899,119.064 334.312,119.266 334.312 C 119.468 334.312,119.633 334.725,119.633 335.229 C 119.633 335.800,119.841 336.147,120.183 336.147 C 120.486 336.147,120.734 336.324,120.734 336.540 C 120.734 337.048,121.668 337.982,122.176 337.982 C 122.392 337.982,122.569 338.159,122.569 338.375 C 122.569 338.883,123.502 339.817,124.010 339.817 C 124.227 339.817,124.404 339.993,124.404 340.210 C 124.404 340.857,125.400 341.651,126.212 341.651 C 126.643 341.651,126.972 341.890,126.972 342.202 C 126.972 342.544,127.319 342.752,127.890 342.752 C 128.394 342.752,128.807 342.917,128.807 343.119 C 128.807 343.321,129.220 343.486,129.725 343.486 C 130.296 343.486,130.642 343.694,130.642 344.037 C 130.642 344.434,131.050 344.587,132.110 344.587 C 132.917 344.587,133.578 344.752,133.578 344.954 C 133.578 345.156,134.156 345.321,134.862 345.321 C 135.759 345.321,136.147 345.487,136.147 345.872 C 136.147 346.287,136.595 346.422,137.982 346.422 C 138.991 346.422,139.817 346.587,139.817 346.789 C 139.817 347.001,140.979 347.156,142.569 347.156 C 144.771 347.156,145.321 347.266,145.321 347.706 C 145.321 348.155,145.933 348.257,148.624 348.257 C 151.315 348.257,151.927 348.155,151.927 347.706 C 151.927 347.254,152.579 347.156,155.596 347.156 C 157.798 347.156,159.266 347.009,159.266 346.789 C 159.266 346.587,160.092 346.422,161.101 346.422 C 162.487 346.422,162.936 346.287,162.936 345.872 C 162.936 345.456,163.384 345.321,164.771 345.321 C 165.780 345.321,166.606 345.156,166.606 344.954 C 166.606 344.752,167.018 344.587,167.523 344.587 C 168.094 344.587,168.440 344.379,168.440 344.037 C 168.440 343.694,168.787 343.486,169.358 343.486 C 169.862 343.486,170.275 343.321,170.275 343.119 C 170.275 342.917,170.688 342.752,171.193 342.752 C 171.697 342.752,172.110 342.575,172.110 342.359 C 172.110 341.712,173.106 340.917,173.919 340.917 C 174.350 340.917,174.679 340.679,174.679 340.367 C 174.679 340.064,174.856 339.817,175.072 339.817 C 175.580 339.817,176.514 338.883,176.514 338.375 C 176.514 338.159,176.761 337.982,177.064 337.982 C 177.376 337.982,177.615 337.653,177.615 337.221 C 177.615 336.409,178.409 335.413,179.056 335.413 C 179.273 335.413,179.450 335.000,179.450 334.495 C 179.450 333.991,179.615 333.578,179.817 333.578 C 180.018 333.578,180.183 333.330,180.183 333.028 C 180.183 332.725,180.431 332.477,180.734 332.477 C 181.076 332.477,181.284 332.130,181.284 331.560 C 181.284 331.055,181.450 330.642,181.651 330.642 C 181.853 330.642,182.018 330.064,182.018 329.358 C 182.018 328.461,182.184 328.073,182.569 328.073 C 182.966 328.073,183.119 327.666,183.119 326.606 C 183.119 325.798,183.284 325.138,183.486 325.138 C 183.688 325.138,183.853 324.312,183.853 323.303 C 183.853 321.916,183.988 321.468,184.404 321.468 C 184.832 321.468,184.954 320.979,184.954 319.266 C 184.954 318.043,185.117 317.064,185.321 317.064 C 185.561 317.064,185.688 310.092,185.688 296.881 C 185.688 283.670,185.561 276.697,185.321 276.697 C 185.082 276.697,184.954 271.254,184.954 261.101 C 184.954 247.482,184.884 245.505,184.404 245.505 C 183.988 245.505,183.853 245.056,183.853 243.670 C 183.853 242.283,183.988 241.835,184.404 241.835 C 184.872 241.835,184.954 240.877,184.954 235.413 C 184.954 229.949,184.872 228.991,184.404 228.991 C 183.988 228.991,183.853 228.542,183.853 227.156 C 183.853 225.770,183.988 225.321,184.404 225.321 C 184.872 225.321,184.954 224.363,184.954 218.899 C 184.954 213.435,184.872 212.477,184.404 212.477 C 183.923 212.477,183.853 210.438,183.853 196.330 C 183.853 185.810,183.725 180.183,183.486 180.183 C 183.248 180.183,183.119 175.535,183.119 166.972 C 183.119 155.474,183.048 153.761,182.569 153.761 C 182.128 153.761,182.018 153.211,182.018 151.009 C 182.018 149.419,181.863 148.257,181.651 148.257 C 181.450 148.257,181.284 147.596,181.284 146.789 C 181.284 145.729,181.131 145.321,180.734 145.321 C 180.349 145.321,180.183 144.934,180.183 144.037 C 180.183 143.330,180.018 142.752,179.817 142.752 C 179.615 142.752,179.450 142.339,179.450 141.835 C 179.450 141.264,179.242 140.917,178.899 140.917 C 178.557 140.917,178.349 140.571,178.349 140.000 C 178.349 139.495,178.183 139.083,177.982 139.083 C 177.780 139.083,177.615 138.835,177.615 138.532 C 177.615 138.229,177.367 137.982,177.064 137.982 C 176.752 137.982,176.514 137.653,176.514 137.221 C 176.514 136.409,175.720 135.413,175.072 135.413 C 174.856 135.413,174.679 135.236,174.679 135.020 C 174.679 134.512,173.745 133.578,173.237 133.578 C 173.021 133.578,172.844 133.330,172.844 133.028 C 172.844 132.715,172.515 132.477,172.084 132.477 C 171.271 132.477,170.275 131.683,170.275 131.035 C 170.275 130.819,169.862 130.642,169.358 130.642 C 168.853 130.642,168.440 130.477,168.440 130.275 C 168.440 130.073,168.028 129.908,167.523 129.908 C 166.952 129.908,166.606 129.700,166.606 129.358 C 166.606 129.015,166.259 128.807,165.688 128.807 C 165.183 128.807,164.771 128.642,164.771 128.440 C 164.771 128.239,164.110 128.073,163.303 128.073 C 162.243 128.073,161.835 127.920,161.835 127.523 C 161.835 127.107,161.386 126.972,160.000 126.972 C 158.991 126.972,158.165 126.807,158.165 126.606 C 158.165 126.393,157.003 126.239,155.413 126.239 C 153.211 126.239,152.661 126.128,152.661 125.688 C 152.661 125.228,151.906 125.138,148.073 125.138 C 144.241 125.138,143.486 125.228,143.486 125.688 M334.312 160.550 C 334.312 160.997,333.721 161.101,331.193 161.101 C 329.358 161.101,328.073 161.252,328.073 161.468 C 328.073 161.670,327.248 161.835,326.239 161.835 C 324.852 161.835,324.404 161.969,324.404 162.385 C 324.404 162.728,324.057 162.936,323.486 162.936 C 322.982 162.936,322.569 163.101,322.569 163.303 C 322.569 163.505,321.908 163.670,321.101 163.670 C 320.041 163.670,319.633 163.823,319.633 164.220 C 319.633 164.532,319.304 164.771,318.873 164.771 C 318.060 164.771,317.064 165.565,317.064 166.212 C 317.064 166.429,316.651 166.606,316.147 166.606 C 315.642 166.606,315.229 166.771,315.229 166.972 C 315.229 167.174,314.982 167.339,314.679 167.339 C 314.376 167.339,314.128 167.516,314.128 167.733 C 314.128 168.241,313.195 169.174,312.687 169.174 C 312.471 169.174,312.294 169.351,312.294 169.567 C 312.294 170.076,311.360 171.009,310.852 171.009 C 310.636 171.009,310.459 171.257,310.459 171.560 C 310.459 171.862,310.294 172.110,310.092 172.110 C 309.890 172.110,309.725 172.523,309.725 173.028 C 309.725 173.598,309.517 173.945,309.174 173.945 C 308.832 173.945,308.624 174.292,308.624 174.862 C 308.624 175.367,308.459 175.780,308.257 175.780 C 308.055 175.780,307.890 176.193,307.890 176.697 C 307.890 177.268,307.682 177.615,307.339 177.615 C 306.997 177.615,306.789 177.961,306.789 178.532 C 306.789 179.037,306.624 179.450,306.422 179.450 C 306.220 179.450,306.055 180.028,306.055 180.734 C 306.055 181.631,305.889 182.018,305.505 182.018 C 305.072 182.018,304.954 182.528,304.954 184.404 C 304.954 185.749,304.794 186.789,304.587 186.789 C 304.361 186.789,304.220 188.685,304.220 191.743 C 304.220 195.902,304.132 196.697,303.670 196.697 C 303.212 196.697,303.119 197.411,303.119 200.917 C 303.119 204.424,303.212 205.138,303.670 205.138 C 304.122 205.138,304.220 205.790,304.220 208.807 C 304.220 211.825,304.122 212.477,303.670 212.477 C 303.210 212.477,303.119 213.231,303.119 217.064 C 303.119 220.897,303.210 221.651,303.670 221.651 C 304.122 221.651,304.220 222.304,304.220 225.321 C 304.220 228.338,304.122 228.991,303.670 228.991 C 303.210 228.991,303.119 229.745,303.119 233.578 C 303.119 237.411,303.210 238.165,303.670 238.165 C 304.122 238.165,304.220 238.818,304.220 241.835 C 304.220 244.852,304.122 245.505,303.670 245.505 C 303.210 245.505,303.119 246.259,303.119 250.092 C 303.119 253.925,303.210 254.679,303.670 254.679 C 304.122 254.679,304.220 255.331,304.220 258.349 C 304.220 261.366,304.122 262.018,303.670 262.018 C 303.210 262.018,303.119 262.773,303.119 266.606 C 303.119 270.438,303.210 271.193,303.670 271.193 C 304.122 271.193,304.220 271.845,304.220 274.862 C 304.220 277.880,304.122 278.532,303.670 278.532 C 303.210 278.532,303.119 279.286,303.119 283.119 C 303.119 286.952,303.210 287.706,303.670 287.706 C 304.149 287.706,304.220 289.521,304.220 301.835 C 304.220 311.009,304.349 315.963,304.587 315.963 C 304.799 315.963,304.954 317.125,304.954 318.716 C 304.954 320.917,305.064 321.468,305.505 321.468 C 305.920 321.468,306.055 321.916,306.055 323.303 C 306.055 324.312,306.220 325.138,306.422 325.138 C 306.624 325.138,306.789 325.798,306.789 326.606 C 306.789 327.666,306.942 328.073,307.339 328.073 C 307.682 328.073,307.890 328.420,307.890 328.991 C 307.890 329.495,308.055 329.908,308.257 329.908 C 308.459 329.908,308.624 330.486,308.624 331.193 C 308.624 332.090,308.790 332.477,309.174 332.477 C 309.477 332.477,309.725 332.725,309.725 333.028 C 309.725 333.330,309.890 333.578,310.092 333.578 C 310.294 333.578,310.459 333.991,310.459 334.495 C 310.459 335.066,310.667 335.413,311.009 335.413 C 311.321 335.413,311.560 335.742,311.560 336.173 C 311.560 336.985,312.354 337.982,313.001 337.982 C 313.218 337.982,313.394 338.159,313.394 338.375 C 313.394 338.883,314.328 339.817,314.836 339.817 C 315.052 339.817,315.229 339.993,315.229 340.210 C 315.229 340.857,316.226 341.651,317.038 341.651 C 317.469 341.651,317.798 341.890,317.798 342.202 C 317.798 342.544,318.145 342.752,318.716 342.752 C 319.220 342.752,319.633 342.917,319.633 343.119 C 319.633 343.321,320.046 343.486,320.550 343.486 C 321.121 343.486,321.468 343.694,321.468 344.037 C 321.468 344.434,321.876 344.587,322.936 344.587 C 323.743 344.587,324.404 344.752,324.404 344.954 C 324.404 345.156,325.229 345.321,326.239 345.321 C 327.625 345.321,328.073 345.456,328.073 345.872 C 328.073 346.300,328.563 346.422,330.275 346.422 C 331.498 346.422,332.477 346.585,332.477 346.789 C 332.477 347.021,335.168 347.156,339.817 347.156 C 344.465 347.156,347.156 347.021,347.156 346.789 C 347.156 346.587,347.982 346.422,348.991 346.422 C 350.377 346.422,350.826 346.287,350.826 345.872 C 350.826 345.456,351.274 345.321,352.661 345.321 C 353.670 345.321,354.495 345.156,354.495 344.954 C 354.495 344.752,355.156 344.587,355.963 344.587 C 357.023 344.587,357.431 344.434,357.431 344.037 C 357.431 343.652,357.819 343.486,358.716 343.486 C 359.422 343.486,360.000 343.321,360.000 343.119 C 360.000 342.917,360.248 342.752,360.550 342.752 C 360.853 342.752,361.101 342.505,361.101 342.202 C 361.101 341.890,361.430 341.651,361.861 341.651 C 362.674 341.651,363.670 340.857,363.670 340.210 C 363.670 339.993,364.083 339.817,364.587 339.817 C 365.092 339.817,365.505 339.651,365.505 339.450 C 365.505 339.248,365.752 339.083,366.055 339.083 C 366.398 339.083,366.606 338.736,366.606 338.165 C 366.606 337.661,366.771 337.248,366.972 337.248 C 367.174 337.248,367.339 337.000,367.339 336.697 C 367.339 336.394,367.587 336.147,367.890 336.147 C 368.202 336.147,368.440 335.818,368.440 335.387 C 368.440 334.574,369.234 333.578,369.882 333.578 C 370.098 333.578,370.275 333.165,370.275 332.661 C 370.275 332.156,370.440 331.743,370.642 331.743 C 370.844 331.743,371.009 331.330,371.009 330.826 C 371.009 330.255,371.217 329.908,371.560 329.908 C 371.957 329.908,372.110 329.501,372.110 328.440 C 372.110 327.633,372.275 326.972,372.477 326.972 C 372.679 326.972,372.844 326.394,372.844 325.688 C 372.844 324.791,373.010 324.404,373.394 324.404 C 373.827 324.404,373.945 323.894,373.945 322.018 C 373.945 320.673,374.105 319.633,374.312 319.633 C 374.524 319.633,374.679 318.471,374.679 316.881 C 374.679 314.679,374.789 314.128,375.229 314.128 C 375.703 314.128,375.780 312.926,375.780 305.505 C 375.780 298.084,375.703 296.881,375.229 296.881 C 374.743 296.881,374.679 290.622,374.679 242.752 C 374.679 206.911,374.555 188.624,374.312 188.624 C 374.100 188.624,373.945 187.462,373.945 185.872 C 373.945 183.670,373.835 183.119,373.394 183.119 C 372.997 183.119,372.844 182.712,372.844 181.651 C 372.844 180.844,372.679 180.183,372.477 180.183 C 372.275 180.183,372.110 179.606,372.110 178.899 C 372.110 178.002,371.944 177.615,371.560 177.615 C 371.217 177.615,371.009 177.268,371.009 176.697 C 371.009 176.193,370.844 175.780,370.642 175.780 C 370.440 175.780,370.275 175.367,370.275 174.862 C 370.275 174.292,370.067 173.945,369.725 173.945 C 369.422 173.945,369.174 173.768,369.174 173.552 C 369.174 173.044,368.241 172.110,367.733 172.110 C 367.516 172.110,367.339 171.697,367.339 171.193 C 367.339 170.688,367.174 170.275,366.972 170.275 C 366.771 170.275,366.606 170.028,366.606 169.725 C 366.606 169.422,366.358 169.174,366.055 169.174 C 365.752 169.174,365.505 169.009,365.505 168.807 C 365.505 168.606,365.092 168.440,364.587 168.440 C 364.083 168.440,363.670 168.263,363.670 168.047 C 363.670 167.539,362.736 166.606,362.228 166.606 C 362.012 166.606,361.835 166.358,361.835 166.055 C 361.835 165.713,361.488 165.505,360.917 165.505 C 360.413 165.505,360.000 165.339,360.000 165.138 C 360.000 164.936,359.587 164.771,359.083 164.771 C 358.512 164.771,358.165 164.563,358.165 164.220 C 358.165 163.878,357.819 163.670,357.248 163.670 C 356.743 163.670,356.330 163.505,356.330 163.303 C 356.330 163.101,355.752 162.936,355.046 162.936 C 354.149 162.936,353.761 162.770,353.761 162.385 C 353.761 161.969,353.313 161.835,351.927 161.835 C 350.917 161.835,350.092 161.670,350.092 161.468 C 350.092 161.250,348.746 161.101,346.789 161.101 C 344.098 161.101,343.486 160.999,343.486 160.550 C 343.486 160.091,342.732 160.000,338.899 160.000 C 335.066 160.000,334.312 160.091,334.312 160.550 M47.339 202.752 C 47.339 203.193,46.789 203.303,44.587 203.303 C 42.997 203.303,41.835 203.458,41.835 203.670 C 41.835 203.872,41.174 204.037,40.367 204.037 C 39.307 204.037,38.899 204.190,38.899 204.587 C 38.899 204.972,38.512 205.138,37.615 205.138 C 36.908 205.138,36.330 205.303,36.330 205.505 C 36.330 205.706,35.670 205.872,34.862 205.872 C 33.802 205.872,33.394 206.024,33.394 206.422 C 33.394 206.734,33.065 206.972,32.634 206.972 C 31.822 206.972,30.826 207.767,30.826 208.414 C 30.826 208.630,30.413 208.807,29.908 208.807 C 29.404 208.807,28.991 208.972,28.991 209.174 C 28.991 209.376,28.743 209.541,28.440 209.541 C 28.138 209.541,27.890 209.718,27.890 209.934 C 27.890 210.443,26.956 211.376,26.448 211.376 C 26.232 211.376,26.055 211.624,26.055 211.927 C 26.055 212.229,25.890 212.477,25.688 212.477 C 25.486 212.477,25.321 212.890,25.321 213.394 C 25.321 213.899,25.144 214.312,24.928 214.312 C 24.280 214.312,23.486 215.308,23.486 216.121 C 23.486 216.552,23.248 216.881,22.936 216.881 C 22.593 216.881,22.385 217.227,22.385 217.798 C 22.385 218.303,22.220 218.716,22.018 218.716 C 21.817 218.716,21.651 219.128,21.651 219.633 C 21.651 220.204,21.443 220.550,21.101 220.550 C 20.703 220.550,20.550 220.958,20.550 222.018 C 20.550 222.826,20.385 223.486,20.183 223.486 C 19.982 223.486,19.817 224.064,19.817 224.771 C 19.817 225.668,19.651 226.055,19.266 226.055 C 18.826 226.055,18.716 226.606,18.716 228.807 C 18.716 230.398,18.561 231.560,18.349 231.560 C 18.106 231.560,17.982 245.749,17.982 273.394 C 17.982 301.040,18.106 315.229,18.349 315.229 C 18.561 315.229,18.716 316.391,18.716 317.982 C 18.716 320.183,18.826 320.734,19.266 320.734 C 19.682 320.734,19.817 321.182,19.817 322.569 C 19.817 323.578,19.982 324.404,20.183 324.404 C 20.385 324.404,20.550 325.229,20.550 326.239 C 20.550 327.625,20.685 328.073,21.101 328.073 C 21.485 328.073,21.651 328.461,21.651 329.358 C 21.651 330.064,21.817 330.642,22.018 330.642 C 22.220 330.642,22.385 331.055,22.385 331.560 C 22.385 332.130,22.593 332.477,22.936 332.477 C 23.278 332.477,23.486 332.824,23.486 333.394 C 23.486 333.899,23.651 334.312,23.853 334.312 C 24.055 334.312,24.220 334.725,24.220 335.229 C 24.220 335.800,24.428 336.147,24.771 336.147 C 25.073 336.147,25.321 336.394,25.321 336.697 C 25.321 337.000,25.486 337.248,25.688 337.248 C 25.890 337.248,26.055 337.661,26.055 338.165 C 26.055 338.736,26.263 339.083,26.606 339.083 C 26.908 339.083,27.156 339.248,27.156 339.450 C 27.156 339.651,27.569 339.817,28.073 339.817 C 28.578 339.817,28.991 339.993,28.991 340.210 C 28.991 340.857,29.987 341.651,30.799 341.651 C 31.231 341.651,31.560 341.890,31.560 342.202 C 31.560 342.505,31.807 342.752,32.110 342.752 C 32.413 342.752,32.661 342.917,32.661 343.119 C 32.661 343.321,33.239 343.486,33.945 343.486 C 34.842 343.486,35.229 343.652,35.229 344.037 C 35.229 344.434,35.637 344.587,36.697 344.587 C 37.505 344.587,38.165 344.752,38.165 344.954 C 38.165 345.156,38.991 345.321,40.000 345.321 C 41.386 345.321,41.835 345.456,41.835 345.872 C 41.835 346.300,42.324 346.422,44.037 346.422 C 45.260 346.422,46.239 346.585,46.239 346.789 C 46.239 347.021,48.807 347.156,53.211 347.156 C 57.615 347.156,60.183 347.021,60.183 346.789 C 60.183 346.585,61.162 346.422,62.385 346.422 C 64.098 346.422,64.587 346.300,64.587 345.872 C 64.587 345.456,65.036 345.321,66.422 345.321 C 67.431 345.321,68.257 345.156,68.257 344.954 C 68.257 344.752,68.917 344.587,69.725 344.587 C 70.785 344.587,71.193 344.434,71.193 344.037 C 71.193 343.694,71.539 343.486,72.110 343.486 C 72.615 343.486,73.028 343.321,73.028 343.119 C 73.028 342.917,73.440 342.752,73.945 342.752 C 74.516 342.752,74.862 342.544,74.862 342.202 C 74.862 341.890,75.191 341.651,75.623 341.651 C 76.435 341.651,77.431 340.857,77.431 340.210 C 77.431 339.993,77.608 339.817,77.824 339.817 C 78.332 339.817,79.266 338.883,79.266 338.375 C 79.266 338.159,79.443 337.982,79.659 337.982 C 80.307 337.982,81.101 336.985,81.101 336.173 C 81.101 335.742,81.339 335.413,81.651 335.413 C 81.994 335.413,82.202 335.066,82.202 334.495 C 82.202 333.991,82.367 333.578,82.569 333.578 C 82.771 333.578,82.936 333.165,82.936 332.661 C 82.936 332.090,83.144 331.743,83.486 331.743 C 83.829 331.743,84.037 331.397,84.037 330.826 C 84.037 330.321,84.202 329.908,84.404 329.908 C 84.606 329.908,84.771 329.495,84.771 328.991 C 84.771 328.420,84.979 328.073,85.321 328.073 C 85.719 328.073,85.872 327.666,85.872 326.606 C 85.872 325.798,86.037 325.138,86.239 325.138 C 86.440 325.138,86.606 324.560,86.606 323.853 C 86.606 322.956,86.772 322.569,87.156 322.569 C 87.572 322.569,87.706 322.120,87.706 320.734 C 87.706 319.725,87.872 318.899,88.073 318.899 C 88.285 318.899,88.440 317.737,88.440 316.147 C 88.440 313.945,88.550 313.394,88.991 313.394 C 89.476 313.394,89.541 309.113,89.541 277.064 C 89.541 245.015,89.476 240.734,88.991 240.734 C 88.529 240.734,88.440 239.939,88.440 235.780 C 88.440 232.722,88.300 230.826,88.073 230.826 C 87.866 230.826,87.706 229.786,87.706 228.440 C 87.706 226.565,87.589 226.055,87.156 226.055 C 86.772 226.055,86.606 225.668,86.606 224.771 C 86.606 224.064,86.440 223.486,86.239 223.486 C 86.037 223.486,85.872 222.826,85.872 222.018 C 85.872 220.958,85.719 220.550,85.321 220.550 C 84.979 220.550,84.771 220.204,84.771 219.633 C 84.771 219.128,84.606 218.716,84.404 218.716 C 84.202 218.716,84.037 218.138,84.037 217.431 C 84.037 216.534,83.871 216.147,83.486 216.147 C 83.183 216.147,82.936 215.970,82.936 215.754 C 82.936 215.246,82.002 214.312,81.494 214.312 C 81.278 214.312,81.101 213.899,81.101 213.394 C 81.101 212.890,80.936 212.477,80.734 212.477 C 80.532 212.477,80.367 212.229,80.367 211.927 C 80.367 211.624,80.190 211.376,79.974 211.376 C 79.466 211.376,78.532 210.443,78.532 209.934 C 78.532 209.718,78.284 209.541,77.982 209.541 C 77.679 209.541,77.431 209.376,77.431 209.174 C 77.431 208.972,77.018 208.807,76.514 208.807 C 75.943 208.807,75.596 208.599,75.596 208.257 C 75.596 207.945,75.267 207.706,74.836 207.706 C 74.024 207.706,73.028 206.912,73.028 206.265 C 73.028 206.048,72.367 205.872,71.560 205.872 C 70.752 205.872,70.092 205.706,70.092 205.505 C 70.092 205.303,69.514 205.138,68.807 205.138 C 67.910 205.138,67.523 204.972,67.523 204.587 C 67.523 204.190,67.115 204.037,66.055 204.037 C 65.248 204.037,64.587 203.872,64.587 203.670 C 64.587 203.458,63.425 203.303,61.835 203.303 C 59.633 203.303,59.083 203.193,59.083 202.752 C 59.083 202.286,58.186 202.202,53.211 202.202 C 48.236 202.202,47.339 202.286,47.339 202.752 " stroke="none" fill="#f0f4fc" fill-rule="evenodd"></path></g></svg>