<svg width="585" height="186" viewBox="0 0 585 186" fill="none" xmlns="http://www.w3.org/2000/svg">
<path fill-rule="evenodd" clip-rule="evenodd" d="M199.252 74.8875C205.679 74.8875 210.914 69.8895 210.914 63.3435C210.914 57.2725 205.916 52.1565 199.729 52.1565C193.183 52.1565 188.422 57.5125 188.422 63.9395C188.422 69.6525 193.42 74.8875 199.252 74.8875Z" fill="white"/>
<path d="M483.243 84.998V77.431C483.243 77.034 482.912 76.71 482.516 76.718C480.232 76.765 478.154 76.958 476.327 77.295C474.24 77.68 472.297 78.478 470.554 79.671C468.821 80.855 467.329 82.648 466.118 84.996L465.414 86.362V77.712C465.414 77.191 464.878 76.871 464.402 77.082C463.801 77.349 463.166 77.507 462.503 77.556C461.756 77.61 456.465 77.76 453.483 77.842C452.848 77.859 452.578 78.638 453.049 79.062C453.85 79.788 454.413 80.583 454.73 81.441C455.261 82.872 455.518 85.071 455.518 88.165V121.447C455.518 123.664 455.264 125.532 454.763 127.001C454.464 127.873 453.924 128.668 453.147 129.38C452.684 129.805 453.015 130.584 453.644 130.584H467.563C468.213 130.584 468.504 129.785 468.019 129.352C467.214 128.631 466.636 127.852 466.291 127.023C465.709 125.624 465.414 123.672 465.414 121.221V100.561C465.414 96.52 466.045 93.171 467.291 90.605C468.556 87.994 470.47 86.272 472.975 85.488C475.095 85.017 476.677 84.791 477.844 84.791C479.656 84.791 481.128 85.078 482.245 85.647C482.702 85.881 483.243 85.512 483.243 84.998Z" fill="white"/>
<path d="M529.06 119.082C526.098 122.848 521.663 124.874 515.875 125.103C515.592 125.103 515.342 125.178 515.098 125.331L515.001 125.393L514.887 125.389C511.539 125.272 508.459 124.173 505.732 122.119C503.014 120.073 500.842 117.306 499.278 113.893C497.715 110.488 496.923 106.774 496.923 102.855V102.853C496.96 98.1268 497.982 94.2538 499.958 91.3418C501.932 88.4318 504.271 86.3718 506.91 85.2178C509.526 84.0738 512.129 83.4168 514.65 83.2638H514.654C518.475 83.2638 521.833 84.3248 524.659 86.4168C527.47 88.4998 529.672 91.2778 531.201 94.6758C532.725 98.0628 533.497 101.709 533.497 105.511C533.497 110.773 532.004 115.34 529.06 119.082ZM542.296 114.865C543.888 111.437 544.697 107.729 544.697 103.844C544.697 99.8058 543.907 96.0198 542.35 92.5928C540.794 89.1658 538.656 86.2368 535.992 83.8878C533.321 81.5318 530.247 79.6888 526.853 78.4098C523.457 77.1298 519.835 76.4808 516.088 76.4808C511.036 76.5928 506.548 77.4488 502.759 79.0268C498.979 80.6028 495.794 82.7718 493.295 85.4748C490.792 88.1828 488.923 91.1688 487.739 94.3518C486.551 97.5408 485.912 100.927 485.839 104.414C485.84 109.158 486.986 113.697 489.246 117.902C491.504 122.105 494.876 125.542 499.267 128.116C503.66 130.692 508.919 131.998 514.9 131.998C518.758 131.998 522.539 131.274 526.139 129.846C529.737 128.418 532.964 126.405 535.732 123.86C538.496 121.32 540.704 118.294 542.296 114.865Z" fill="white"/>
<path d="M429.621 128.76C433.586 126.611 436.846 123.577 439.31 119.742C441.775 115.909 443.213 111.52 443.585 106.696C443.66 106.027 443.696 105.031 443.696 103.726C443.696 98.3077 442.542 93.5037 440.264 89.4477C437.986 85.3957 434.89 82.2047 431.06 79.9667C427.229 77.7287 423.034 76.5557 418.593 76.4817C414.586 76.4817 410.688 77.1927 407.016 78.5947C403.367 79.9857 398.075 85.6137 398.075 85.6137V77.7417C398.075 77.2587 397.597 76.9057 397.144 77.0757C395.737 77.6087 393.542 77.9527 390.502 78.1217C389.498 78.0177 388.044 77.9487 386.141 77.9167C385.487 77.9057 385.189 78.6937 385.661 79.1447C386.459 79.9057 387.038 80.7837 387.392 81.7687C387.989 83.4257 388.293 85.5817 388.293 88.1767V145.675C388.293 148.892 387.378 151.398 385.569 153.156C385.116 153.595 385.425 154.357 386.056 154.357H400.105C400.744 154.357 401.073 153.56 400.595 153.137C400.121 152.718 399.742 152.287 399.464 151.847C398.85 150.879 398.46 149.664 398.305 148.237C398.153 146.855 398.075 144.548 398.075 141.382V98.6817C398.075 94.9027 399.575 91.4737 402.533 88.4917C405.492 85.5127 409.591 83.9447 414.713 83.8297C419.975 83.8297 424.317 85.7807 427.634 89.6317C430.937 93.4657 432.613 98.5897 432.613 104.862C432.613 106.285 432.575 107.368 432.498 108.171C431.963 113.781 429.969 118.025 426.57 120.786C423.186 123.537 418.974 124.989 414.053 125.103C410.48 124.917 407.307 124.304 404.562 123.274C403.926 123.034 403.348 123.723 403.709 124.3L407.526 130.405C407.621 130.555 407.77 130.668 407.941 130.716C415.757 132.944 423.208 132.237 429.621 128.76Z" fill="white"/>
<path fill-rule="evenodd" clip-rule="evenodd" d="M158.199 70.6474V70.6274H158.202C158.202 67.4394 157.989 64.1444 158.525 61.1254C158.919 58.9014 159.712 56.8524 161.262 55.1454C161.594 54.7334 161.353 54.1054 160.776 54.1024H134.821C134.258 54.0994 134.02 54.7824 134.344 55.1374C137.568 58.6644 137.495 63.6134 137.422 68.4584C137.414 69.0644 137.406 69.6734 137.406 70.5284V115.081H137.403C137.403 118.205 137.616 121.423 137.077 124.421C136.686 126.608 135.896 128.627 134.354 130.318C133.971 130.805 134.333 131.369 134.821 131.369H176.418C183.872 131.334 185.034 125.746 185.045 113.563C185.104 113.142 184.498 112.614 183.967 113.083C179.696 116.63 177.054 117.413 170.764 117.404L158.833 117.385C158.547 117.375 158.21 117.162 158.199 116.751V70.6474Z" fill="white"/>
<path fill-rule="evenodd" clip-rule="evenodd" d="M188.174 78.9499C190.708 81.9289 190.754 84.9509 190.736 89.1919L190.73 90.3589H190.733V118.923H190.73L190.736 120.038C190.754 124.227 190.8 127.256 188.228 130.315C187.857 130.758 188.163 131.369 188.692 131.369H212.055C212.528 131.372 212.934 130.816 212.527 130.309C209.957 127.256 210.011 124.227 210.029 120.041V120.038L210.032 118.923V77.2119C210.032 76.8179 209.655 76.4319 209.146 76.6289C207.059 77.4489 204.705 77.8779 202.228 77.9129H188.659C188.174 77.9129 187.821 78.4749 188.174 78.9499Z" fill="white"/>
<path fill-rule="evenodd" clip-rule="evenodd" d="M239.83 76.6238C237.479 77.5268 235.039 77.9148 232.524 77.9148H219.311C218.872 77.9128 218.462 78.4328 218.832 78.9448C221.423 82.0108 221.406 85.0458 221.388 89.2428L221.385 90.3588H221.388V118.923H221.385L221.388 120.062C221.406 124.312 221.42 127.342 218.886 130.32C218.492 130.795 218.869 131.369 219.35 131.369H242.709C243.294 131.361 243.531 130.703 243.181 130.31C240.655 127.336 240.666 124.309 240.684 120.065V120.062L240.687 118.923H240.684V98.8088H240.687V98.3478C240.679 95.7158 240.671 92.5268 242.475 90.2218L242.488 90.2028L242.491 90.1978C242.672 89.9468 242.874 89.7068 243.089 89.4858C243.313 89.2518 243.553 89.0358 243.801 88.8388L243.804 88.8418C245.093 87.8218 246.753 87.2188 248.351 87.2188V87.2158H248.357V87.2188C249.71 87.2188 251.034 87.5418 252.193 88.1538C252.388 88.2568 252.576 88.3638 252.754 88.4798H252.751C253.676 89.0728 254.476 89.8628 255.072 90.8278C255.965 92.0498 256.412 93.3868 256.634 94.7678C256.851 96.1208 256.851 97.4818 256.851 98.8088V118.923C256.871 123.284 257.178 127.005 254.339 130.315C253.945 130.812 254.328 131.369 254.792 131.369H278.187C278.597 131.377 279.065 130.862 278.648 130.315C276.116 127.336 276.13 124.309 276.149 120.062L276.151 118.923H276.149V99.2848H276.151L276.154 97.9648V97.9618C276.179 92.3518 276.197 87.5018 272.259 82.9238C270.135 80.4548 267.636 78.8148 264.893 77.7968C262.13 76.7698 259.108 76.3618 255.968 76.3618V76.3678H255.959V76.3618C253.013 76.3648 250.301 76.8258 247.909 77.8208C247.514 77.9848 247.133 78.1598 246.777 78.3438C244.885 79.3118 243.222 80.6598 241.839 82.4258C241.415 82.9538 240.687 82.6708 240.687 82.0288V77.2008C240.687 76.8938 240.391 76.4298 239.83 76.6238Z" fill="white"/>
<path fill-rule="evenodd" clip-rule="evenodd" d="M360.496 54.0966H365.535C365.883 54.0966 366.166 54.3826 366.166 54.7276V130.734C366.166 131.076 365.88 131.362 365.535 131.362H360.496C360.151 131.362 359.865 131.081 359.865 130.734V54.7276C359.865 54.3796 360.148 54.0966 360.496 54.0966Z" fill="#D6AD68"/>
<path fill-rule="evenodd" clip-rule="evenodd" d="M286.955 118.923L286.958 120.038C286.976 124.228 287.022 127.256 284.45 130.316C284.078 130.758 284.386 131.369 284.914 131.369H308.279C308.754 131.372 309.158 130.817 308.751 130.31C306.18 127.256 306.236 124.228 306.255 120.041V120.038L306.258 118.923H306.255V116.332H306.266V106.702C306.255 105.99 307.094 105.748 307.46 106.368L317.979 124.028L317.984 124.036C319.209 126.134 320.344 128.056 321.808 129.423C322.808 130.356 325.059 131.366 326.339 131.361H345.054C345.672 131.361 345.882 130.652 345.469 130.264C344.77 129.614 344.124 128.908 343.51 128.158C342.215 126.579 341.069 124.802 339.927 122.996V122.999L324.218 98.4826C324.091 98.2476 324.051 97.9476 324.282 97.6996L341.18 78.9446C341.493 78.6056 341.293 77.9146 340.686 77.9146H319.103C318.629 77.9146 318.254 78.5166 318.656 78.9776C319.874 80.2386 320.764 81.9076 320.764 83.7306C320.764 86.1646 319.27 87.7786 317.747 89.4236C317.476 89.7176 317.2 90.0176 316.917 90.3406L307.395 101.291C306.967 101.763 306.263 101.491 306.266 100.868C306.266 85.0266 306.255 69.1966 306.255 53.3426C306.255 52.9536 305.88 52.5656 305.371 52.7656C303.284 53.5816 300.928 54.0106 298.45 54.0456H284.882C284.396 54.0456 284.044 54.6096 284.396 55.0836C286.931 58.0626 286.976 61.0846 286.958 65.3246L286.955 66.4926V118.923Z" fill="white"/>
<path fill-rule="evenodd" clip-rule="evenodd" d="M106.527 54.0944H52.7739C46.2799 54.0944 41.0139 59.3594 41.0139 65.8534V119.609C41.0139 126.104 46.2799 131.368 52.7739 131.368H106.527C113.019 131.368 118.284 126.104 118.284 119.609V65.8534C118.284 59.3594 113.019 54.0944 106.527 54.0944Z" fill="#D6AD68"/>
<path d="M87.8716 72.7986L87.8956 72.4316C87.9666 71.4156 88.2576 70.5936 88.6696 69.9216H88.6666C89.0736 69.2616 89.5946 68.7656 90.1306 68.3746L90.1336 68.3686C90.8886 67.8216 91.7376 67.5436 92.5836 67.5116C93.3226 67.4826 94.0666 67.6466 94.7406 67.9806C95.4116 68.3096 96.0136 68.8086 96.4816 69.4556C96.9756 70.1316 97.3206 70.9706 97.4496 71.9486C98.3096 72.2456 99.0006 72.6746 99.5046 73.2216C100.149 73.9226 100.486 74.7936 100.502 75.8096C100.513 76.7296 100.384 77.6206 100.06 78.5946C99.7446 79.5406 99.2506 80.5576 98.5286 81.7456L98.0086 82.6086L87.8716 72.7986Z" fill="white"/>
<path d="M80.0806 96.0876L80.9056 96.8916L79.8676 97.3876C78.6056 97.9906 77.3446 98.5656 76.0476 99.1236C74.7536 99.6766 73.4596 100.202 72.1226 100.715L71.6426 100.898L66.4016 95.7246C66.1126 96.5006 65.8966 97.2556 65.7516 98.0216C65.5416 99.1346 65.4686 100.294 65.5336 101.591L65.5656 102.305L64.8566 102.421C60.8916 103.066 58.1056 102.663 56.4346 101.513C55.1166 100.607 54.4826 99.2766 54.4966 97.6516C54.5106 96.1576 55.0976 94.4136 56.2226 92.5316C59.5346 86.9916 67.7176 80.0016 79.8836 74.6426L80.3796 74.4236L80.7656 74.8046L93.8756 87.5906L93.2256 88.1616C92.2386 89.0296 91.2276 89.8656 90.2006 90.6886C89.1926 91.4886 88.1596 92.2836 87.1026 93.0906L86.5476 93.5166L86.0526 93.0206L75.3946 82.4546C75.2786 82.5756 75.1656 82.6976 75.0476 82.8166C73.6586 84.2416 72.3036 85.6386 71.1056 87.3376L80.0806 96.0876Z" fill="white"/>
<path d="M98.0083 82.6082L98.5293 81.7462C99.2503 80.5572 99.7443 79.5412 100.06 78.5942C100.383 77.6212 100.512 76.7292 100.501 75.8092C100.496 75.4922 100.458 75.1892 100.391 74.9012C102.109 75.0192 103.424 75.9982 104.157 77.2822C104.494 77.8752 104.707 78.5322 104.778 79.2042C104.847 79.8782 104.772 80.5702 104.534 81.2172C103.985 82.7212 102.591 83.9812 100.154 84.2882L99.7683 84.3372L99.4933 84.0672L98.0083 82.6082Z" fill="#004990"/>
<path d="M90.2359 97.1688L86.5499 93.5138L87.1029 93.0908C88.1599 92.2838 89.1929 91.4888 90.2009 90.6888C91.2279 89.8658 92.2389 89.0298 93.2249 88.1618L93.8759 87.5908L97.8109 91.4298L98.1889 91.7988L98.0029 92.2898C93.9619 102.909 86.6499 111.862 80.6059 115.771C78.6709 117.022 76.8399 117.776 75.2529 117.928C73.5079 118.092 72.0519 117.566 71.0389 116.227C69.8389 114.645 69.3399 111.907 69.8489 107.813L69.9409 107.074L70.6819 107.107C72.0739 107.168 73.3189 107.09 74.5379 106.872C75.3819 106.724 76.2169 106.505 77.0799 106.225L71.6419 100.898L72.1229 100.715C73.4599 100.202 74.7539 99.6768 76.0479 99.1238C77.3439 98.5648 78.6059 97.9908 79.8679 97.3878L80.9059 96.8918L85.5209 101.386C86.3329 100.772 87.1309 100.132 87.9099 99.4418C88.6939 98.7518 89.4699 98.0018 90.2359 97.1688Z" fill="#004990"/>
</svg>
