<svg xmlns="http://www.w3.org/2000/svg" xmlns:xlink="http://www.w3.org/1999/xlink" width="324.445" height="230" viewBox="0 0 324.445 230"><defs><style>.a{opacity:0.68;}.a,.b{fill:url(#a);}.c{opacity:0.15;mix-blend-mode:multiply;}.c,.i,.j{isolation:isolate;}.d{fill:url(#c);}.e{fill:#1a1a1a;}.f{fill:#fff;}.g{fill:url(#d);}.h{fill:url(#e);}.i,.j{opacity:0.25;mix-blend-mode:screen;}.i{fill:url(#f);}.j{fill:url(#g);}</style><linearGradient id="a" x1="0.985" y1="-0.696" x2="0.356" y2="0.854" gradientUnits="objectBoundingBox"><stop offset="0" stop-color="#fad800"/><stop offset="1" stop-color="#ff910a"/></linearGradient><linearGradient id="c" x1="0.025" y1="0.592" x2="0.885" y2="0.426" gradientUnits="objectBoundingBox"><stop offset="0" stop-color="#faa923"/><stop offset="1" stop-color="#facb23"/></linearGradient><linearGradient id="d" x1="-0.912" y1="1.184" x2="4.605" y2="-1.489" gradientUnits="objectBoundingBox"><stop offset="0" stop-color="#ff6d00"/><stop offset="1" stop-color="#ff00f4"/></linearGradient><linearGradient id="e" x1="-0.739" y1="1.228" x2="3.497" y2="-1.543" xlink:href="#d"/><linearGradient id="f" x1="0.177" y1="0.854" x2="0.865" y2="0.1" gradientUnits="objectBoundingBox"><stop offset="0"/><stop offset="1" stop-color="#fff"/></linearGradient><linearGradient id="g" x1="-72.809" y1="-30.383" x2="-72.121" y2="-31.136" xlink:href="#f"/></defs><g transform="translate(-7635.74 -1126.128)"><path class="a" d="M7881.182,1126.128H7675.609c-7.961,0-14.437,3.958-14.437,8.823v74.513c0,4.865,6.476,8.823,14.437,8.823h205.573c7.961,0,14.435-3.958,14.435-8.823v-74.513C7895.617,1130.087,7889.143,1126.128,7881.182,1126.128Z" transform="translate(19.567 92.841)"/><path class="b" d="M7916.424,1126.128h-238.5a16.771,16.771,0,0,0-16.75,16.754v141.492a16.771,16.771,0,0,0,16.75,16.754h238.5a16.77,16.77,0,0,0,16.748-16.754V1142.882A16.77,16.77,0,0,0,7916.424,1126.128Z" transform="translate(0 0)"/><g transform="translate(7689.589 1180.447)"><g class="c" transform="translate(2.689 42.562)"><path d="M7904.414,1887.191h-.231a.377.377,0,0,1-.363-.182.776.776,0,0,1-.1-.38v-11.071l-1.586,1.157a2.4,2.4,0,0,0-.265.083.746.746,0,0,1-.264.05.237.237,0,0,1-.183-.1.827.827,0,0,1-.082-.463v-.132a.882.882,0,0,1,.33-.727l2.115-1.454a.875.875,0,0,1,.429-.132h.2a.355.355,0,0,1,.313.182.7.7,0,0,1,.116.38v12.227a.7.7,0,0,1-.116.38A.354.354,0,0,1,7904.414,1887.191Z" transform="translate(-7901.341 -1873.84)"/><g transform="translate(7.928)"><path d="M7969.127,1887.191h-5.946q-.529,0-.528-.562v-1.652a3.592,3.592,0,0,1,.313-1.553,3.391,3.391,0,0,1,.909-1.157l3.6-2.908a1.988,1.988,0,0,0,.825-1.718v-.793q0-1.652-1.486-1.653h-1.52q-1.455,0-1.454,1.653v.892a.739.739,0,0,1-.132.446.458.458,0,0,1-.4.182h-.264a.415.415,0,0,1-.38-.182.805.805,0,0,1-.115-.446v-.892a3.058,3.058,0,0,1,.759-2.231,2.651,2.651,0,0,1,1.982-.777h1.52a2.64,2.64,0,0,1,2,.777,3.1,3.1,0,0,1,.743,2.231v.826a3.394,3.394,0,0,1-1.256,2.776l-3.634,2.941a1.848,1.848,0,0,0-.76,1.52v.925h5.22c.33,0,.5.187.5.562v.231C7969.624,1887,7969.458,1887.191,7969.127,1887.191Z" transform="translate(-7962.554 -1873.84)"/></g><g transform="translate(19.16)"><path d="M8053.6,1887.191h-1.554a2.691,2.691,0,0,1-2.015-.776,3.057,3.057,0,0,1-.76-2.231v-.958a.78.78,0,0,1,.115-.4.406.406,0,0,1,.38-.2h.3a.408.408,0,0,1,.381.2.78.78,0,0,1,.115.4v.958q0,1.653,1.486,1.652h1.554q1.452,0,1.452-1.652V1882.8q0-1.652-1.452-1.652h-1.123c-.354,0-.529-.187-.529-.562v-.231a.467.467,0,0,1,.529-.529h1.123q1.452,0,1.452-1.686v-1.289q0-1.652-1.452-1.653h-1.554q-1.487,0-1.486,1.653v.727a.732.732,0,0,1-.115.43.432.432,0,0,1-.381.165h-.3a.431.431,0,0,1-.38-.165.732.732,0,0,1-.115-.43v-.727a3.059,3.059,0,0,1,.76-2.231,2.692,2.692,0,0,1,2.015-.777h1.554a2.637,2.637,0,0,1,2,.777,3.1,3.1,0,0,1,.743,2.231v1.289a3.272,3.272,0,0,0,0,4.627v1.421a3.1,3.1,0,0,1-.743,2.231A2.636,2.636,0,0,1,8053.6,1887.191Z" transform="translate(-8049.269 -1873.84)"/></g><g transform="translate(30.227)"><path d="M8142.739,1884.547h-1.023v2.082a.68.68,0,0,1-.115.4.43.43,0,0,1-.38.165h-.265a.469.469,0,0,1-.413-.165.673.673,0,0,1-.115-.4v-2.082h-5.153a.668.668,0,0,1-.4-.116.511.511,0,0,1-.165-.446v-.231a1.03,1.03,0,0,1,.065-.264l.066-.132a.1.1,0,0,0,.033-.066.1.1,0,0,1,.033-.066l5.087-8.989a.752.752,0,0,1,.693-.4h.529a.432.432,0,0,1,.38.165.681.681,0,0,1,.115.4v8.824h1.023a.62.62,0,0,1,.4.132.48.48,0,0,1,.165.4v.231a.514.514,0,0,1-.165.446A.675.675,0,0,1,8142.739,1884.547Zm-2.312-8.46-4.03,7.138h4.03Z" transform="translate(-8134.713 -1873.84)"/></g><g transform="translate(51.965)"><path d="M8306.711,1887.191h-1.387a2.57,2.57,0,0,1-2.032-.843,3.246,3.246,0,0,1-.743-2.231v-.76a.734.734,0,0,1,.115-.43.432.432,0,0,1,.38-.165h.265a.476.476,0,0,1,.4.165.664.664,0,0,1,.133.43v.727q0,1.752,1.487,1.752h1.387q1.488,0,1.487-1.752v-2.446a1.872,1.872,0,0,0-.364-1.289,1.452,1.452,0,0,0-1.123-.4h-1.718a1.359,1.359,0,0,0-.61.1.715.715,0,0,0-.281.265,1.718,1.718,0,0,0-.265.429.535.535,0,0,1-.463.231h-.33a.416.416,0,0,1-.38-.182.7.7,0,0,1-.115-.38V1874.4a.7.7,0,0,1,.115-.38.417.417,0,0,1,.38-.182h5.715q.529,0,.529.562v.2q0,.595-.529.595h-4.922v3.7a2.348,2.348,0,0,1,.562-.231,2.469,2.469,0,0,1,.595-.066h1.718a2.692,2.692,0,0,1,2.015.777,3.107,3.107,0,0,1,.761,2.264v2.479a3.2,3.2,0,0,1-.761,2.231A2.581,2.581,0,0,1,8306.711,1887.191Z" transform="translate(-8302.549 -1873.84)"/></g><g transform="translate(62.932)"><path d="M8391.618,1887.191H8390a2.583,2.583,0,0,1-2.016-.843,3.2,3.2,0,0,1-.76-2.231v-7.237a3.142,3.142,0,0,1,.76-2.214,2.609,2.609,0,0,1,2.016-.826h3.336a.617.617,0,0,1,.4.132.518.518,0,0,1,.166.43v.2a.58.58,0,0,1-.166.43.539.539,0,0,1-.4.165H8390q-1.487,0-1.486,1.719V1879h3.1a2.612,2.612,0,0,1,2.065.843,3.251,3.251,0,0,1,.743,2.231v2.049a3.251,3.251,0,0,1-.743,2.231A2.612,2.612,0,0,1,8391.618,1887.191Zm1.521-5.089q0-1.718-1.521-1.719h-3.1v3.7q0,1.752,1.486,1.752h1.618q1.519,0,1.521-1.752Z" transform="translate(-8387.225 -1873.84)"/></g><g transform="translate(73.371)"><path d="M8474.361,1875l-3.9,11.7a.7.7,0,0,1-.265.4.639.639,0,0,1-.331.1h-.2c-.22,0-.358-.054-.413-.165a.741.741,0,0,1-.049-.43v-.231l3.766-11.17h-4.626c-.353,0-.527-.2-.527-.595v-.2c0-.374.175-.562.527-.562h5.551a.619.619,0,0,1,.4.132.521.521,0,0,1,.165.43v.165A.723.723,0,0,1,8474.361,1875Z" transform="translate(-8467.821 -1873.84)"/></g><g transform="translate(83.116)"><path d="M8547.784,1887.191h-1.916a2.778,2.778,0,0,1-2.031-.76,3.006,3.006,0,0,1-.776-2.247v-1.421a3.081,3.081,0,0,1,.958-2.313,2.948,2.948,0,0,1-.958-2.313v-1.289a3.006,3.006,0,0,1,.776-2.247,2.78,2.78,0,0,1,2.031-.76h1.916a2.694,2.694,0,0,1,2.016.777,3.063,3.063,0,0,1,.76,2.231v1.289a2.942,2.942,0,0,1-.926,2.313,3.142,3.142,0,0,1,.926,2.313v1.421a3.061,3.061,0,0,1-.76,2.231A2.693,2.693,0,0,1,8547.784,1887.191Zm1.486-10.344q0-1.652-1.486-1.653h-1.916q-1.487,0-1.486,1.653v1.289q0,1.685,1.486,1.686h1.916q1.487,0,1.486-1.686Zm0,5.948q0-1.652-1.486-1.652h-1.916q-1.487,0-1.486,1.652v1.388q0,1.653,1.486,1.652h1.916q1.487,0,1.486-1.652Z" transform="translate(-8543.061 -1873.84)"/></g><g transform="translate(103.996)"><path d="M8708.692,1887.191h-3.336a.592.592,0,0,1-.347-.132.5.5,0,0,1-.182-.43v-.231a.5.5,0,0,1,.182-.413.554.554,0,0,1,.347-.149h3.336q1.487,0,1.487-1.752v-2.049h-3.139a2.583,2.583,0,0,1-2.016-.843,3.2,3.2,0,0,1-.76-2.231v-2.082a3.142,3.142,0,0,1,.76-2.214,2.609,2.609,0,0,1,2.016-.826h1.651a2.662,2.662,0,0,1,2.032.826,3.1,3.1,0,0,1,.776,2.214v7.237a3.162,3.162,0,0,1-.776,2.231A2.636,2.636,0,0,1,8708.692,1887.191Zm1.487-10.278q0-1.718-1.487-1.719h-1.651q-1.487,0-1.486,1.719v2.016q0,1.719,1.486,1.719h3.139Z" transform="translate(-8704.266 -1873.84)"/></g><g transform="translate(115.261)"><path d="M8795.83,1887.191h-1.784a2.632,2.632,0,0,1-2.031-.843,3.162,3.162,0,0,1-.776-2.231v-7.237a3.1,3.1,0,0,1,.776-2.214,2.659,2.659,0,0,1,2.031-.826h1.784a2.635,2.635,0,0,1,2.064.826,3.184,3.184,0,0,1,.743,2.214v7.237a3.246,3.246,0,0,1-.743,2.231A2.608,2.608,0,0,1,8795.83,1887.191Zm1.52-10.278q0-1.718-1.52-1.719h-1.784q-1.487,0-1.486,1.719v7.171q0,1.752,1.486,1.752h1.784q1.519,0,1.52-1.752Z" transform="translate(-8791.238 -1873.84)"/></g><g transform="translate(126.724)"><path d="M8882.815,1887.191h-.23a.377.377,0,0,1-.363-.182.778.778,0,0,1-.1-.38v-11.071l-1.585,1.157a2.4,2.4,0,0,0-.265.083.75.75,0,0,1-.264.05.235.235,0,0,1-.183-.1.818.818,0,0,1-.082-.463v-.132a.881.881,0,0,1,.329-.727l2.114-1.454a.884.884,0,0,1,.43-.132h.2a.358.358,0,0,1,.314.182.7.7,0,0,1,.116.38v12.227a.7.7,0,0,1-.116.38A.356.356,0,0,1,8882.815,1887.191Z" transform="translate(-8879.744 -1873.84)"/></g><g transform="translate(134.652)"><path d="M8947.526,1887.191h-5.945c-.354,0-.529-.187-.529-.562v-1.652a3.577,3.577,0,0,1,.313-1.553,3.388,3.388,0,0,1,.908-1.157l3.6-2.908a1.987,1.987,0,0,0,.826-1.718v-.793q0-1.652-1.486-1.653h-1.52q-1.456,0-1.454,1.653v.892a.733.733,0,0,1-.133.446.457.457,0,0,1-.4.182h-.265a.415.415,0,0,1-.38-.182.813.813,0,0,1-.115-.446v-.892a3.059,3.059,0,0,1,.76-2.231,2.646,2.646,0,0,1,1.982-.777h1.52a2.639,2.639,0,0,1,2,.777,3.1,3.1,0,0,1,.743,2.231v.826a3.4,3.4,0,0,1-1.255,2.776l-3.634,2.941a1.848,1.848,0,0,0-.76,1.52v.925h5.219c.33,0,.5.187.5.562v.231C8948.022,1887,8947.856,1887.191,8947.526,1887.191Z" transform="translate(-8940.953 -1873.84)"/></g><g transform="translate(155.118)"><path d="M9103.295,1887.191h-1.552a2.692,2.692,0,0,1-2.016-.776,3.057,3.057,0,0,1-.76-2.231v-.958a.78.78,0,0,1,.115-.4.405.405,0,0,1,.38-.2h.3a.408.408,0,0,1,.381.2.788.788,0,0,1,.114.4v.958q0,1.653,1.488,1.652h1.552q1.453,0,1.453-1.652V1882.8q0-1.652-1.453-1.652h-1.123q-.529,0-.529-.562v-.231a.468.468,0,0,1,.529-.529h1.123q1.453,0,1.453-1.686v-1.289q0-1.652-1.453-1.653h-1.552q-1.488,0-1.488,1.653v.727a.739.739,0,0,1-.114.43.432.432,0,0,1-.381.165h-.3a.429.429,0,0,1-.38-.165.732.732,0,0,1-.115-.43v-.727a3.059,3.059,0,0,1,.76-2.231,2.693,2.693,0,0,1,2.016-.777h1.552a2.64,2.64,0,0,1,2,.777,3.1,3.1,0,0,1,.743,2.231v1.289a3.272,3.272,0,0,0,0,4.627v1.421a3.1,3.1,0,0,1-.743,2.231A2.639,2.639,0,0,1,9103.295,1887.191Z" transform="translate(-9098.968 -1873.84)"/></g><g transform="translate(166.185)"><path d="M9192.438,1884.547h-1.023v2.082a.68.68,0,0,1-.115.4.432.432,0,0,1-.381.165h-.264a.47.47,0,0,1-.413-.165.673.673,0,0,1-.115-.4v-2.082h-5.153a.67.67,0,0,1-.4-.116.511.511,0,0,1-.166-.446v-.231a1.1,1.1,0,0,1,.066-.264l.066-.132a.1.1,0,0,0,.033-.066.1.1,0,0,1,.033-.066l5.087-8.989a.752.752,0,0,1,.693-.4h.528a.434.434,0,0,1,.381.165.681.681,0,0,1,.115.4v8.824h1.023a.62.62,0,0,1,.4.132.48.48,0,0,1,.165.4v.231a.514.514,0,0,1-.165.446A.675.675,0,0,1,9192.438,1884.547Zm-2.312-8.46-4.03,7.138h4.03Z" transform="translate(-9184.411 -1873.84)"/></g><g transform="translate(178.507)"><path d="M9283.705,1887.191h-1.386a2.569,2.569,0,0,1-2.032-.843,3.246,3.246,0,0,1-.743-2.231v-.76a.734.734,0,0,1,.115-.43.431.431,0,0,1,.38-.165h.265a.476.476,0,0,1,.4.165.664.664,0,0,1,.133.43v.727q0,1.752,1.487,1.752h1.386q1.488,0,1.488-1.752v-2.446a1.882,1.882,0,0,0-.363-1.289,1.458,1.458,0,0,0-1.125-.4h-1.717a1.359,1.359,0,0,0-.61.1.721.721,0,0,0-.281.265,1.718,1.718,0,0,0-.265.429.536.536,0,0,1-.463.231h-.33a.415.415,0,0,1-.38-.182.7.7,0,0,1-.115-.38V1874.4a.7.7,0,0,1,.115-.38.416.416,0,0,1,.38-.182h5.715c.352,0,.529.188.529.562v.2c0,.4-.178.595-.529.595h-4.922v3.7a2.348,2.348,0,0,1,.562-.231,2.463,2.463,0,0,1,.595-.066h1.717a2.693,2.693,0,0,1,2.016.777,3.107,3.107,0,0,1,.76,2.264v2.479a3.2,3.2,0,0,1-.76,2.231A2.582,2.582,0,0,1,9283.705,1887.191Z" transform="translate(-9279.544 -1873.84)"/></g><g transform="translate(189.474)"><path d="M9368.613,1887.191h-1.619a2.581,2.581,0,0,1-2.015-.843,3.2,3.2,0,0,1-.76-2.231v-7.237a3.142,3.142,0,0,1,.76-2.214,2.607,2.607,0,0,1,2.015-.826h3.337a.617.617,0,0,1,.4.132.518.518,0,0,1,.166.43v.2a.58.58,0,0,1-.166.43.539.539,0,0,1-.4.165h-3.337q-1.485,0-1.485,1.719V1879h3.1a2.608,2.608,0,0,1,2.064.843,3.247,3.247,0,0,1,.744,2.231v2.049a3.247,3.247,0,0,1-.744,2.231A2.608,2.608,0,0,1,9368.613,1887.191Zm1.52-5.089q0-1.718-1.52-1.719h-3.1v3.7q0,1.752,1.485,1.752h1.619q1.519,0,1.52-1.752Z" transform="translate(-9364.22 -1873.84)"/></g></g><g transform="translate(0 0)"><path class="d" d="M7916.3,1551.052v17.31a5.7,5.7,0,0,1-5.7,5.7h-24.325a5.7,5.7,0,0,1-5.7-5.7v-17.31a5.7,5.7,0,0,1,5.7-5.7H7910.6A5.7,5.7,0,0,1,7916.3,1551.052Z" transform="translate(-7880.579 -1545.352)"/><path class="e" d="M7910.6,1545.352h-24.325a5.7,5.7,0,0,0-5.7,5.7v17.31a5.7,5.7,0,0,0,5.7,5.7H7910.6a5.7,5.7,0,0,0,5.7-5.7v-17.31A5.7,5.7,0,0,0,7910.6,1545.352Zm-29.408,5.7a5.091,5.091,0,0,1,5.083-5.087h7.146l-.419.36a8.259,8.259,0,0,0-2.631,8.3l.063.255h-9.242Zm0,4.392h9.424l.052.131a8.3,8.3,0,0,0,.915,1.753,4.63,4.63,0,0,1,0,5.023c-.078.117-.153.223-.227.325a5.323,5.323,0,0,0-.692,1.169l-.06.127h-9.412Zm5.083,18a5.09,5.09,0,0,1-5.083-5.087v-3.83h9.242l-.062.253a8.259,8.259,0,0,0,2.633,8.305l.417.358Zm29.41-5.087a5.09,5.09,0,0,1-5.085,5.087h-7.144l.416-.358a8.3,8.3,0,0,0,2.885-6.294,8.4,8.4,0,0,0-.249-2.011l-.063-.253h9.24Zm0-4.39h-9.418l-.053-.127a5.326,5.326,0,0,0-.693-1.169c-.071-.1-.148-.208-.227-.325a4.634,4.634,0,0,1,0-5.023,8.4,8.4,0,0,0,.918-1.753l.057-.131h9.416Zm0-9.088h-9.822l-.022.072c-.039.119-.078.235-.121.349l-.075.2a5.11,5.11,0,0,1-.564,1.169,5.155,5.155,0,0,0,0,6.325,4.519,4.519,0,0,1,.64,1.11c.041.108.08.221.121.347a7.8,7.8,0,0,1,.359,2.336,7.713,7.713,0,0,1-3.721,6.624l-.049.029h-7.983l-.049-.029a7.755,7.755,0,0,1-3.36-8.959c.038-.119.077-.235.12-.352a4.714,4.714,0,0,1,.64-1.106,5.153,5.153,0,0,0,0-6.325,5.107,5.107,0,0,1-.563-1.169l-.076-.2c-.043-.115-.082-.231-.12-.349a7.757,7.757,0,0,1,3.358-8.96l.049-.031H7910.6a5.092,5.092,0,0,1,5.085,5.087Z" transform="translate(-7880.579 -1545.352)"/></g><g class="c" transform="translate(125.494 71.925)"><g transform="translate(0 0.676)"><path d="M8851.578,2114.784h-.158a.257.257,0,0,1-.248-.124.537.537,0,0,1-.068-.259v-7.549l-1.08.789a1.59,1.59,0,0,0-.181.056.513.513,0,0,1-.18.034.159.159,0,0,1-.124-.068.564.564,0,0,1-.057-.315v-.09a.6.6,0,0,1,.226-.5l1.441-.992a.6.6,0,0,1,.292-.09h.137a.243.243,0,0,1,.213.124.474.474,0,0,1,.079.259v8.338a.475.475,0,0,1-.079.259A.242.242,0,0,1,8851.578,2114.784Z" transform="translate(-8849.482 -2105.68)"/></g><g transform="translate(4.73 0.676)"><path d="M8890.486,2114.784h-4.054q-.36,0-.36-.383v-1.127a2.463,2.463,0,0,1,.213-1.059,2.306,2.306,0,0,1,.62-.789l2.455-1.983a1.357,1.357,0,0,0,.563-1.172v-.541q0-1.126-1.014-1.127h-1.036q-.992,0-.991,1.127v.608a.506.506,0,0,1-.091.3.31.31,0,0,1-.27.124h-.181a.283.283,0,0,1-.259-.124.545.545,0,0,1-.079-.3v-.608a2.081,2.081,0,0,1,.519-1.521,1.807,1.807,0,0,1,1.352-.53h1.036a1.8,1.8,0,0,1,1.363.53,2.114,2.114,0,0,1,.507,1.521v.563a2.316,2.316,0,0,1-.856,1.893l-2.478,2.005a1.261,1.261,0,0,0-.519,1.037v.631h3.559q.338,0,.338.383v.157Q8890.824,2114.785,8890.486,2114.784Z" transform="translate(-8886.004 -2105.68)"/></g><g transform="translate(11.533)"><path d="M8942.334,2101.048l-2.861,9.487c0,.03-.045.1-.135.2a.289.289,0,0,1-.27.113h-.158a.387.387,0,0,1-.338-.157.52.52,0,0,1,0-.428l2.883-9.442.113-.27a.365.365,0,0,1,.27-.09h.182a.279.279,0,0,1,.27.124.58.58,0,0,1,.068.282A.452.452,0,0,1,8942.334,2101.048Z" transform="translate(-8938.527 -2100.462)"/></g><g transform="translate(17.638 0.676)"><path d="M8990.143,2114.784h-4.055q-.362,0-.361-.383v-1.127a2.434,2.434,0,0,1,.215-1.059,2.28,2.28,0,0,1,.619-.789l2.455-1.983a1.357,1.357,0,0,0,.563-1.172v-.541q0-1.126-1.014-1.127h-1.037q-.992,0-.99,1.127v.608a.512.512,0,0,1-.09.3.315.315,0,0,1-.271.124H8986a.281.281,0,0,1-.259-.124.545.545,0,0,1-.079-.3v-.608a2.089,2.089,0,0,1,.518-1.521,1.809,1.809,0,0,1,1.352-.53h1.037a1.8,1.8,0,0,1,1.363.53,2.119,2.119,0,0,1,.507,1.521v.563a2.316,2.316,0,0,1-.856,1.893l-2.478,2.005a1.258,1.258,0,0,0-.519,1.037v.631h3.56c.225,0,.338.128.338.383v.157C8990.48,2114.657,8990.367,2114.784,8990.143,2114.784Z" transform="translate(-8985.659 -2105.68)"/></g><g transform="translate(24.351 0.676)"><path d="M9042.961,2112.981h-.7v1.42a.464.464,0,0,1-.078.271.3.3,0,0,1-.26.113h-.181a.32.32,0,0,1-.281-.113.458.458,0,0,1-.079-.271v-1.42h-3.514a.459.459,0,0,1-.271-.079.347.347,0,0,1-.112-.3v-.158a.753.753,0,0,1,.044-.18l.046-.09a.065.065,0,0,0,.022-.045.063.063,0,0,1,.022-.045l3.469-6.13a.515.515,0,0,1,.474-.27h.36a.3.3,0,0,1,.26.113.466.466,0,0,1,.078.271v6.017h.7a.421.421,0,0,1,.271.09.328.328,0,0,1,.112.271v.158a.35.35,0,0,1-.112.3A.457.457,0,0,1,9042.961,2112.981Zm-1.577-5.769-2.748,4.868h2.748Z" transform="translate(-9037.487 -2105.68)"/></g></g><g class="c" transform="translate(3.176 92.387)"><path d="M7907.894,2265.573h-1.263a1.456,1.456,0,0,1-1.13-.436,1.765,1.765,0,0,1-.4-1.237v-3.844a1.761,1.761,0,0,1,.409-1.21,1.42,1.42,0,0,1,1.121-.463h1.263a1.393,1.393,0,0,1,1.112.463,1.786,1.786,0,0,1,.4,1.21v.48a.548.548,0,0,1-.063.249.242.242,0,0,1-.24.125h-.124a.267.267,0,0,1-.249-.115.48.48,0,0,1-.071-.258v-.48q0-.89-.766-.89h-1.263q-.766,0-.766.89v3.827q0,.908.766.908h1.263q.765,0,.766-.908v-.481c0-.225.107-.338.32-.338h.124a.25.25,0,0,1,.231.115.425.425,0,0,1,.072.222v.5a1.8,1.8,0,0,1-.392,1.237A1.43,1.43,0,0,1,7907.894,2265.573Z" transform="translate(-7905.101 -2258.383)"/><g transform="translate(5.984)"><path d="M7956.044,2265.573h-.16a.248.248,0,0,1-.214-.1.759.759,0,0,1-.106-.2l-.516-1.584h-2.455l-.552,1.62a.479.479,0,0,1-.116.187.275.275,0,0,1-.2.08h-.125a.254.254,0,0,1-.249-.142.356.356,0,0,1-.035-.267l2.063-6.5a.238.238,0,0,0,.054-.089.216.216,0,0,1,.054-.089.238.238,0,0,1,.213-.107h.231a.339.339,0,0,1,.338.267l2.064,6.515a.371.371,0,0,1-.036.267A.254.254,0,0,1,7956.044,2265.573Zm-2.242-5.873q-.231.854-.5,1.727t-.428,1.424h1.886Z" transform="translate(-7951.3 -2258.383)"/></g><g transform="translate(12.756)"><path d="M8007.451,2265.573h-.2a.309.309,0,0,1-.3-.2l-1.121-2.616h-1.459v2.492a.292.292,0,0,1-.1.24.368.368,0,0,1-.24.08h-.106a.463.463,0,0,1-.222-.062.264.264,0,0,1-.116-.258v-6.55a.293.293,0,0,1,.1-.24.368.368,0,0,1,.24-.08h2.135a1.458,1.458,0,0,1,1.13.436,1.766,1.766,0,0,1,.4,1.237v1.015a1.83,1.83,0,0,1-.24.988,1.657,1.657,0,0,1-.756.614l1.085,2.457c.012.036.023.077.036.125a.292.292,0,0,1,0,.142.246.246,0,0,1-.08.125A.285.285,0,0,1,8007.451,2265.573Zm-.6-5.517q0-.908-.783-.908h-1.69v2.812h1.69q.784,0,.783-.89Z" transform="translate(-8003.59 -2258.383)"/></g><g transform="translate(18.983)"><path d="M8054.353,2265.573h-2.384a.284.284,0,0,1-.223-.089.331.331,0,0,1-.08-.231v-6.532c0-.225.1-.338.3-.338h2.384a1.393,1.393,0,0,1,1.112.463,1.786,1.786,0,0,1,.4,1.21v3.844a1.79,1.79,0,0,1-.392,1.237A1.428,1.428,0,0,1,8054.353,2265.573Zm.766-5.517q0-.89-.766-.89h-1.921v5.624h1.921q.765,0,.766-.908Z" transform="translate(-8051.666 -2258.383)"/></g><g transform="translate(25.477)"><path d="M8105.7,2265.573h-.124a.306.306,0,0,1-.32-.32V2262.3h-2.669v2.955a.373.373,0,0,1-.08.2.271.271,0,0,1-.239.115h-.143a.306.306,0,0,1-.24-.089.331.331,0,0,1-.08-.231v-6.532a.365.365,0,0,1,.08-.24.291.291,0,0,1,.24-.1h.143a.265.265,0,0,1,.257.115.466.466,0,0,1,.063.223v2.794h2.669v-2.794a.4.4,0,0,1,.071-.24.287.287,0,0,1,.249-.1h.124a.25.25,0,0,1,.241.115.478.478,0,0,1,.063.223v6.532a.388.388,0,0,1-.071.213A.259.259,0,0,1,8105.7,2265.573Z" transform="translate(-8101.805 -2258.383)"/></g><g transform="translate(31.9)"><path d="M8154.117,2265.573h-1.21a1.431,1.431,0,0,1-1.111-.436,1.76,1.76,0,0,1-.4-1.237v-3.844a1.781,1.781,0,0,1,.4-1.21,1.391,1.391,0,0,1,1.111-.463h1.21a1.421,1.421,0,0,1,1.121.463,1.761,1.761,0,0,1,.409,1.21v3.844a1.765,1.765,0,0,1-.4,1.237A1.456,1.456,0,0,1,8154.117,2265.573Zm.766-5.517q0-.89-.766-.89h-1.21q-.765,0-.765.89v3.827q0,.908.765.908h1.21q.765,0,.766-.908Z" transform="translate(-8151.394 -2258.383)"/></g><g transform="translate(38.216)"><path d="M8203.451,2265.573h-2.972a.306.306,0,0,1-.32-.32v-6.532a.376.376,0,0,1,.08-.231.282.282,0,0,1,.24-.107h.125a.258.258,0,0,1,.257.125.481.481,0,0,1,.063.214v6.052h2.526a.241.241,0,0,1,.214.106.4.4,0,0,1,.07.214v.16a.335.335,0,0,1-.079.231A.266.266,0,0,1,8203.451,2265.573Z" transform="translate(-8200.159 -2258.383)"/></g><g transform="translate(43.785)"><path d="M8245.84,2265.573h-2.383a.286.286,0,0,1-.224-.089.335.335,0,0,1-.079-.231v-6.532q0-.338.3-.338h2.383a1.393,1.393,0,0,1,1.112.463,1.786,1.786,0,0,1,.4,1.21v3.844a1.79,1.79,0,0,1-.392,1.237A1.428,1.428,0,0,1,8245.84,2265.573Zm.766-5.517q0-.89-.766-.89h-1.921v5.624h1.921q.765,0,.766-.908Z" transform="translate(-8243.154 -2258.383)"/></g><g transform="translate(50.35)"><path d="M8296.99,2265.573h-2.848a.282.282,0,0,1-.222-.089.331.331,0,0,1-.08-.231v-6.532a.4.4,0,0,1,.071-.24.265.265,0,0,1,.23-.1h2.848a.282.282,0,0,1,.222.089.332.332,0,0,1,.08.231v.142a.281.281,0,0,1-.106.24.339.339,0,0,1-.2.08h-2.421v2.349h2.189a.333.333,0,0,1,.2.08.3.3,0,0,1,.107.258v.125a.331.331,0,0,1-.081.231.282.282,0,0,1-.222.089h-2.189v2.492h2.421a.283.283,0,0,1,.222.089.333.333,0,0,1,.08.232v.143a.281.281,0,0,1-.106.24A.338.338,0,0,1,8296.99,2265.573Z" transform="translate(-8293.841 -2258.383)"/></g><g transform="translate(55.883)"><path d="M8340.424,2265.573h-.2a.31.31,0,0,1-.3-.2l-1.121-2.616h-1.458v2.492a.293.293,0,0,1-.1.24.368.368,0,0,1-.239.08h-.107a.469.469,0,0,1-.223-.062.266.266,0,0,1-.115-.258v-6.55a.293.293,0,0,1,.1-.24.368.368,0,0,1,.24-.08h2.136a1.457,1.457,0,0,1,1.129.436,1.766,1.766,0,0,1,.4,1.237v1.015a1.83,1.83,0,0,1-.24.988,1.657,1.657,0,0,1-.756.614l1.085,2.457c.012.036.024.077.036.125a.292.292,0,0,1,0,.142.246.246,0,0,1-.08.125A.286.286,0,0,1,8340.424,2265.573Zm-.605-5.517q0-.908-.782-.908h-1.69v2.812h1.69q.782,0,.782-.89Z" transform="translate(-8336.563 -2258.383)"/></g><g transform="translate(65.936)"><path d="M8418.191,2265.573h-.106a.37.37,0,0,1-.32-.2l-2.811-5.179v5.055a.376.376,0,0,1-.081.2.27.27,0,0,1-.239.115h-.125a.3.3,0,0,1-.338-.32v-6.532a.365.365,0,0,1,.08-.24.314.314,0,0,1,.258-.1h.125a.254.254,0,0,1,.187.063c.041.042.063.074.063.1l2.864,5.179v-5a.466.466,0,0,1,.063-.223.248.248,0,0,1,.239-.115h.143a.247.247,0,0,1,.24.115.466.466,0,0,1,.063.223v6.532a.38.38,0,0,1-.071.213A.258.258,0,0,1,8418.191,2265.573Z" transform="translate(-8414.171 -2258.383)"/></g><g transform="translate(72.044)"><path d="M8466.077,2265.573h-.16a.246.246,0,0,1-.214-.1.762.762,0,0,1-.107-.2l-.515-1.584h-2.456l-.552,1.62a.489.489,0,0,1-.115.187.279.279,0,0,1-.205.08h-.124a.253.253,0,0,1-.249-.142.361.361,0,0,1-.036-.267l2.064-6.5a.224.224,0,0,0,.053-.089.227.227,0,0,1,.054-.089.241.241,0,0,1,.214-.107h.231a.339.339,0,0,1,.338.267l2.063,6.515a.36.36,0,0,1-.035.267A.255.255,0,0,1,8466.077,2265.573Zm-2.242-5.873q-.231.854-.5,1.727t-.427,1.424h1.886Z" transform="translate(-8461.332 -2258.383)"/></g><g transform="translate(78.87)"><path d="M8519.286,2265.573h-.143a.283.283,0,0,1-.32-.32V2260.3l-1.565,3.6a.348.348,0,0,1-.355.214h-.161a.315.315,0,0,1-.338-.214l-1.583-3.631v4.984a.388.388,0,0,1-.071.213.259.259,0,0,1-.231.107h-.143c-.225,0-.338-.107-.338-.32v-6.532a.371.371,0,0,1,.08-.24.315.315,0,0,1,.258-.1h.267a.261.261,0,0,1,.285.2l1.9,4.343,1.867-4.343a.29.29,0,0,1,.3-.2h.284a.249.249,0,0,1,.24.115.476.476,0,0,1,.062.223v6.532a.38.38,0,0,1-.071.213A.256.256,0,0,1,8519.286,2265.573Z" transform="translate(-8514.037 -2258.383)"/></g><g transform="translate(86.716)"><path d="M8577.764,2265.573h-2.848a.282.282,0,0,1-.222-.089.331.331,0,0,1-.08-.231v-6.532a.4.4,0,0,1,.071-.24.265.265,0,0,1,.23-.1h2.848a.282.282,0,0,1,.222.089.332.332,0,0,1,.08.231v.142a.281.281,0,0,1-.106.24.339.339,0,0,1-.2.08h-2.42v2.349h2.188a.333.333,0,0,1,.2.08.3.3,0,0,1,.107.258v.125a.327.327,0,0,1-.081.231.282.282,0,0,1-.222.089h-2.188v2.492h2.42a.283.283,0,0,1,.222.089.333.333,0,0,1,.08.232v.143a.281.281,0,0,1-.106.24A.338.338,0,0,1,8577.764,2265.573Z" transform="translate(-8574.614 -2258.383)"/></g></g><g transform="translate(1.872 41.949)"><path class="f" d="M7898.105,1882.459h-.232a.375.375,0,0,1-.362-.182.779.779,0,0,1-.1-.38v-11.071l-1.586,1.157a2.484,2.484,0,0,0-.264.083.75.75,0,0,1-.265.05.237.237,0,0,1-.182-.1.82.82,0,0,1-.082-.463v-.132a.879.879,0,0,1,.33-.727l2.114-1.454a.876.876,0,0,1,.43-.132h.2a.357.357,0,0,1,.313.182.706.706,0,0,1,.115.38V1881.9a.7.7,0,0,1-.115.38A.356.356,0,0,1,7898.105,1882.459Z" transform="translate(-7895.033 -1869.108)"/><g transform="translate(7.928)"><path class="f" d="M7962.818,1882.459h-5.946q-.529,0-.528-.562v-1.652a3.579,3.579,0,0,1,.313-1.553,3.39,3.39,0,0,1,.908-1.157l3.6-2.908a1.988,1.988,0,0,0,.825-1.718v-.793q0-1.652-1.487-1.652h-1.519q-1.455,0-1.454,1.652v.892a.738.738,0,0,1-.132.446.457.457,0,0,1-.4.182h-.264a.414.414,0,0,1-.38-.182.8.8,0,0,1-.115-.446v-.892a3.058,3.058,0,0,1,.759-2.231,2.651,2.651,0,0,1,1.982-.777h1.519a2.64,2.64,0,0,1,2,.777,3.1,3.1,0,0,1,.743,2.231v.826a3.394,3.394,0,0,1-1.256,2.776l-3.634,2.941a1.848,1.848,0,0,0-.76,1.52v.925h5.22q.5,0,.5.562v.232Q7963.313,1882.46,7962.818,1882.459Z" transform="translate(-7956.245 -1869.108)"/></g><g transform="translate(19.16)"><path class="f" d="M8047.287,1882.459h-1.553a2.691,2.691,0,0,1-2.015-.777,3.057,3.057,0,0,1-.76-2.231v-.958a.78.78,0,0,1,.115-.4.406.406,0,0,1,.38-.2h.3a.408.408,0,0,1,.381.2.78.78,0,0,1,.115.4v.958q0,1.653,1.486,1.652h1.553q1.453,0,1.453-1.652v-1.388q0-1.652-1.453-1.652h-1.123q-.529,0-.528-.562v-.231a.467.467,0,0,1,.528-.529h1.123q1.453,0,1.453-1.685v-1.289q0-1.652-1.453-1.652h-1.553q-1.487,0-1.486,1.652v.727a.732.732,0,0,1-.115.429.432.432,0,0,1-.381.165h-.3a.43.43,0,0,1-.38-.165.732.732,0,0,1-.115-.429v-.727a3.058,3.058,0,0,1,.76-2.231,2.692,2.692,0,0,1,2.015-.777h1.553a2.638,2.638,0,0,1,2,.777,3.1,3.1,0,0,1,.743,2.231v1.289a3.272,3.272,0,0,0,0,4.627v1.421a3.1,3.1,0,0,1-.743,2.231A2.637,2.637,0,0,1,8047.287,1882.459Z" transform="translate(-8042.96 -1869.108)"/></g><g transform="translate(30.227)"><path class="f" d="M8136.43,1879.816h-1.023v2.082a.679.679,0,0,1-.115.4.432.432,0,0,1-.38.165h-.265a.469.469,0,0,1-.413-.165.673.673,0,0,1-.116-.4v-2.082h-5.152a.671.671,0,0,1-.4-.116.513.513,0,0,1-.164-.446v-.231a1.031,1.031,0,0,1,.065-.265l.066-.132a.1.1,0,0,0,.032-.066.1.1,0,0,1,.034-.066l5.087-8.989a.752.752,0,0,1,.693-.4h.529a.433.433,0,0,1,.38.165.682.682,0,0,1,.115.4v8.824h1.023a.619.619,0,0,1,.4.132.479.479,0,0,1,.164.4v.231a.513.513,0,0,1-.164.446A.673.673,0,0,1,8136.43,1879.816Zm-2.312-8.46-4.029,7.138h4.029Z" transform="translate(-8128.404 -1869.108)"/></g><g transform="translate(51.965)"><path class="f" d="M8300.4,1882.459h-1.388a2.569,2.569,0,0,1-2.031-.843,3.246,3.246,0,0,1-.744-2.231v-.76a.727.727,0,0,1,.116-.43.428.428,0,0,1,.379-.165H8297a.476.476,0,0,1,.4.165.669.669,0,0,1,.133.43v.727q0,1.752,1.486,1.751h1.388q1.487,0,1.486-1.751v-2.446a1.877,1.877,0,0,0-.363-1.289,1.453,1.453,0,0,0-1.123-.4h-1.718a1.362,1.362,0,0,0-.611.1.72.72,0,0,0-.281.264,1.715,1.715,0,0,0-.264.43.537.537,0,0,1-.463.231h-.331a.413.413,0,0,1-.379-.182.689.689,0,0,1-.116-.38v-6.015a.691.691,0,0,1,.116-.38.415.415,0,0,1,.379-.182h5.716q.529,0,.528.562v.2q0,.595-.528.595h-4.922v3.7a2.356,2.356,0,0,1,.561-.231,2.478,2.478,0,0,1,.6-.066h1.718a2.693,2.693,0,0,1,2.015.777,3.107,3.107,0,0,1,.76,2.264v2.479a3.2,3.2,0,0,1-.76,2.231A2.583,2.583,0,0,1,8300.4,1882.459Z" transform="translate(-8296.239 -1869.108)"/></g><g transform="translate(62.932)"><path class="f" d="M8385.31,1882.459h-1.618a2.581,2.581,0,0,1-2.015-.843,3.2,3.2,0,0,1-.76-2.231v-7.238a3.142,3.142,0,0,1,.76-2.214,2.607,2.607,0,0,1,2.015-.826h3.337a.62.62,0,0,1,.4.132.518.518,0,0,1,.164.43v.2a.579.579,0,0,1-.164.43.541.541,0,0,1-.4.165h-3.337q-1.487,0-1.486,1.718v2.082h3.1a2.608,2.608,0,0,1,2.064.843,3.242,3.242,0,0,1,.744,2.231v2.049a3.241,3.241,0,0,1-.744,2.231A2.609,2.609,0,0,1,8385.31,1882.459Zm1.52-5.089q0-1.718-1.52-1.719h-3.1v3.7q0,1.752,1.486,1.751h1.618q1.519,0,1.52-1.751Z" transform="translate(-8380.917 -1869.108)"/></g><g transform="translate(73.371)"><path class="f" d="M8468.052,1870.265l-3.9,11.7a.7.7,0,0,1-.264.4.637.637,0,0,1-.33.1h-.2c-.22,0-.357-.055-.413-.165a.757.757,0,0,1-.049-.43v-.231l3.766-11.17h-4.625c-.352,0-.528-.2-.528-.595v-.2c0-.374.177-.562.528-.562h5.551a.617.617,0,0,1,.4.132.515.515,0,0,1,.166.43v.165A.723.723,0,0,1,8468.052,1870.265Z" transform="translate(-8461.511 -1869.108)"/></g><g transform="translate(83.116)"><path class="f" d="M8541.475,1882.459h-1.915a2.774,2.774,0,0,1-2.031-.76,3.005,3.005,0,0,1-.777-2.247v-1.421a3.081,3.081,0,0,1,.959-2.313,2.949,2.949,0,0,1-.959-2.313v-1.289a3.006,3.006,0,0,1,.777-2.247,2.777,2.777,0,0,1,2.031-.76h1.915a2.7,2.7,0,0,1,2.016.777,3.062,3.062,0,0,1,.76,2.231v1.289a2.942,2.942,0,0,1-.925,2.313,3.141,3.141,0,0,1,.925,2.313v1.421a3.061,3.061,0,0,1-.76,2.231A2.694,2.694,0,0,1,8541.475,1882.459Zm1.487-10.344q0-1.652-1.487-1.652h-1.915q-1.487,0-1.486,1.652v1.289q0,1.685,1.486,1.685h1.915q1.488,0,1.487-1.685Zm0,5.948q0-1.652-1.487-1.652h-1.915q-1.487,0-1.486,1.652v1.388q0,1.653,1.486,1.652h1.915q1.488,0,1.487-1.652Z" transform="translate(-8536.751 -1869.108)"/></g><g transform="translate(103.996)"><path class="f" d="M8702.384,1882.459h-3.336a.593.593,0,0,1-.347-.132.5.5,0,0,1-.183-.43v-.232a.505.505,0,0,1,.183-.413.556.556,0,0,1,.347-.149h3.336q1.488,0,1.488-1.751V1877.3h-3.139a2.582,2.582,0,0,1-2.016-.843,3.2,3.2,0,0,1-.76-2.231v-2.082a3.142,3.142,0,0,1,.76-2.214,2.608,2.608,0,0,1,2.016-.826h1.65a2.664,2.664,0,0,1,2.033.826,3.1,3.1,0,0,1,.775,2.214v7.238a3.161,3.161,0,0,1-.775,2.231A2.637,2.637,0,0,1,8702.384,1882.459Zm1.488-10.278q0-1.718-1.488-1.718h-1.65q-1.487,0-1.486,1.718v2.016q0,1.719,1.486,1.719h3.139Z" transform="translate(-8697.958 -1869.108)"/></g><g transform="translate(115.261)"><path class="f" d="M8789.521,1882.459h-1.783a2.633,2.633,0,0,1-2.032-.843,3.162,3.162,0,0,1-.776-2.231v-7.238a3.1,3.1,0,0,1,.776-2.214,2.66,2.66,0,0,1,2.032-.826h1.783a2.635,2.635,0,0,1,2.064.826,3.184,3.184,0,0,1,.744,2.214v7.238a3.246,3.246,0,0,1-.744,2.231A2.609,2.609,0,0,1,8789.521,1882.459Zm1.52-10.278q0-1.718-1.52-1.718h-1.783q-1.488,0-1.487,1.718v7.171q0,1.752,1.487,1.751h1.783q1.519,0,1.52-1.751Z" transform="translate(-8784.929 -1869.108)"/></g><g transform="translate(126.724)"><path class="f" d="M8876.507,1882.459h-.231a.375.375,0,0,1-.363-.182.779.779,0,0,1-.1-.38v-11.071l-1.586,1.157a2.5,2.5,0,0,0-.265.083.733.733,0,0,1-.264.05.237.237,0,0,1-.182-.1.826.826,0,0,1-.083-.463v-.132a.883.883,0,0,1,.331-.727l2.114-1.454a.882.882,0,0,1,.429-.132h.2a.358.358,0,0,1,.313.182.7.7,0,0,1,.115.38V1881.9a.7.7,0,0,1-.115.38A.357.357,0,0,1,8876.507,1882.459Z" transform="translate(-8873.434 -1869.108)"/></g><g transform="translate(134.652)"><path class="f" d="M8941.219,1882.459h-5.947c-.354,0-.529-.187-.529-.562v-1.652a3.593,3.593,0,0,1,.314-1.553,3.39,3.39,0,0,1,.908-1.157l3.6-2.908a1.99,1.99,0,0,0,.824-1.718v-.793q0-1.652-1.486-1.652h-1.52q-1.453,0-1.453,1.652v.892a.751.751,0,0,1-.131.446.462.462,0,0,1-.4.182h-.264a.413.413,0,0,1-.379-.182.805.805,0,0,1-.117-.446v-.892a3.062,3.062,0,0,1,.76-2.231,2.654,2.654,0,0,1,1.982-.777h1.52a2.64,2.64,0,0,1,2,.777,3.107,3.107,0,0,1,.742,2.231v.826a3.391,3.391,0,0,1-1.256,2.776l-3.633,2.941a1.846,1.846,0,0,0-.76,1.52v.925h5.221c.328,0,.494.188.494.562v.232C8941.713,1882.272,8941.547,1882.459,8941.219,1882.459Z" transform="translate(-8934.643 -1869.108)"/></g><g transform="translate(155.118)"><path class="f" d="M9096.986,1882.459h-1.553a2.691,2.691,0,0,1-2.016-.777,3.057,3.057,0,0,1-.76-2.231v-.958a.78.78,0,0,1,.115-.4.406.406,0,0,1,.38-.2h.3a.4.4,0,0,1,.379.2.772.772,0,0,1,.116.4v.958q0,1.653,1.487,1.652h1.553q1.453,0,1.453-1.652v-1.388q0-1.652-1.453-1.652h-1.123c-.354,0-.529-.187-.529-.562v-.231a.468.468,0,0,1,.529-.529h1.123q1.453,0,1.453-1.685v-1.289q0-1.652-1.453-1.652h-1.553q-1.487,0-1.487,1.652v.727a.725.725,0,0,1-.116.429.428.428,0,0,1-.379.165h-.3a.43.43,0,0,1-.38-.165.732.732,0,0,1-.115-.429v-.727a3.058,3.058,0,0,1,.76-2.231,2.693,2.693,0,0,1,2.016-.777h1.553a2.637,2.637,0,0,1,2,.777,3.1,3.1,0,0,1,.744,2.231v1.289a3.27,3.27,0,0,0,0,4.627v1.421a3.1,3.1,0,0,1-.744,2.231A2.636,2.636,0,0,1,9096.986,1882.459Z" transform="translate(-9092.658 -1869.108)"/></g><g transform="translate(166.185)"><path class="f" d="M9186.131,1879.816h-1.024v2.082a.68.68,0,0,1-.116.4.43.43,0,0,1-.38.165h-.265a.466.466,0,0,1-.412-.165.666.666,0,0,1-.116-.4v-2.082h-5.154a.667.667,0,0,1-.4-.116.51.51,0,0,1-.165-.446v-.231a1.077,1.077,0,0,1,.065-.265l.066-.132a.1.1,0,0,0,.033-.066.094.094,0,0,1,.033-.066l5.087-8.989a.751.751,0,0,1,.694-.4h.528a.431.431,0,0,1,.38.165.682.682,0,0,1,.116.4v8.824h1.024a.619.619,0,0,1,.4.132.48.48,0,0,1,.165.4v.231a.513.513,0,0,1-.165.446A.674.674,0,0,1,9186.131,1879.816Zm-2.313-8.46-4.03,7.138h4.03Z" transform="translate(-9178.103 -1869.108)"/></g><g transform="translate(178.507)"><path class="f" d="M9277.4,1882.459h-1.387a2.568,2.568,0,0,1-2.031-.843,3.246,3.246,0,0,1-.744-2.231v-.76a.727.727,0,0,1,.116-.43.428.428,0,0,1,.379-.165h.265a.476.476,0,0,1,.4.165.669.669,0,0,1,.133.43v.727q0,1.752,1.486,1.751h1.387q1.487,0,1.486-1.751v-2.446a1.882,1.882,0,0,0-.362-1.289,1.454,1.454,0,0,0-1.124-.4h-1.717a1.359,1.359,0,0,0-.611.1.72.72,0,0,0-.281.264,1.715,1.715,0,0,0-.264.43.538.538,0,0,1-.463.231h-.331a.413.413,0,0,1-.379-.182.689.689,0,0,1-.116-.38v-6.015a.691.691,0,0,1,.116-.38.415.415,0,0,1,.379-.182h5.716c.352,0,.528.188.528.562v.2c0,.4-.177.595-.528.595h-4.922v3.7a2.356,2.356,0,0,1,.561-.231,2.478,2.478,0,0,1,.6-.066h1.717a2.694,2.694,0,0,1,2.016.777,3.107,3.107,0,0,1,.76,2.264v2.479a3.2,3.2,0,0,1-.76,2.231A2.583,2.583,0,0,1,9277.4,1882.459Z" transform="translate(-9273.234 -1869.108)"/></g><g transform="translate(189.474)"><path class="f" d="M9362.306,1882.459h-1.62a2.576,2.576,0,0,1-2.014-.843,3.2,3.2,0,0,1-.76-2.231v-7.238a3.142,3.142,0,0,1,.76-2.214,2.6,2.6,0,0,1,2.014-.826h3.338a.618.618,0,0,1,.4.132.52.52,0,0,1,.164.43v.2a.583.583,0,0,1-.164.43.539.539,0,0,1-.4.165h-3.338q-1.485,0-1.485,1.718v2.082h3.105a2.61,2.61,0,0,1,2.064.843,3.246,3.246,0,0,1,.743,2.231v2.049a3.246,3.246,0,0,1-.743,2.231A2.61,2.61,0,0,1,9362.306,1882.459Zm1.519-5.089q0-1.718-1.519-1.719H9359.2v3.7q0,1.752,1.485,1.751h1.62q1.518,0,1.519-1.751Z" transform="translate(-9357.912 -1869.108)"/></g></g><g transform="translate(125.086 71.312)"><g transform="translate(0 0.676)"><path class="f" d="M8848.424,2110.052h-.158a.255.255,0,0,1-.247-.124.537.537,0,0,1-.068-.259v-7.549l-1.08.789a1.454,1.454,0,0,0-.181.056.513.513,0,0,1-.18.034.16.16,0,0,1-.124-.067.556.556,0,0,1-.057-.316v-.09a.6.6,0,0,1,.226-.5l1.441-.991a.6.6,0,0,1,.292-.09h.136a.243.243,0,0,1,.214.124.482.482,0,0,1,.079.259v8.338a.484.484,0,0,1-.079.259A.243.243,0,0,1,8848.424,2110.052Z" transform="translate(-8846.329 -2100.948)"/></g><g transform="translate(4.73 0.676)"><path class="f" d="M8887.333,2110.052h-4.055c-.241,0-.359-.128-.359-.383v-1.127a2.434,2.434,0,0,1,.213-1.059,2.315,2.315,0,0,1,.62-.789l2.455-1.983a1.355,1.355,0,0,0,.563-1.172V2103q0-1.127-1.014-1.127h-1.036q-.992,0-.991,1.127v.609a.5.5,0,0,1-.091.3.311.311,0,0,1-.27.124h-.181a.285.285,0,0,1-.26-.124.551.551,0,0,1-.078-.3V2103a2.082,2.082,0,0,1,.519-1.521,1.807,1.807,0,0,1,1.352-.529h1.036a1.8,1.8,0,0,1,1.362.529,2.115,2.115,0,0,1,.507,1.521v.564a2.315,2.315,0,0,1-.855,1.893l-2.479,2.006a1.263,1.263,0,0,0-.519,1.036v.631h3.56q.338,0,.338.383v.158Q8887.671,2110.052,8887.333,2110.052Z" transform="translate(-8882.851 -2100.948)"/></g><g transform="translate(11.533)"><path class="f" d="M8939.179,2096.316l-2.86,9.487c0,.03-.046.1-.136.2a.289.289,0,0,1-.271.113h-.157a.388.388,0,0,1-.338-.158.519.519,0,0,1,0-.428l2.883-9.442.113-.27a.369.369,0,0,1,.271-.09h.18a.28.28,0,0,1,.271.124.581.581,0,0,1,.067.282A.476.476,0,0,1,8939.179,2096.316Z" transform="translate(-8935.371 -2095.73)"/></g><g transform="translate(17.638 0.676)"><path class="f" d="M8986.988,2110.052h-4.055c-.24,0-.361-.128-.361-.383v-1.127a2.42,2.42,0,0,1,.215-1.059,2.3,2.3,0,0,1,.619-.789l2.455-1.983a1.356,1.356,0,0,0,.564-1.172V2103q0-1.127-1.014-1.127h-1.037c-.662,0-.99.376-.99,1.127v.609a.5.5,0,0,1-.092.3.312.312,0,0,1-.27.124h-.18a.283.283,0,0,1-.26-.124.551.551,0,0,1-.078-.3V2103a2.085,2.085,0,0,1,.518-1.521,1.8,1.8,0,0,1,1.352-.529h1.037a1.8,1.8,0,0,1,1.361.529,2.116,2.116,0,0,1,.508,1.521v.564a2.315,2.315,0,0,1-.855,1.893l-2.479,2.006a1.261,1.261,0,0,0-.52,1.036v.631h3.561c.225,0,.338.127.338.383v.158C8987.326,2109.925,8987.213,2110.052,8986.988,2110.052Z" transform="translate(-8982.506 -2100.948)"/></g><g transform="translate(24.351 0.676)"><path class="f" d="M9039.807,2108.249h-.7v1.42a.458.458,0,0,1-.079.271.293.293,0,0,1-.259.113h-.181a.32.32,0,0,1-.281-.113.452.452,0,0,1-.079-.271v-1.42h-3.515a.455.455,0,0,1-.27-.079.346.346,0,0,1-.113-.3v-.158a.778.778,0,0,1,.045-.18l.046-.09a.067.067,0,0,0,.022-.046.065.065,0,0,1,.021-.045l3.47-6.129a.513.513,0,0,1,.474-.271h.36a.294.294,0,0,1,.259.112.46.46,0,0,1,.079.271v6.017h.7a.416.416,0,0,1,.27.091.325.325,0,0,1,.112.27v.158a.348.348,0,0,1-.112.3A.455.455,0,0,1,9039.807,2108.249Zm-1.577-5.769-2.749,4.867h2.749Z" transform="translate(-9034.332 -2100.948)"/></g></g><g transform="translate(2.563 91.774)"><path class="f" d="M7903.163,2260.842H7901.9a1.453,1.453,0,0,1-1.129-.436,1.76,1.76,0,0,1-.4-1.237v-3.844a1.761,1.761,0,0,1,.408-1.21,1.42,1.42,0,0,1,1.121-.463h1.264a1.39,1.39,0,0,1,1.111.463,1.781,1.781,0,0,1,.4,1.21v.48a.546.546,0,0,1-.063.249.241.241,0,0,1-.239.125h-.125a.268.268,0,0,1-.249-.116.478.478,0,0,1-.071-.258v-.48q0-.89-.765-.89H7901.9q-.765,0-.765.89v3.827q0,.907.765.908h1.264q.765,0,.765-.908v-.481c0-.225.107-.338.32-.338h.125a.252.252,0,0,1,.231.116.431.431,0,0,1,.071.222v.5a1.8,1.8,0,0,1-.392,1.237A1.429,1.429,0,0,1,7903.163,2260.842Z" transform="translate(-7900.37 -2253.651)"/><g transform="translate(5.984)"><path class="f" d="M7951.313,2260.842h-.161a.245.245,0,0,1-.213-.1.759.759,0,0,1-.107-.2l-.516-1.584h-2.455l-.552,1.62a.464.464,0,0,1-.116.187.275.275,0,0,1-.2.08h-.124a.254.254,0,0,1-.249-.142.362.362,0,0,1-.036-.267l2.064-6.5a.236.236,0,0,0,.053-.089.218.218,0,0,1,.054-.089.238.238,0,0,1,.214-.107h.23a.339.339,0,0,1,.338.267l2.064,6.514a.362.362,0,0,1-.036.267A.253.253,0,0,1,7951.313,2260.842Zm-2.242-5.874q-.231.854-.5,1.726t-.428,1.424h1.886Z" transform="translate(-7946.568 -2253.651)"/></g><g transform="translate(12.757)"><path class="f" d="M8002.721,2260.842h-.2a.307.307,0,0,1-.3-.2l-1.121-2.616h-1.459v2.492a.291.291,0,0,1-.1.24.366.366,0,0,1-.24.08h-.106a.467.467,0,0,1-.222-.062.265.265,0,0,1-.116-.258v-6.55a.292.292,0,0,1,.1-.241.369.369,0,0,1,.24-.08h2.135a1.459,1.459,0,0,1,1.131.436,1.765,1.765,0,0,1,.4,1.237v1.014a1.823,1.823,0,0,1-.24.988,1.653,1.653,0,0,1-.756.614l1.086,2.457c.012.035.023.077.035.124a.293.293,0,0,1,0,.142.24.24,0,0,1-.08.125A.282.282,0,0,1,8002.721,2260.842Zm-.605-5.517q0-.908-.783-.908h-1.689v2.812h1.689q.784,0,.783-.89Z" transform="translate(-7998.859 -2253.651)"/></g><g transform="translate(18.983)"><path class="f" d="M8049.621,2260.842h-2.384a.284.284,0,0,1-.223-.089.335.335,0,0,1-.08-.231v-6.532c0-.225.1-.338.3-.338h2.384a1.391,1.391,0,0,1,1.112.463,1.781,1.781,0,0,1,.4,1.21v3.844a1.785,1.785,0,0,1-.392,1.237A1.426,1.426,0,0,1,8049.621,2260.842Zm.766-5.517q0-.89-.766-.89H8047.7v5.625h1.921q.766,0,.766-.908Z" transform="translate(-8046.934 -2253.651)"/></g><g transform="translate(25.477)"><path class="f" d="M8100.969,2260.842h-.125a.305.305,0,0,1-.32-.32v-2.955h-2.669v2.955a.382.382,0,0,1-.08.2.273.273,0,0,1-.24.115h-.143a.307.307,0,0,1-.24-.089.335.335,0,0,1-.08-.231v-6.532a.372.372,0,0,1,.08-.24.294.294,0,0,1,.24-.1h.143a.266.266,0,0,1,.258.116.477.477,0,0,1,.063.222v2.795h2.669v-2.795a.4.4,0,0,1,.071-.24.289.289,0,0,1,.249-.1h.125a.248.248,0,0,1,.239.116.466.466,0,0,1,.063.222v6.532a.379.379,0,0,1-.071.213A.256.256,0,0,1,8100.969,2260.842Z" transform="translate(-8097.072 -2253.651)"/></g><g transform="translate(31.9)"><path class="f" d="M8149.385,2260.842h-1.21a1.434,1.434,0,0,1-1.112-.436,1.764,1.764,0,0,1-.4-1.237v-3.844a1.785,1.785,0,0,1,.4-1.21,1.394,1.394,0,0,1,1.112-.463h1.21a1.418,1.418,0,0,1,1.12.463,1.757,1.757,0,0,1,.41,1.21v3.844a1.764,1.764,0,0,1-.4,1.237A1.457,1.457,0,0,1,8149.385,2260.842Zm.765-5.517q0-.89-.765-.89h-1.21q-.766,0-.766.89v3.827q0,.907.766.908h1.21q.765,0,.765-.908Z" transform="translate(-8146.663 -2253.651)"/></g><g transform="translate(38.216)"><path class="f" d="M8198.719,2260.842h-2.972a.3.3,0,0,1-.319-.32v-6.532a.382.382,0,0,1,.079-.231.282.282,0,0,1,.24-.107h.126a.259.259,0,0,1,.257.125.506.506,0,0,1,.063.213v6.052h2.526a.24.24,0,0,1,.214.107.387.387,0,0,1,.071.214v.16a.331.331,0,0,1-.081.231A.26.26,0,0,1,8198.719,2260.842Z" transform="translate(-8195.428 -2253.651)"/></g><g transform="translate(43.785)"><path class="f" d="M8241.109,2260.842h-2.385a.283.283,0,0,1-.223-.089.33.33,0,0,1-.08-.231v-6.532c0-.225.1-.338.3-.338h2.385a1.392,1.392,0,0,1,1.111.463,1.786,1.786,0,0,1,.4,1.21v3.844a1.8,1.8,0,0,1-.391,1.237A1.43,1.43,0,0,1,8241.109,2260.842Zm.765-5.517c0-.594-.256-.89-.765-.89h-1.922v5.625h1.922c.509,0,.765-.3.765-.908Z" transform="translate(-8238.422 -2253.651)"/></g><g transform="translate(50.35)"><path class="f" d="M8292.26,2260.842h-2.847a.287.287,0,0,1-.224-.089.334.334,0,0,1-.079-.231v-6.532a.4.4,0,0,1,.071-.24.267.267,0,0,1,.231-.1h2.847a.283.283,0,0,1,.222.089.337.337,0,0,1,.08.232v.142a.28.28,0,0,1-.106.24.337.337,0,0,1-.2.08h-2.42v2.35h2.188a.338.338,0,0,1,.2.08.3.3,0,0,1,.106.259v.124a.335.335,0,0,1-.079.231.289.289,0,0,1-.224.089h-2.187v2.492h2.42a.282.282,0,0,1,.222.089.335.335,0,0,1,.08.231v.142a.28.28,0,0,1-.106.24A.337.337,0,0,1,8292.26,2260.842Z" transform="translate(-8289.11 -2253.651)"/></g><g transform="translate(55.884)"><path class="f" d="M8335.691,2260.842h-.2a.307.307,0,0,1-.3-.2l-1.122-2.616h-1.459v2.492a.288.288,0,0,1-.1.24.364.364,0,0,1-.24.08h-.106a.461.461,0,0,1-.222-.062.266.266,0,0,1-.116-.258v-6.55a.292.292,0,0,1,.1-.241.367.367,0,0,1,.24-.08h2.135a1.459,1.459,0,0,1,1.131.436,1.765,1.765,0,0,1,.4,1.237v1.014a1.832,1.832,0,0,1-.24.988,1.653,1.653,0,0,1-.756.614l1.085,2.457c.012.035.024.077.036.124a.293.293,0,0,1,0,.142.24.24,0,0,1-.08.125A.282.282,0,0,1,8335.691,2260.842Zm-.605-5.517q0-.908-.783-.908h-1.69v2.812h1.69q.782,0,.783-.89Z" transform="translate(-8331.83 -2253.651)"/></g><g transform="translate(65.936)"><path class="f" d="M8413.461,2260.842h-.106a.368.368,0,0,1-.32-.2l-2.811-5.179v5.055a.369.369,0,0,1-.081.2.272.272,0,0,1-.24.115h-.124a.3.3,0,0,1-.338-.32v-6.532a.367.367,0,0,1,.08-.24.315.315,0,0,1,.258-.1h.124a.257.257,0,0,1,.188.062c.041.042.063.075.063.1l2.864,5.179v-5a.476.476,0,0,1,.062-.222.249.249,0,0,1,.24-.116h.143a.25.25,0,0,1,.241.116.487.487,0,0,1,.062.222v6.532a.379.379,0,0,1-.071.213A.257.257,0,0,1,8413.461,2260.842Z" transform="translate(-8409.44 -2253.651)"/></g><g transform="translate(72.044)"><path class="f" d="M8461.347,2260.842h-.161a.245.245,0,0,1-.213-.1.729.729,0,0,1-.106-.2l-.517-1.584h-2.455l-.552,1.62a.484.484,0,0,1-.115.187.276.276,0,0,1-.2.08h-.126a.252.252,0,0,1-.248-.142.362.362,0,0,1-.036-.267l2.064-6.5a.224.224,0,0,0,.053-.089.305.305,0,0,1,.267-.2h.231a.339.339,0,0,1,.338.267l2.063,6.514a.357.357,0,0,1-.035.267A.255.255,0,0,1,8461.347,2260.842Zm-2.242-5.874q-.231.854-.5,1.726t-.428,1.424h1.887Z" transform="translate(-8456.602 -2253.651)"/></g><g transform="translate(78.87)"><path class="f" d="M8514.555,2260.842h-.143a.284.284,0,0,1-.321-.32v-4.948l-1.564,3.6a.348.348,0,0,1-.356.213h-.16a.315.315,0,0,1-.338-.213l-1.583-3.631v4.984a.386.386,0,0,1-.071.213.258.258,0,0,1-.231.107h-.143q-.338,0-.338-.32v-6.532a.367.367,0,0,1,.08-.24.314.314,0,0,1,.258-.1h.267a.26.26,0,0,1,.285.2l1.9,4.343,1.868-4.343a.29.29,0,0,1,.3-.2h.285a.25.25,0,0,1,.24.116.477.477,0,0,1,.063.222v6.532a.386.386,0,0,1-.071.213A.26.26,0,0,1,8514.555,2260.842Z" transform="translate(-8509.306 -2253.651)"/></g><g transform="translate(86.716)"><path class="f" d="M8573.032,2260.842h-2.847a.287.287,0,0,1-.224-.089.334.334,0,0,1-.079-.231v-6.532a.4.4,0,0,1,.071-.24.265.265,0,0,1,.231-.1h2.847a.283.283,0,0,1,.222.089.338.338,0,0,1,.081.232v.142a.281.281,0,0,1-.107.24.337.337,0,0,1-.2.08h-2.42v2.35h2.188a.338.338,0,0,1,.2.08.3.3,0,0,1,.106.259v.124a.335.335,0,0,1-.079.231.289.289,0,0,1-.224.089h-2.187v2.492h2.42a.282.282,0,0,1,.222.089.336.336,0,0,1,.081.231v.142a.281.281,0,0,1-.107.24A.337.337,0,0,1,8573.032,2260.842Z" transform="translate(-8569.883 -2253.651)"/></g></g><g transform="translate(180.705 75.895)"><path class="g" d="M9298.2,2133.872a14.081,14.081,0,1,0,5.7,11.313A14,14,0,0,0,9298.2,2133.872Z" transform="translate(-9275.75 -2131.107)"/><path class="h" d="M9471.493,2145.176a14.061,14.061,0,0,1-14.071,14.076,14.006,14.006,0,0,1-8.373-2.762,14.081,14.081,0,0,0,0-22.627,14.068,14.068,0,0,1,22.444,11.313Z" transform="translate(-9426.603 -2131.098)"/><path class="i" d="M9495.777,2145.179a14.161,14.161,0,0,1-.2,2.362,14.08,14.08,0,0,1-18.634-13.321,14.26,14.26,0,0,1,.2-2.362,14.081,14.081,0,0,1,18.635,13.32Z" transform="translate(-9450.887 -2131.102)"/><path class="j" d="M9275.752,2218.8a14.26,14.26,0,0,1,.2-2.362,14.09,14.09,0,1,1-.2,2.362Z" transform="translate(-9275.752 -2204.719)"/></g><g class="c" transform="translate(198.376 11.01)"><g transform="translate(8.276)"><path d="M9477.294,1653.9a1.144,1.144,0,0,1-.876-1.879,15.444,15.444,0,0,0-.068-19.809,1.144,1.144,0,0,1,.059-1.545l.007-.006a1.144,1.144,0,0,1,.813-.338,1.126,1.126,0,0,1,.864.4,17.732,17.732,0,0,1,.095,22.756,1.16,1.16,0,0,1-.894.422Z" transform="translate(-9476.078 -1630.326)"/></g><g transform="translate(4.172 4.107)"><path d="M9445.6,1677.38a1.132,1.132,0,0,1-.806-.334,1.147,1.147,0,0,1-.111-1.491,9.717,9.717,0,0,0-.061-11.695,1.147,1.147,0,0,1,.918-1.84,1.119,1.119,0,0,1,.895.438,12.017,12.017,0,0,1,.1,14.453,1.153,1.153,0,0,1-.931.469Z" transform="translate(-9444.39 -1662.02)"/></g><g transform="translate(0 8.232)"><path d="M9413.4,1700.959a1.071,1.071,0,0,1-.762-.317l-.086-.086a1.1,1.1,0,0,1-.184-1.292,3.911,3.911,0,0,0-.056-3.7,1.107,1.107,0,0,1,.2-1.313l.067-.068a1.083,1.083,0,0,1,.771-.32,1.06,1.06,0,0,1,.936.54,6.265,6.265,0,0,1,.085,5.968,1.1,1.1,0,0,1-.974.588Z" transform="translate(-9412.183 -1693.863)"/></g></g><g transform="translate(197.559 10.397)"><g transform="translate(8.276)"><path class="f" d="M9470.983,1649.171a1.145,1.145,0,0,1-.876-1.879,15.443,15.443,0,0,0-.067-19.809,1.142,1.142,0,0,1,.059-1.545l.006-.006a1.142,1.142,0,0,1,.814-.338,1.129,1.129,0,0,1,.863.4,17.731,17.731,0,0,1,.095,22.756,1.158,1.158,0,0,1-.894.422Z" transform="translate(-9469.768 -1625.594)"/></g><g transform="translate(4.172 4.107)"><path class="f" d="M9439.29,1672.648a1.132,1.132,0,0,1-.8-.334,1.146,1.146,0,0,1-.111-1.491,9.716,9.716,0,0,0-.061-11.695,1.148,1.148,0,0,1,.918-1.84,1.117,1.117,0,0,1,.895.438,12.016,12.016,0,0,1,.1,14.453,1.152,1.152,0,0,1-.931.469Z" transform="translate(-9438.08 -1657.288)"/></g><g transform="translate(0 8.232)"><path class="f" d="M9407.093,1696.227a1.073,1.073,0,0,1-.763-.318l-.086-.086a1.1,1.1,0,0,1-.184-1.292,3.914,3.914,0,0,0-.055-3.7,1.107,1.107,0,0,1,.2-1.313l.067-.068a1.087,1.087,0,0,1,.772-.32,1.062,1.062,0,0,1,.936.54,6.263,6.263,0,0,1,.084,5.968,1.1,1.1,0,0,1-.973.588Z" transform="translate(-9405.873 -1689.131)"/></g></g></g><g transform="translate(7584.328 900.925)"><path class="f" d="M242.4,240.2l-11.555,6.711.01,13.34L242.4,266.91l11.542-6.646V246.921Zm6.768,9.12-6.474-3.768,0-4.495,10.359,6.029Zm-6.77,11.724-6.475-3.733-.005-7.141,3.907,2.247,0,2.627,2.569,1.481,2.569-1.479v-2.627l3.907-2.245v7.144Zm1.974-8.968v2.628l-1.977,1.138-1.977-1.14,0-2.627-4.2-2.418,6.185-3.592,6.178,3.6Zm-2.27-6.524-6.482,3.765-3.887-2.236L242.1,241.06Zm-6.777,4.278.005,7.483-3.884,2.254-.009-11.973Zm.3,7.995,6.475,3.733,0,4.5-10.362-5.974Zm7.067,3.733,6.473-3.727,3.889,2.259-10.359,5.965Zm6.769-4.239v-7.484l3.887-2.234v11.976Z" transform="translate(0 0)"/><g transform="translate(262.338 249.737)"><path class="f" d="M361.724,280.1h-.841v7.45h5.035v-.777h-4.194Z" transform="translate(-360.883 -279.971)"/><path class="f" d="M408.874,284.175h4.066v-.766h-4.066v-2.544h4.545V280.1h-5.386v7.45h5.439v-.766h-4.6Z" transform="translate(-396.614 -279.971)"/><path class="f" d="M459.875,279.57a3.775,3.775,0,0,0-3.81,3.853v.022a3.8,3.8,0,1,0,7.6-.022V283.4A3.739,3.739,0,0,0,459.875,279.57Zm2.916,3.875a2.927,2.927,0,0,1-2.916,3.055,2.962,2.962,0,0,1-2.938-3.076V283.4a2.927,2.927,0,0,1,2.916-3.055,2.962,2.962,0,0,1,2.937,3.076Z" transform="translate(-433.013 -279.57)"/><path class="f" d="M520.207,286.07l-4.694-5.971h-.788v7.45h.82V281.44l4.811,6.109h.67V280.1h-.82Z" transform="translate(-477.467 -279.971)"/><path class="f" d="M574.272,284.431c0,1.629-.873,2.458-2.246,2.458-1.426,0-2.278-.9-2.278-2.512V280.1h-.841v4.332a2.919,2.919,0,0,0,3.1,3.235c1.863,0,3.108-1.128,3.108-3.3V280.1h-.841Z" transform="translate(-518.527 -279.971)"/><path class="f" d="M623.832,283.086c-1.639-.351-2.022-.745-2.022-1.448v-.021c0-.67.617-1.2,1.586-1.2a3.273,3.273,0,0,1,2.15.809l.489-.649a3.888,3.888,0,0,0-2.618-.915,2.2,2.2,0,0,0-2.448,2.033v.022c0,1.224.788,1.777,2.5,2.15,1.565.33,1.937.724,1.937,1.416v.022c0,.734-.66,1.266-1.66,1.266a3.548,3.548,0,0,1-2.554-1.054l-.521.617a4.358,4.358,0,0,0,3.044,1.192c1.479,0,2.544-.83,2.544-2.107v-.021C626.259,284.055,625.493,283.448,623.832,283.086Z" transform="translate(-557.753 -279.637)"/></g></g></g></svg>