<svg xmlns="http://www.w3.org/2000/svg" width="17.997" height="12.664" viewBox="0 0 17.997 12.664"><defs><style>.a{fill:#fff;}</style></defs><path class="a" d="M14.193,11.335H7.707a6.879,6.879,0,0,0,.035-.69A6.732,6.732,0,0,0,4.49,4.857h11.7V9.335A2,2,0,0,1,14.193,11.335ZM12.145,7.286a.81.81,0,1,0,0,1.619h1.619a.81.81,0,1,0,0-1.619ZM16.193,2.43H0L0,2A2,2,0,0,1,2,0H14.193a2,2,0,0,1,2,2v.429Z" transform="translate(1.804)"/><path class="a" d="M1.146,4.631a.416.416,0,0,1-.708-.248L0,.462A.416.416,0,0,1,.462,0l3.92.436a.416.416,0,0,1,.248.708L3.477,2.3l1.25,1.25a.416.416,0,0,1,0,.589l-.589.589a.416.416,0,0,1-.589,0L2.3,3.477Z" transform="translate(3.429 5.806) rotate(45)"/></svg>