<svg xmlns="http://www.w3.org/2000/svg" width="18.42" height="14.259" viewBox="0 0 18.42 14.259"><defs><style>.a,.b,.c{fill:#fff;}.a{opacity:0.3;}.b{stroke:rgba(0,0,0,0);stroke-miterlimit:10;}</style></defs><g transform="translate(-0.4 -7.423)"><g transform="translate(0.82 7.423)"><path class="a" d="M15.074,13.521a.814.814,0,0,1-.212-.028L9.517,12.061c0-.093.006-.192.006-.294a6.563,6.563,0,0,0-.252-1.8A3.263,3.263,0,1,0,5.545,5.741a6.5,6.5,0,0,0-2.57-.524A6.48,6.48,0,0,0,0,5.931L1.427.6a.815.815,0,0,1,1-.577L17.4,4.039a.817.817,0,0,1,.577,1l-2.111,7.878A.817.817,0,0,1,15.074,13.521Z" transform="translate(0 0)"/><path class="b" d="M16.312,9.788H9.443A6.551,6.551,0,0,0,9.192,8.1,3.263,3.263,0,1,0,5.464,3.873,6.5,6.5,0,0,0,2.9,3.35,6.483,6.483,0,0,0,0,4.024V.815A.816.816,0,0,1,.816,0h15.5a.816.816,0,0,1,.816.815V8.972A.817.817,0,0,1,16.312,9.788ZM8.564,6.525H8.508A6.553,6.553,0,0,0,6.94,4.748,1.631,1.631,0,1,1,8.564,6.525Z" transform="translate(0.08 1.867)"/></g><path class="c" d="M1.072,4.333A.389.389,0,0,1,.41,4.1L0,.433A.389.389,0,0,1,.432,0L4.1.41a.389.389,0,0,1,.232.662L3.253,2.152l1.17,1.17a.389.389,0,0,1,0,.551l-.551.551a.389.389,0,0,1-.551,0l-1.17-1.17Z" transform="translate(4.323 15.266) rotate(45)"/></g></svg>