<svg xmlns="http://www.w3.org/2000/svg" width="20" height="16" viewBox="0 0 20 16"><defs><style>.a,.b{fill:#fff;fill-rule:evenodd;}.b{opacity:0.3;}</style></defs><path class="a" d="M12,8.2H8a4.113,4.113,0,0,0-4,4.217v1.054a3.084,3.084,0,0,0,3,3.162v2.108a5.141,5.141,0,0,1-5-5.271V12.421A6.169,6.169,0,0,1,8,6.1h4V4.755a.546.546,0,0,1,.1-.315.483.483,0,0,1,.7-.107l2.857,2.249a.515.515,0,0,1,.1.108.546.546,0,0,1-.1.737L12.8,9.663a.483.483,0,0,1-.3.1A.514.514,0,0,1,12,9.24Z" transform="translate(-2 -4.228)"/><path class="b" d="M12.058,16.553H16a4.115,4.115,0,0,0,4-4.221V11.276a3.086,3.086,0,0,0-3-3.166V6a5.144,5.144,0,0,1,5,5.276v1.055a6.173,6.173,0,0,1-6,6.332H12.058V19.7a.514.514,0,0,1-.5.528.483.483,0,0,1-.3-.1L8.4,17.886a.547.547,0,0,1-.1-.738.515.515,0,0,1,.1-.108l2.857-2.252a.483.483,0,0,1,.7.107.547.547,0,0,1,.1.316Z" transform="translate(-2 -4.228)"/></svg>