<svg id="Layer_1" data-name="Layer 1" xmlns="http://www.w3.org/2000/svg" viewBox="0 0 20 20"><defs><style>.cls-1,.cls-2{fill:#fff;}.cls-1{opacity:0.3;isolation:isolate;}</style></defs><title>ico_isplate</title><g id="ico_ostale_bezgotovinske_uplate" data-name="ico ostale bezgotovinske uplate"><path id="Path_2418" data-name="Path 2418" class="cls-1" d="M18.5,10.31A1.46,1.46,0,1,1,17,11.77a1.48,1.48,0,0,1,1.5-1.46Z"/><path id="Subtraction_15" data-name="Subtraction 15" class="cls-1" d="M8.41,9.88h0A8.51,8.51,0,0,0,2.8,7.79a9.16,9.16,0,0,0-1.57.14L.66,5.87a1,1,0,0,1,.1-.74,1,1,0,0,1,.61-.45l15.45-4a1.15,1.15,0,0,1,.26,0,1,1,0,0,1,1,.72L19.33,6a.92.92,0,0,1-.1.74,1,1,0,0,1-.6.45L8.41,9.88Z"/><path id="Subtraction_14" data-name="Subtraction 14" class="cls-2" d="M18,19H10.57a7.88,7.88,0,0,0,.63-3.1A8.29,8.29,0,0,0,2.8,7.79,8.62,8.62,0,0,0,0,8.26V5.46A2,2,0,0,1,2,3.52H18a2,2,0,0,1,2,1.94V8.7a3.53,3.53,0,0,0-1.5-.33,3.4,3.4,0,1,0,0,6.79,3.67,3.67,0,0,0,1.5-.32V17.1A2,2,0,0,1,18,19Z"/></g><path id="Shape" class="cls-2" d="M7.79,16.19a.61.61,0,0,0,.47-1L4.67,10.72a.6.6,0,0,0-.85-.1.43.43,0,0,0-.09.1L.14,15.2a.6.6,0,0,0,.08.85.62.62,0,0,0,.39.14H3v2.57a.61.61,0,0,0,.61.61H4.8a.61.61,0,0,0,.61-.61h0V16.19Z"/></svg>