<svg xmlns="http://www.w3.org/2000/svg" width="17.997" height="12.664" viewBox="0 0 17.997 12.664">
  <g id="ico_activate_card" transform="translate(-30.135 -447)">
    <path id="Subtraction_11" data-name="Subtraction 11" d="M14.193,11.335H7.707a6.879,6.879,0,0,0,.035-.69A6.732,6.732,0,0,0,4.49,4.857h11.7V9.335A2,2,0,0,1,14.193,11.335ZM12.145,7.286a.81.81,0,1,0,0,1.619h1.619a.81.81,0,1,0,0-1.619ZM16.193,2.43H0L0,2A2,2,0,0,1,2,0H14.193a2,2,0,0,1,2,2v.429Z" transform="translate(31.939 447)" fill="#fff"/>
    <path id="Shape" d="M1.146.218A.416.416,0,0,0,.438.467L0,4.387a.416.416,0,0,0,.46.46l3.92-.436A.416.416,0,0,0,4.631,3.7L3.477,2.549,4.728,1.3a.416.416,0,0,0,0-.589L4.139.122a.416.416,0,0,0-.589,0L2.3,1.372Z" transform="translate(30.135 456.235) rotate(-45)" fill="#8fe55c"/>
  </g>
</svg>
