<svg id="Layer_1" data-name="Layer 1" xmlns="http://www.w3.org/2000/svg" viewBox="0 0 20 20"><defs><style>.cls-1{fill:#fff;}.cls-2{fill:#ffd002;}</style></defs><title>ico_kartica_autorizacija</title><g id="ico_isplata_karticna" data-name="ico isplata karticna"><path id="Subtraction_11" data-name="Subtraction 11" class="cls-1" d="M17.74,16.34H10.39a7.32,7.32,0,0,0,0-.81A8,8,0,0,0,6.75,8.69H20V14A2.32,2.32,0,0,1,17.74,16.34Zm-2.32-4.78a.93.93,0,0,0-.95.92.94.94,0,0,0,.88,1h1.9a.93.93,0,0,0,.95-.92.94.94,0,0,0-.89-1H15.42ZM20,5.82H1.67V5.31A2.31,2.31,0,0,1,3.93,3H17.74A2.31,2.31,0,0,1,20,5.31h0v.51Z"/></g><g id="ico_24_actions_time" data-name="ico 24 actions time"><path id="Icon_color" data-name="Icon color" class="cls-2" d="M3.51,10.18a3.44,3.44,0,1,0,0,6.87A3.53,3.53,0,0,0,6,16a3.42,3.42,0,0,0,1-2.43A3.47,3.47,0,0,0,3.51,10.18Zm1.57,5.43a.2.2,0,0,1-.14-.06L3.19,13.83a.21.21,0,0,1-.07-.15V11.25A.21.21,0,0,1,3.34,11h.33a.21.21,0,0,1,.22.21v2.21L5.48,15a.2.2,0,0,1,0,.3l-.23.23a.18.18,0,0,1-.13.06Z"/></g><path class="cls-1" d="M5.48,15.32l-.23.23a.18.18,0,0,1-.13.06h0a.2.2,0,0,1-.14-.06L3.19,13.83a.21.21,0,0,1-.07-.15V11.25A.21.21,0,0,1,3.34,11h.33a.21.21,0,0,1,.22.21v2.21L5.48,15A.2.2,0,0,1,5.48,15.32Z"/></svg>