<svg id="Layer_1" data-name="Layer 1" xmlns="http://www.w3.org/2000/svg" viewBox="0 0 20 20"><defs><style>.cls-1{fill:#fff;}</style></defs><title>ico_kartica_isplata</title><g id="ico_isplata_karticna" data-name="ico isplata karticna"><path id="Subtraction_11" data-name="Subtraction 11" class="cls-1" d="M17.71,16.34H10.27a7.69,7.69,0,0,0,0-.83A8.12,8.12,0,0,0,6.59,8.59H20v5.35A2.36,2.36,0,0,1,17.71,16.34Zm-2.35-4.85a1,1,0,0,0-.07,1.94h1.93a1,1,0,0,0,1-.93,1,1,0,0,0-.9-1H15.36ZM20,5.68H1.44V5.17A2.34,2.34,0,0,1,3.73,2.78h14A2.34,2.34,0,0,1,20,5.17h0v.51Z"/><path id="Shape" class="cls-1" d="M.48,14.61a.48.48,0,0,1-.48-.5.57.57,0,0,1,.1-.31l2.83-3.69A.47.47,0,0,1,3.6,10l.08.08L6.5,13.8a.52.52,0,0,1-.07.7.48.48,0,0,1-.3.11H4.26v2.11a.49.49,0,0,1-.48.5h-1a.48.48,0,0,1-.47-.49h0V14.61Z"/></g></svg>