<svg id="Layer_1" data-name="Layer 1" xmlns="http://www.w3.org/2000/svg" viewBox="0 0 20 20"><defs><style>.cls-1,.cls-2{fill:#fff;}.cls-1{opacity:0.3;isolation:isolate;}.cls-3{fill:#09f;}</style></defs><title>ico_najava</title><g id="ico_ostale_bezgotovinske_uplate" data-name="ico ostale bezgotovinske uplate"><path id="Path_2418" data-name="Path 2418" class="cls-1" d="M18.5,10.3A1.46,1.46,0,1,1,17,11.76,1.48,1.48,0,0,1,18.5,10.3Z"/><path id="Subtraction_15" data-name="Subtraction 15" class="cls-1" d="M8.44,9.87h0a8.53,8.53,0,0,0-5.6-2.08,9,9,0,0,0-1.56.14L.71,5.87a.92.92,0,0,1,.1-.74,1,1,0,0,1,.6-.45l15.42-4a.75.75,0,0,1,.26,0,1,1,0,0,1,.95.72L19.33,6a1,1,0,0,1-.09.74,1,1,0,0,1-.61.45L8.43,9.87Z"/><path id="Subtraction_14" data-name="Subtraction 14" class="cls-2" d="M18,19H10.59a7.83,7.83,0,0,0,.63-3.09A8.26,8.26,0,0,0,2.84,7.79a8.55,8.55,0,0,0-2.79.46V5.47A2,2,0,0,1,2,3.53H18a2,2,0,0,1,2,1.94V8.7a3.53,3.53,0,0,0-1.5-.33A3.45,3.45,0,0,0,15,11.75a3.45,3.45,0,0,0,3.49,3.39,3.53,3.53,0,0,0,1.5-.33v2.27A2,2,0,0,1,18,19Z"/></g><g id="ico_24_actions_calendar_note" data-name="ico 24 actions calendar note"><path id="Icon_color" data-name="Icon color" class="cls-3" d="M6.2,13.25H5.81v-.54a.19.19,0,0,0-.19-.18H5.23a.19.19,0,0,0-.19.18v.54H1.94v-.54a.19.19,0,0,0-.2-.18H1.35a.19.19,0,0,0-.19.18v.54H.77A.75.75,0,0,0,0,14v4.67a.75.75,0,0,0,.77.72H6.2A.76.76,0,0,0,7,18.64V14A.76.76,0,0,0,6.2,13.25ZM1.55,17.38V17a.19.19,0,0,1,.19-.18H3.68a.18.18,0,0,1,.19.18v.36a.18.18,0,0,1-.19.18H1.74A.19.19,0,0,1,1.55,17.38Zm3.88-1.44a.18.18,0,0,1-.2.18H1.74a.18.18,0,0,1-.19-.18v-.35a.18.18,0,0,1,.19-.18H5.23a.18.18,0,0,1,.2.18Z"/></g><path class="cls-2" d="M5.43,15.59v.35a.18.18,0,0,1-.2.18H1.74a.18.18,0,0,1-.19-.18v-.35a.18.18,0,0,1,.19-.18H5.23A.18.18,0,0,1,5.43,15.59Z"/><path class="cls-2" d="M3.87,17v.36a.18.18,0,0,1-.19.18H1.74a.19.19,0,0,1-.19-.18V17a.19.19,0,0,1,.19-.18H3.68A.18.18,0,0,1,3.87,17Z"/></svg>