<svg id="Layer_1" data-name="Layer 1" xmlns="http://www.w3.org/2000/svg" viewBox="0 0 20 20"><defs><style>.cls-1,.cls-2{fill:#fff;}.cls-1{opacity:0.3;isolation:isolate;}.cls-3{fill:red;}</style></defs><title>ico_najava_bez_pokrica</title><g id="ico_ostale_bezgotovinske_uplate" data-name="ico ostale bezgotovinske uplate"><path id="Path_2418" data-name="Path 2418" class="cls-1" d="M18.56,9.93a1.4,1.4,0,1,1-1.44,1.39,1.42,1.42,0,0,1,1.44-1.39Z"/><path id="Subtraction_15" data-name="Subtraction 15" class="cls-1" d="M8.89,9.51h0a8.2,8.2,0,0,0-5.38-2A8.47,8.47,0,0,0,2,7.64l-.54-2A.86.86,0,0,1,1.55,5a1,1,0,0,1,.58-.44L17,.67a1.07,1.07,0,0,1,.25,0,1,1,0,0,1,.92.69l1.24,4.49a.89.89,0,0,1-.1.71.91.91,0,0,1-.58.43L8.88,9.51Z"/><path id="Subtraction_14" data-name="Subtraction 14" class="cls-2" d="M18.08,18.3H11a7.66,7.66,0,0,0,.6-3,7.94,7.94,0,0,0-8-7.81A8.47,8.47,0,0,0,.82,8V5.28A1.9,1.9,0,0,1,2.74,3.41H18.08A1.9,1.9,0,0,1,20,5.28v3.1a3.25,3.25,0,0,0-1.44-.31,3.31,3.31,0,0,0-3.36,3.25,3.31,3.31,0,0,0,3.36,3.25A3.25,3.25,0,0,0,20,14.26v2.17A1.9,1.9,0,0,1,18.08,18.3Z"/></g><path class="cls-3" d="M4.16,11A4.17,4.17,0,1,0,8.32,15.2,4.17,4.17,0,0,0,4.16,11Zm-.79,6.08a.65.65,0,1,1,.65.65A.65.65,0,0,1,3.37,17.11ZM4.77,15a.72.72,0,0,1-.7.71.7.7,0,0,1-.7-.71V13.32a.7.7,0,1,1,1.4,0Z"/><path class="cls-2" d="M4.77,13.32V15a.72.72,0,0,1-.7.71.7.7,0,0,1-.7-.71V13.32a.7.7,0,1,1,1.4,0Z"/><path class="cls-2" d="M4.67,17.11A.65.65,0,1,1,4,16.46.66.66,0,0,1,4.67,17.11Z"/></svg>