<svg xmlns="http://www.w3.org/2000/svg" width="17.699" height="16.819" viewBox="0 0 17.699 16.819"><defs><style>.a,.b,.c{fill:#fff;}.a{opacity:0.3;}.b{stroke:rgba(0,0,0,0);stroke-miterlimit:10;}</style></defs><g transform="translate(-1.135 -0.846)"><path class="a" d="M39.25,22A1.25,1.25,0,1,1,38,23.25,1.25,1.25,0,0,1,39.25,22" transform="translate(-22.167 -12.833)"/><path class="a" d="M-610.324-146.055h0A6.986,6.986,0,0,0-615-147.846a7.063,7.063,0,0,0-1.308.122l-.476-1.776a.827.827,0,0,1,.083-.632.827.827,0,0,1,.506-.388l12.88-3.451A.835.835,0,0,1-603.1-154a.833.833,0,0,1,.8.617l1.078,4.025a.827.827,0,0,1-.083.633.826.826,0,0,1-.506.388l-8.518,2.282Z" transform="translate(619 154.846)"/><path class="b" d="M-602.333-140.666h-6.193a6.958,6.958,0,0,0,.526-2.667,7.008,7.008,0,0,0-7-7,6.983,6.983,0,0,0-2.334.4v-2.4A1.669,1.669,0,0,1-615.667-154h13.333a1.669,1.669,0,0,1,1.667,1.667v2.781a2.877,2.877,0,0,0-1.25-.281,2.92,2.92,0,0,0-2.917,2.916A2.92,2.92,0,0,0-601.916-144a2.891,2.891,0,0,0,1.25-.281v1.948A1.669,1.669,0,0,1-602.333-140.666Z" transform="translate(619 157.333)"/><path class="c" d="M1.146.218A.416.416,0,0,0,.438.467L0,4.387a.416.416,0,0,0,.46.46l3.92-.436A.416.416,0,0,0,4.631,3.7L3.477,2.549,4.728,1.3a.416.416,0,0,0,0-.589L4.139.122a.416.416,0,0,0-.589,0L2.3,1.372Z" transform="translate(1.135 14.235) rotate(-45)"/></g></svg>