<svg id="Layer_1" data-name="Layer 1" xmlns="http://www.w3.org/2000/svg" viewBox="0 0 20 20"><defs><style>.cls-1,.cls-2{fill:#fff;}.cls-1{opacity:0.3;isolation:isolate;}.cls-3{fill:#ffd002;}</style></defs><title>ico_obrada</title><g id="ico_ostale_bezgotovinske_uplate" data-name="ico ostale bezgotovinske uplate"><path id="Path_2418" data-name="Path 2418" class="cls-1" d="M18.57,9.92a1.4,1.4,0,1,1-1.43,1.4,1.42,1.42,0,0,1,1.43-1.4Z"/><path id="Subtraction_15" data-name="Subtraction 15" class="cls-1" d="M9,9.5H9a8.08,8.08,0,0,0-5.35-2,8.46,8.46,0,0,0-1.5.14l-.54-2a.92.92,0,0,1,.09-.71,1,1,0,0,1,.58-.43L17,.63a1,1,0,0,1,.25,0,.94.94,0,0,1,.91.69L19.36,5.8a.89.89,0,0,1-.09.71,1,1,0,0,1-.58.43L8.94,9.5Z"/><path id="Subtraction_14" data-name="Subtraction 14" class="cls-2" d="M18.09,18.32H11a7.68,7.68,0,0,0,.6-3,7.94,7.94,0,0,0-8-7.84,8.09,8.09,0,0,0-2.67.45V5.25A1.89,1.89,0,0,1,2.84,3.38H18.09A1.9,1.9,0,0,1,20,5.25V8.37a3.39,3.39,0,0,0-1.43-.32,3.27,3.27,0,1,0,0,6.54A3.39,3.39,0,0,0,20,14.27v2.18A1.89,1.89,0,0,1,18.09,18.32Z"/></g><g id="ico_24_actions_time" data-name="ico 24 actions time"><path id="Icon_color" data-name="Icon color" class="cls-3" d="M4.21,11.07a4.17,4.17,0,1,0,3,7.11,4.16,4.16,0,0,0-3-7.11Zm2.37,6.24-.28.28a.27.27,0,0,1-.37,0L3.83,15.5a.23.23,0,0,1-.08-.18V12.38A.25.25,0,0,1,4,12.12h.4a.26.26,0,0,1,.26.26v2.67l1.91,1.89a.27.27,0,0,1,.08.19A.27.27,0,0,1,6.58,17.31Z"/></g><path class="cls-2" d="M6.66,17.13a.27.27,0,0,1-.08.18l-.28.28a.27.27,0,0,1-.37,0L3.83,15.5a.23.23,0,0,1-.08-.18V12.38A.25.25,0,0,1,4,12.12h.4a.26.26,0,0,1,.26.26v2.67l1.91,1.89A.27.27,0,0,1,6.66,17.13Z"/></svg>