<svg id="Layer_1" data-name="Layer 1" xmlns="http://www.w3.org/2000/svg" viewBox="0 0 20 20"><defs><style>.cls-1,.cls-2{fill:#223063;}.cls-1{opacity:0.3;isolation:isolate;}</style></defs><title>ico_odbijeni_grey</title><g id="ico_ostale_bezgotovinske_uplate" data-name="ico ostale bezgotovinske uplate"><path id="Path_2418" data-name="Path 2418" class="cls-1" d="M18.6,9.43a1.36,1.36,0,1,1-1.4,1.36,1.38,1.38,0,0,1,1.4-1.36Z"/><path id="Subtraction_15" data-name="Subtraction 15" class="cls-1" d="M9.2,9h0A7.93,7.93,0,0,0,4,7.08a9.12,9.12,0,0,0-1.47.13L2,5.29a.92.92,0,0,1,.66-1.11L17,.44a1,1,0,0,1,.24,0,.91.91,0,0,1,.89.67l1.21,4.36a.89.89,0,0,1-.66,1.11L9.2,9Z"/><path id="Subtraction_14" data-name="Subtraction 14" class="cls-2" d="M18.14,17.56H11.21a7.36,7.36,0,0,0,.59-2.89A7.71,7.71,0,0,0,4,7.08a8,8,0,0,0-2.61.44V4.91a1.83,1.83,0,0,1,1.86-1.8H18.14A1.84,1.84,0,0,1,20,4.91v3a3.36,3.36,0,0,0-1.4-.31,3.17,3.17,0,1,0,0,6.33,3.22,3.22,0,0,0,1.4-.31v2.12A1.83,1.83,0,0,1,18.14,17.56Z"/></g><path class="cls-2" d="M8.1,12.31a4.55,4.55,0,0,0-.82-.82A4.52,4.52,0,0,0,.94,17.83a4.55,4.55,0,0,0,.82.82A4.52,4.52,0,0,0,8.1,12.31ZM1.15,15.07a3.36,3.36,0,0,1,5.31-2.75L1.77,17A3.35,3.35,0,0,1,1.15,15.07Zm3.37,3.37a3.41,3.41,0,0,1-1.94-.61l4.7-4.7a3.41,3.41,0,0,1,.61,1.94A3.37,3.37,0,0,1,4.52,18.44Z"/></svg>