<svg id="Layer_1" data-name="Layer 1" xmlns="http://www.w3.org/2000/svg" viewBox="0 0 20 20"><defs><style>.cls-1,.cls-2{fill:#223063;}.cls-1{opacity:0.3;isolation:isolate;}</style></defs><title>ico_povuceni_grey</title><g id="ico_ostale_bezgotovinske_uplate" data-name="ico ostale bezgotovinske uplate"><path id="Path_2418" data-name="Path 2418" class="cls-1" d="M18.5,10.22A1.45,1.45,0,1,1,17,11.67a1.48,1.48,0,0,1,1.5-1.45Z"/><path id="Subtraction_15" data-name="Subtraction 15" class="cls-1" d="M8.42,9.78h0A8.46,8.46,0,0,0,2.82,7.7a8.26,8.26,0,0,0-1.57.14L.68,5.77A.94.94,0,0,1,.78,5a1,1,0,0,1,.61-.45l15.44-4a.73.73,0,0,1,.25,0,1,1,0,0,1,1,.72l1.29,4.68a.89.89,0,0,1-.1.73,1,1,0,0,1-.6.46L8.42,9.78Z"/><path id="Subtraction_14" data-name="Subtraction 14" class="cls-2" d="M18,18.93H10.58a7.85,7.85,0,0,0,.63-3.1A8.27,8.27,0,0,0,2.82,7.7,8.61,8.61,0,0,0,0,8.16V5.37A2,2,0,0,1,2,3.43H18a2,2,0,0,1,2,1.94V8.6a3.67,3.67,0,0,0-1.5-.32A3.46,3.46,0,0,0,15,11.67a3.46,3.46,0,0,0,3.5,3.39,3.53,3.53,0,0,0,1.5-.33V17A2,2,0,0,1,18,18.93Z"/></g><path id="Combined-Shape-2" class="cls-2" d="M2,16,.35,14.4a1.1,1.1,0,0,1,0-1.57,1.13,1.13,0,0,1,1.6,0l0,0L3.54,14.4l1.6-1.57a1.14,1.14,0,0,1,1.6,0,1.1,1.1,0,0,1,0,1.57l0,0L5.14,16l1.6,1.57a1.1,1.1,0,0,1,0,1.57,1.14,1.14,0,0,1-1.6,0l0,0-1.6-1.57L2,19.11a1.14,1.14,0,0,1-1.6,0,1.1,1.1,0,0,1,0-1.57l0,0Z"/></svg>