<svg id="Layer_1" data-name="Layer 1" xmlns="http://www.w3.org/2000/svg" viewBox="0 0 20 20"><defs><style>.cls-1,.cls-2{fill:#fff;}.cls-1{opacity:0.3;isolation:isolate;}.cls-3{fill:#8fe55c;}</style></defs><title>ico_uplate</title><g id="ico_gotovinske_uplate" data-name="ico gotovinske uplate"><g id="Group_1923" data-name="Group 1923"><path id="Subtraction_13" data-name="Subtraction 13" class="cls-1" d="M16.74,17.89a.85.85,0,0,1-.23,0l-5.94-1.67v-.35a7.82,7.82,0,0,0-.28-2.1A3.69,3.69,0,0,0,13.1,11a3.84,3.84,0,0,0-2.56-4.67,3.74,3.74,0,0,0-.94-.13A3.65,3.65,0,0,0,6.16,8.81,7,7,0,0,0,0,9L1.59,2.82a.9.9,0,0,1,.87-.71,1,1,0,0,1,.24,0L19.33,6.82a.94.94,0,0,1,.55.45A1,1,0,0,1,20,8l-2.35,9.2A.92.92,0,0,1,16.74,17.89Z"/><path id="Subtraction_12" data-name="Subtraction 12" class="cls-2" d="M18.2,15.71H10.57a8.14,8.14,0,0,0-.27-2A3.78,3.78,0,0,0,13.22,10,3.72,3.72,0,0,0,9.6,6.19,3.66,3.66,0,0,0,6.15,8.81,7,7,0,0,0,.08,9V5.24a.93.93,0,0,1,.9-1H18.2a.94.94,0,0,1,.91,1v9.52A.93.93,0,0,1,18.2,15.71ZM9.6,11.9H9.53A7.38,7.38,0,0,0,7.79,9.83a1.81,1.81,0,1,1,3.62.17A1.86,1.86,0,0,1,9.6,11.9Z"/></g><path id="Shape" class="cls-3" d="M.81,13a.51.51,0,0,0-.4.83l3,3.76a.52.52,0,0,0,.72.08l.08-.08,3-3.76a.5.5,0,0,0-.07-.71A.49.49,0,0,0,6.82,13h-2V10.8a.51.51,0,0,0-.51-.51h-1a.51.51,0,0,0-.51.51h0V13Z"/></g></svg>