<svg xmlns="http://www.w3.org/2000/svg" xmlns:xlink="http://www.w3.org/1999/xlink" width="352" height="435" viewBox="0 0 352 435"><defs><style>.a{fill:#ffffff;}</style><filter id="a" x="263" y="-32" width="89.4" height="89.34" filterUnits="userSpaceOnUse"><feOffset dy="13" input="SourceAlpha"/><feGaussianBlur stdDeviation="5" result="b"/><feFlood flood-color="#ff6161" flood-opacity="0.259"/><feComposite operator="in" in2="b"/><feComposite in="SourceGraphic"/></filter></defs><g transform="translate(-358 -263)"><path class="a" d="M351-1549H15a8.009,8.009,0,0,1-8-8v-419a8.009,8.009,0,0,1,8-8h8.285a13.335,13.335,0,0,1,7.328,3.8l9.97,10.07a12.409,12.409,0,0,0,8.878,3.714,12.39,12.39,0,0,0,8.872-3.714l9.97-10.07a13.335,13.335,0,0,1,7.328-3.8H351a8.009,8.009,0,0,1,8,8v419A8.009,8.009,0,0,1,351-1549Z" transform="translate(351 2247)"/></g></svg>
