<svg id="Layer_1" data-name="Layer 1" xmlns="http://www.w3.org/2000/svg" viewBox="0 0 18 18"><defs><style>.cls-1,.cls-3{opacity:0.31;}.cls-2,.cls-3{fill:#fff;}</style></defs><title>ic_healthcare</title><g class="cls-1"><path class="cls-2" d="M8.09,14.69V18h-3V16.27a.14.14,0,0,0-.07-.12l-1.32-.76h0a1.71,1.71,0,0,1-.77-.71L2,13.05a2.79,2.79,0,0,1-.36-1.41V8.31a.29.29,0,0,1,.1-.21A.5.5,0,0,1,2.1,8h0a.47.47,0,0,1,.43.47v3a.31.31,0,0,0,0,.08.8.8,0,0,0,.21.68h0L4,13.54a.16.16,0,0,0,.1.05h0a.15.15,0,0,0,.09,0,.14.14,0,0,0,0-.1.11.11,0,0,0,0-.09L2.94,12a.53.53,0,0,1,0-.72l0,0H3a.52.52,0,0,1,.32-.11.5.5,0,0,1,.36.16l2.79,2.81a.15.15,0,0,0,.09,0,.19.19,0,0,0,.1,0,.13.13,0,0,0,0-.1.14.14,0,0,0,0-.09l-1-1,1.77.8h0A1,1,0,0,1,8.09,14.69Z"/><path class="cls-2" d="M6.1,10.65v2.17l-.91-.41V10.65a.45.45,0,0,1,.44-.45h0A.45.45,0,0,1,6.1,10.65Z"/><path class="cls-2" d="M3.73,8v3l-.21-.06-.21,0a.75.75,0,0,0-.26,0L2.83,11V8a.45.45,0,0,1,.43-.45h0A.45.45,0,0,1,3.73,8Z"/><path class="cls-2" d="M4.92,8.87v3.29L4,11.25V8.87a.45.45,0,0,1,.43-.46h0A.47.47,0,0,1,4.92,8.87Z"/><path class="cls-2" d="M16.35,11.64A2.79,2.79,0,0,1,16,13.05l-.93,1.63a1.71,1.71,0,0,1-.77.71h0L13,16.15a.14.14,0,0,0-.07.12V18h-3V14.69a1,1,0,0,1,.64-1h0l1.77-.8-1,1a.14.14,0,0,0,0,.09.13.13,0,0,0,0,.1.19.19,0,0,0,.1,0,.15.15,0,0,0,.09,0l2.79-2.81a.5.5,0,0,1,.36-.16.52.52,0,0,1,.32.11h0l0,0a.53.53,0,0,1,0,.72l-1.24,1.34a.11.11,0,0,0,0,.09.14.14,0,0,0,.05.1.15.15,0,0,0,.09,0h0a.16.16,0,0,0,.09-.05l1.24-1.33h0a.8.8,0,0,0,.21-.68.31.31,0,0,0,0-.08v-3A.47.47,0,0,1,15.88,8h0a.5.5,0,0,1,.35.14.29.29,0,0,1,.1.21Z"/><path class="cls-2" d="M12.81,10.65v1.76l-.91.41V10.65a.45.45,0,0,1,.45-.45h0A.45.45,0,0,1,12.81,10.65Z"/><path class="cls-2" d="M15.17,8v3L15,10.91a.75.75,0,0,0-.26,0l-.21,0-.21.06V8a.45.45,0,0,1,.45-.45h0A.45.45,0,0,1,15.17,8Z"/><path class="cls-2" d="M14,8.87v2.38l-.91.91V8.87a.47.47,0,0,1,.46-.46h0A.45.45,0,0,1,14,8.87Z"/></g><path class="cls-2" d="M13.9,1a3.14,3.14,0,0,0-2.33-1A2.92,2.92,0,0,0,9.74.63,3.88,3.88,0,0,0,9,1.4,3.88,3.88,0,0,0,8.26.63,2.92,2.92,0,0,0,6.43,0,3.14,3.14,0,0,0,4.1,1,3.63,3.63,0,0,0,3.18,3.5,4.31,4.31,0,0,0,4.33,6.34,25.36,25.36,0,0,0,7.22,9.05c.4.35.86.73,1.33,1.15a.71.71,0,0,0,.9,0c.47-.42.93-.8,1.33-1.15a25.36,25.36,0,0,0,2.89-2.71A4.33,4.33,0,0,0,14.83,3.5,3.64,3.64,0,0,0,13.9,1ZM10.37,5.22H9.26V6.33a.26.26,0,1,1-.52,0V5.22H7.63A.27.27,0,0,1,7.36,5a.25.25,0,0,1,.08-.18.26.26,0,0,1,.19-.08H8.74V3.58A.26.26,0,0,1,9,3.32a.32.32,0,0,1,.19.07.32.32,0,0,1,.07.19V4.69h1.11a.27.27,0,1,1,0,.53Z"/><path class="cls-3" d="M10.64,5a.27.27,0,0,1-.27.27H9.26V6.33a.26.26,0,1,1-.52,0V5.22H7.63A.27.27,0,0,1,7.36,5a.25.25,0,0,1,.08-.18.26.26,0,0,1,.19-.08H8.74V3.58A.26.26,0,0,1,9,3.32a.32.32,0,0,1,.19.07.32.32,0,0,1,.07.19V4.69h1.11A.27.27,0,0,1,10.64,5Z"/></svg>