<svg id="Layer_1" data-name="Layer 1" xmlns="http://www.w3.org/2000/svg" viewBox="0 0 18 18"><defs><style>.cls-1,.cls-2{fill:#fff;}.cls-2,.cls-3{opacity:0.31;}</style></defs><title>ic_basket</title><path class="cls-1" d="M6.93,14.53A1.43,1.43,0,1,0,8.35,16,1.43,1.43,0,0,0,6.93,14.53ZM7.4,16v.08h0v0h0v0h0v0l0,0,0,0,0,0h0l0,0h0l0,0,0,0h0l0,0-.14,0H6.78a.35.35,0,0,1-.16-.08v0h0l-.08-.1v0l0-.07V16a0,0,0,0,1,0,0v-.2h0v0l0,0v0l0,0,0,0,0,0,.07-.06,0,0h0l0,0h.24l0,0h0a.09.09,0,0,1,.06,0h0l0,0h0v0l0,0,0,0s0,0,0,0h0l0,0h0v0h0V16Z"/><path class="cls-1" d="M13.64,14.53A1.43,1.43,0,1,0,15.07,16,1.43,1.43,0,0,0,13.64,14.53Zm.46,1.52v0a.4.4,0,0,1-.08.16l0,0v0l0,0h0l0,0-.11.05h-.33a.68.68,0,0,1-.21-.17h0v-.06h0s0,0,0,0v-.33h0v-.06h0l0,0h0a.21.21,0,0,1,.08-.06l0,0,0,0h0l.08,0h.26a.15.15,0,0,1,.07,0h0l0,0h0l0,0,0,.06h0l0,0h0l0,0h0v0h0a.34.34,0,0,1,0,.14A.31.31,0,0,1,14.1,16.05Z"/><path class="cls-1" d="M.56.62h.73V1.74H.56a.58.58,0,0,1-.19,0L.22,1.63.16,1.57A.55.55,0,0,1,0,1.18.58.58,0,0,1,.16.78.56.56,0,0,1,.56.62Z"/><polygon class="cls-1" points="3.59 2.85 2.45 2.85 2.22 1.74 1.17 1.74 1.17 0.62 3.12 0.62 3.36 1.74 3.59 2.85"/><path class="cls-1" d="M12.59,12.48H5L2.56,3.31h8.85S16.61,4.71,12.59,12.48Z"/><path class="cls-1" d="M12.34,12.94c-.2.36-.41.74-.65,1.12H5.19a.56.56,0,0,1-.56-.56.55.55,0,0,1,.16-.39.59.59,0,0,1,.4-.17Z"/><path class="cls-2" d="M6.93,16.43A.48.48,0,1,1,7.4,16,.47.47,0,0,1,6.93,16.43Z"/><path class="cls-2" d="M13.64,16.43a.48.48,0,1,1,0-.95.48.48,0,0,1,0,.95Z"/><g class="cls-3"><path class="cls-1" d="M15.94,13.5a.57.57,0,0,1-.17.4.56.56,0,0,1-.4.16H11.69c.24-.38.45-.76.65-1.12h3A.57.57,0,0,1,15.94,13.5Z"/><path class="cls-1" d="M18,3.31l-2.42,9.17h-3c4-7.77-1.18-9.17-1.18-9.17Z"/></g></svg>