<svg id="Layer_1" data-name="Layer 1" xmlns="http://www.w3.org/2000/svg" viewBox="0 0 18 18"><defs><style>.cls-1{fill:#fff;}.cls-2{opacity:0.31;}</style></defs><title>ic_partnership</title><path class="cls-1" d="M14.92,11.09a.62.62,0,0,1-.93.45c-.55-.31-1.08-.64-1.62-1-.11-.06-.22-.1-.3,0s0,.21.12.28c.27.16.55.32.81.49a.81.81,0,0,1,.27.25.59.59,0,0,1-.09.75.62.62,0,0,1-.75.12c-.45-.26-.89-.53-1.33-.8-.11-.06-.22-.09-.29,0s0,.2.11.27a5.08,5.08,0,0,1,.59.35.63.63,0,0,1,.18.87.64.64,0,0,1-.86.19l-1-.6c-.11-.07-.22-.08-.28,0s0,.2.11.25l.2.12a.63.63,0,1,1-.65,1.08L8.59,14c.14-.24.27-.48.4-.73a1,1,0,0,0-.48-1.31,3.07,3.07,0,0,0-.59-.12,1,1,0,0,0-.27-.94,1,1,0,0,0-1-.25,1,1,0,0,0-.57-1A1,1,0,0,0,5,9.8L4.9,9.61a1,1,0,0,0-1.68,0L3,10.11a4,4,0,0,0-.09-.48v0A1.44,1.44,0,0,0,2.32,9l2-4A1.84,1.84,0,0,0,6,5c.29-.18.56-.39.85-.57a.87.87,0,0,1,.32-.13h0a2,2,0,0,1,.47.15l-.59.5L5.48,6.24A.56.56,0,0,0,5.33,7a.79.79,0,0,0,.61.33A2.54,2.54,0,0,0,7.77,7,.86.86,0,0,1,8.88,7c1.28.81,2.58,1.57,3.88,2.35l1.83,1.08A.64.64,0,0,1,14.92,11.09Z"/><g class="cls-2"><path class="cls-1" d="M8.65,13.07l0,0c-.21.44-.54,1.27-1.17,1.08a.65.65,0,0,1-.39-.78,2.25,2.25,0,0,1,.72-1.16.63.63,0,0,1,1,.46A.72.72,0,0,1,8.65,13.07Z"/><path class="cls-1" d="M7.53,11.82c-.25.48-.53,1-.81,1.43a.6.6,0,0,1-.81.19.61.61,0,0,1-.28-.8c.27-.49.55-1,.84-1.46a.55.55,0,0,1,.45-.26A.63.63,0,0,1,7.53,11.82Z"/><path class="cls-1" d="M6.27,10.78c-.31.59-.65,1.17-1,1.74a.57.57,0,0,1-.44.29.64.64,0,0,1-.66-.88c.32-.6.66-1.19,1-1.77A.57.57,0,0,1,6,10,.59.59,0,0,1,6.27,10.78Z"/><path class="cls-1" d="M4.64,10.42,4,11.57a.59.59,0,0,1-.51.31.67.67,0,0,1-.59-.34.54.54,0,0,1,0-.62c.21-.37.43-.73.62-1.1a.62.62,0,0,1,.85-.24A.59.59,0,0,1,4.64,10.42Z"/><path class="cls-1" d="M15.67,9a1.86,1.86,0,0,0-.59.49l0,.06h0a1.13,1.13,0,0,0-.18.67l-.07,0c-.6-.37-1.21-.72-1.81-1.08l-1.68-1c-.86-.52-1.73-1-2.58-1.55a.6.6,0,0,0-.8,0c-.09.07-.2.11-.29.17A2.48,2.48,0,0,1,6.12,7a1.12,1.12,0,0,1-.36-.09c-.22-.09-.24-.26-.06-.42L8.22,4.39a.88.88,0,0,1,.57-.2h1.52a1.34,1.34,0,0,1,.82.26c.26.17.51.36.78.52a1.79,1.79,0,0,0,1.84,0Z"/><rect class="cls-1" x="15" y="3.74" width="1.97" height="5.3" transform="translate(-1.2 7.33) rotate(-24.92)"/></g><rect class="cls-1" x="1.09" y="3.74" width="1.97" height="5.3" transform="translate(1.05 13.02) rotate(-153.13)"/></svg>