<svg id="Layer_1" data-name="Layer 1" xmlns="http://www.w3.org/2000/svg" viewBox="0 0 18 13"><defs><style>.cls-1,.cls-2{fill:#fff;}.cls-1{opacity:0.3;}</style></defs><title>ico_locations_atm</title><path class="cls-1" d="M0,11V2A1.93,1.93,0,0,1,.59.59,1.93,1.93,0,0,1,2,0H16a1.93,1.93,0,0,1,1.41.59A1.93,1.93,0,0,1,18,2v9a2,2,0,0,1-2,2H2a1.93,1.93,0,0,1-1.41-.59A1.93,1.93,0,0,1,0,11Z"/><rect class="cls-2" y="2.62" width="18" height="3"/><path class="cls-1" d="M12,9a.88.88,0,0,1,1-1h2a.88.88,0,0,1,1,1,.88.88,0,0,1-1,1H13A.88.88,0,0,1,12,9Z"/></svg>