<svg id="Layer_1" data-name="Layer 1" xmlns="http://www.w3.org/2000/svg" viewBox="0 0 16 18"><defs><style>.cls-1,.cls-2{fill:#fff;}.cls-2{fill-rule:evenodd;opacity:0.3;}</style></defs><title>ico_locations_branch</title><path class="cls-1" d="M5.14,1.71a.86.86,0,0,0-.85.86v.86a.86.86,0,0,0,.85.86H6a.87.87,0,0,0,.86-.86V2.57A.87.87,0,0,0,6,1.71Zm4.29,0a.87.87,0,0,0-.86.86v.86a.87.87,0,0,0,.86.86h.86a.86.86,0,0,0,.85-.86V2.57a.86.86,0,0,0-.85-.86ZM5.14,5.14A.86.86,0,0,0,4.29,6v.86a.85.85,0,0,0,.85.85H6a.86.86,0,0,0,.86-.85V6A.87.87,0,0,0,6,5.14Zm4.43,0a1,1,0,0,0-1,1v.57a1,1,0,0,0,1,1h.57a1,1,0,0,0,1-1V6.14a1,1,0,0,0-1-1ZM5.14,8.57a.86.86,0,0,0-.85.86v.86a.85.85,0,0,0,.85.85H6a.86.86,0,0,0,.86-.85V9.43A.87.87,0,0,0,6,8.57Zm4.29,0a.87.87,0,0,0-.86.86v.86a.86.86,0,0,0,.86.85h.86a.85.85,0,0,0,.85-.85V9.43a.86.86,0,0,0-.85-.86Zm-3,7.72H1.71V1.71A1.72,1.72,0,0,1,3.43,0H12a1.71,1.71,0,0,1,1.71,1.71V16.28H9V13.71a.85.85,0,0,0-.86-.85H7.29a.85.85,0,0,0-.86.85v2.58Z"/><path class="cls-2" d="M.86,16.29H14.57a.86.86,0,0,1,.86.85v.35a.51.51,0,0,1-.52.51H.51A.51.51,0,0,1,0,17.49v-.35A.85.85,0,0,1,.86,16.29Z"/></svg>