<svg id="Layer_1" data-name="Layer 1" xmlns="http://www.w3.org/2000/svg" viewBox="0 0 18 18"><defs><style>.cls-1,.cls-2{fill:#fff;}.cls-1{opacity:0.31;}</style></defs><title>ic_atm</title><path class="cls-1" d="M12.5,0H4.35A1.56,1.56,0,0,0,3.24.46a1.54,1.54,0,0,0-.46,1.11A1.57,1.57,0,0,0,4.35,3.14h.92V1.25H6.8V3.14h5.7a1.57,1.57,0,0,0,1.57-1.57A1.57,1.57,0,0,0,12.5,0ZM11.39,2.81a.16.16,0,0,1-.16.16.15.15,0,0,1-.15-.16V2.48a.15.15,0,0,1,.15-.16.17.17,0,0,1,.16.16Z"/><path class="cls-2" d="M4.4,1.25h.87V13.92H5.14a.74.74,0,0,1-.74-.74Z"/><path class="cls-2" d="M6.8,1.25V13.92h4.53l.09-.09a.31.31,0,0,0,0-.44L9.3,11.27a1,1,0,0,1,1.44-1.44L11.91,11l.54.53V1.25Zm4.59,7.32a.16.16,0,0,1-.16.16.15.15,0,0,1-.15-.16V8.24a.15.15,0,0,1,.15-.15.21.21,0,0,1,.11,0,.16.16,0,0,1,.05.11Zm0-1a.16.16,0,0,1-.16.16.15.15,0,0,1-.15-.16V7.28a.15.15,0,0,1,.15-.15.21.21,0,0,1,.11,0,.16.16,0,0,1,.05.11Zm0-1a.16.16,0,0,1-.16.16.15.15,0,0,1-.15-.16V6.32a.15.15,0,0,1,.15-.15.15.15,0,0,1,.11,0,.16.16,0,0,1,.05.11Zm0-1a.16.16,0,0,1-.16.16.15.15,0,0,1-.15-.16V5.36a.15.15,0,0,1,.15-.15.15.15,0,0,1,.11,0,.16.16,0,0,1,.05.11Zm0-1a.16.16,0,0,1-.16.16.15.15,0,0,1-.15-.16V4.4a.15.15,0,0,1,.15-.15.15.15,0,0,1,.11,0,.16.16,0,0,1,.05.11Zm0-1a.16.16,0,0,1-.16.16.15.15,0,0,1-.15-.16V3.44a.15.15,0,0,1,.15-.16.17.17,0,0,1,.16.16Zm-.31-1.29a.15.15,0,0,1,.15-.16.17.17,0,0,1,.16.16v.33a.16.16,0,0,1-.16.16.15.15,0,0,1-.15-.16Z"/><path class="cls-1" d="M15.2,12.07,14.07,18H9.21L7.58,13.92h3a3.43,3.43,0,0,0-.41,2.92l.6-.19a2.78,2.78,0,0,1,.69-2.82.31.31,0,0,0,0-.44L9.3,11.27a1,1,0,0,1,1.44-1.44L11.91,11l.94.94.45-.45-.85-.84V5.47a1.25,1.25,0,0,1,1,.84l1.71,5.13A1.22,1.22,0,0,1,15.2,12.07Z"/></svg>