<svg xmlns="http://www.w3.org/2000/svg" width="250" height="66.766" viewBox="0 0 250 66.766"><defs><style>.a{fill:#c89d5e;}.b{fill:#00376a;}</style></defs><g transform="translate(-230.844 -240.203)"><path class="a" d="M259.732,240.2l-28.888,16.778.024,33.35,28.863,16.638,28.856-16.615V257ZM276.651,263l-16.186-9.421.005-11.237,25.9,15.073Zm-16.926,29.31-16.189-9.332-.013-17.854,9.768,5.618.005,6.567,6.422,3.7,6.422-3.7v-6.568l9.768-5.613v17.859Zm4.936-22.421v6.569l-4.942,2.845-4.944-2.85,0-6.568-10.509-6.045,15.463-8.981,15.446,8.989Zm-5.676-16.311-16.2,9.411-9.717-5.589,25.928-15.059Zm-16.942,10.694.013,18.707-9.709,5.636-.022-29.932Zm.755,19.987,16.187,9.332.005,11.24-25.9-14.934Zm17.667,9.332,16.182-9.318,9.722,5.647-25.9,14.912ZM277.389,283V264.286l9.718-5.585v29.941Z"/><g transform="translate(309.58 264.039)"><path class="b" d="M362.986,280.1h-2.1v18.625H373.47v-1.942H362.986Z" transform="translate(-360.883 -279.779)"/><path class="b" d="M410.136,290.29H420.3v-1.916H410.136v-6.359H421.5V280.1H408.033v18.625h13.6v-1.916H410.136Z" transform="translate(-379.485 -279.779)"/><path class="b" d="M465.59,279.57a9.437,9.437,0,0,0-9.525,9.633v.054a9.5,9.5,0,1,0,19-.054v-.053A9.348,9.348,0,0,0,465.59,279.57Zm7.29,9.686a7.316,7.316,0,0,1-7.29,7.636,7.406,7.406,0,0,1-7.344-7.69v-.053a7.317,7.317,0,0,1,7.291-7.636,7.4,7.4,0,0,1,7.343,7.69Z" transform="translate(-398.435 -279.57)"/><path class="b" d="M528.429,295.026,516.7,280.1h-1.969v18.625h2.049V283.451L528.8,298.724h1.676V280.1h-2.049Z" transform="translate(-421.578 -279.779)"/><path class="b" d="M582.318,290.928c0,4.071-2.182,6.146-5.614,6.146-3.565,0-5.694-2.262-5.694-6.279V280.1h-2.1v10.829c0,5.268,3.139,8.089,7.743,8.089,4.657,0,7.77-2.82,7.77-8.249V280.1h-2.1Z" transform="translate(-442.954 -279.779)"/><path class="b" d="M628.573,288.227c-4.1-.878-5.055-1.863-5.055-3.619v-.053c0-1.676,1.543-3.007,3.965-3.007a8.181,8.181,0,0,1,5.375,2.022l1.224-1.623a9.721,9.721,0,0,0-6.545-2.288c-3.539,0-6.121,2.155-6.121,5.082v.054c0,3.059,1.969,4.443,6.253,5.374,3.911.825,4.843,1.81,4.843,3.539v.054c0,1.835-1.651,3.166-4.151,3.166a8.87,8.87,0,0,1-6.386-2.634l-1.3,1.543a10.9,10.9,0,0,0,7.61,2.98c3.7,0,6.36-2.075,6.36-5.268V293.5C634.641,290.648,632.725,289.132,628.573,288.227Z" transform="translate(-463.376 -279.605)"/></g></g></svg>