<svg xmlns="http://www.w3.org/2000/svg" width="20" height="15.255" viewBox="0 0 20 15.255"><defs><style>.a,.b{fill-rule:evenodd;}.b{opacity:0.3;}</style></defs><g transform="translate(-2 -4.228)"><path class="a" d="M12,8H8a4,4,0,0,0-4,4v1a3,3,0,0,0,3,3v2a5,5,0,0,1-5-5V12A6,6,0,0,1,8,6h4V4.728a.5.5,0,0,1,.8-.4l2.857,2.134a.5.5,0,0,1,0,.8L12.8,9.384a.5.5,0,0,1-.8-.4Z"/><path class="b" d="M12.058,16H16a4,4,0,0,0,4-4V11a3,3,0,0,0-3-3V6a5,5,0,0,1,5,5v1a6,6,0,0,1-6,6H12.058v.983a.5.5,0,0,1-.8.4L8.4,17.263a.5.5,0,0,1,0-.8l2.857-2.134a.5.5,0,0,1,.8.4Z"/></g></svg>