<svg xmlns="http://www.w3.org/2000/svg" width="18" height="16" viewBox="0 0 18 16"><defs><style>.a,.b{fill:#1c64d2;}.a{opacity:0.3;}</style></defs><g transform="translate(446 198)"><path class="a" d="M-434.5-198h0a1.5,1.5,0,0,1,1.5,1.5v13a1.5,1.5,0,0,1-1.5,1.5h0a1.5,1.5,0,0,1-1.5-1.5v-13A1.5,1.5,0,0,1-434.5-198Z"/><path class="b" d="M-439.5-193h0a1.5,1.5,0,0,1,1.5,1.5v8a1.5,1.5,0,0,1-1.5,1.5h0a1.5,1.5,0,0,1-1.5-1.5v-8A1.5,1.5,0,0,1-439.5-193Z"/><path class="b" d="M-429.5-191h0a1.5,1.5,0,0,1,1.5,1.5v6a1.5,1.5,0,0,1-1.5,1.5h0a1.5,1.5,0,0,1-1.5-1.5v-6A1.5,1.5,0,0,1-429.5-191Z"/><path class="b" d="M-444.5-189h0a1.5,1.5,0,0,1,1.5,1.5v4a1.5,1.5,0,0,1-1.5,1.5h0a1.5,1.5,0,0,1-1.5-1.5v-4A1.5,1.5,0,0,1-444.5-189Z"/></g></svg>