<svg xmlns="http://www.w3.org/2000/svg" width="204" height="54.481" viewBox="0 0 204 54.481"><defs><style>.a{fill:#c89d5e;}.b{fill:#00376a;}</style></defs><g transform="translate(-230.844 -240.203)"><path class="a" d="M254.416,240.2l-23.572,13.691.02,27.214,23.552,13.577,23.546-13.558v-27.22Zm13.806,18.6-13.208-7.687,0-9.169,21.133,12.3Zm-13.812,23.917L241.2,275.11l-.011-14.569,7.97,4.584,0,5.359,5.241,3.021,5.241-3.017v-5.36l7.971-4.58v14.573Zm4.028-18.3v5.361l-4.033,2.322-4.034-2.326,0-5.359-8.576-4.933,12.618-7.328,12.6,7.335Zm-4.631-13.31-13.223,7.68-7.929-4.561,21.157-12.288Zm-13.825,8.727.011,15.265-7.922,4.6-.018-24.425Zm.616,16.31,13.209,7.615,0,9.172-21.138-12.186Zm14.416,7.615,13.2-7.6,7.933,4.608-21.133,12.168Zm13.81-8.648V259.855l7.93-4.557v24.432Z" transform="translate(0 0)"/><g transform="translate(295.092 259.653)"><path class="b" d="M362.6,280.1h-1.716v15.2h10.27v-1.585H362.6Z" transform="translate(-360.883 -279.838)"/><path class="b" d="M409.749,288.414h8.294v-1.563h-8.294v-5.189h9.271V280.1H408.033v15.2h11.1v-1.563h-9.38Z" transform="translate(-384.738 -279.838)"/><path class="b" d="M463.838,279.57a7.7,7.7,0,0,0-7.773,7.86v.044a7.751,7.751,0,1,0,15.5-.044v-.043A7.628,7.628,0,0,0,463.838,279.57Zm5.949,7.9a5.97,5.97,0,0,1-5.949,6.231,6.043,6.043,0,0,1-5.993-6.275v-.043a5.971,5.971,0,0,1,5.95-6.231,6.043,6.043,0,0,1,5.992,6.275Z" transform="translate(-409.039 -279.57)"/><path class="b" d="M525.908,292.279l-9.575-12.18h-1.607v15.2H516.4V282.834l9.814,12.463h1.367V280.1h-1.672Z" transform="translate(-438.717 -279.838)"/><path class="b" d="M579.851,288.936c0,3.322-1.781,5.015-4.581,5.015-2.909,0-4.646-1.846-4.646-5.124V280.1h-1.715v8.837c0,4.3,2.562,6.6,6.318,6.6,3.8,0,6.34-2.3,6.34-6.731V280.1h-1.716Z" transform="translate(-466.13 -279.838)"/><path class="b" d="M627.119,286.651c-3.344-.716-4.125-1.52-4.125-2.953v-.043c0-1.368,1.259-2.454,3.235-2.454a6.676,6.676,0,0,1,4.386,1.65l1-1.325a7.932,7.932,0,0,0-5.341-1.867c-2.888,0-4.995,1.759-4.995,4.147v.044c0,2.5,1.607,3.625,5.1,4.385,3.192.673,3.952,1.477,3.952,2.888v.044c0,1.5-1.347,2.583-3.387,2.583a7.238,7.238,0,0,1-5.211-2.15l-1.064,1.259a8.89,8.89,0,0,0,6.209,2.432c3.018,0,5.19-1.693,5.19-4.3v-.043C632.07,288.626,630.507,287.389,627.119,286.651Z" transform="translate(-492.318 -279.615)"/></g></g></svg>