<svg xmlns="http://www.w3.org/2000/svg" width="16" height="16" viewBox="0 0 16 16"><defs><style>.a,.b{fill:#1c64d2;}.b{opacity:0.3;}</style></defs><g transform="translate(-332 -7268)"><path class="a" d="M349.312,7274.9l-10.274,10.258a1.629,1.629,0,0,0,0,2.3h0a1.629,1.629,0,0,0,2.3,0h0l10.258-10.274a1.618,1.618,0,0,0,0-2.287h0A1.618,1.618,0,0,0,349.312,7274.9Z" transform="translate(-5.28 -5.213)"/><path class="b" d="M341.857,7274.929A2.928,2.928,0,1,1,338.93,7272,2.926,2.926,0,0,1,341.857,7274.929ZM352,7285.071a2.928,2.928,0,1,1-2.927-2.928A2.927,2.927,0,0,1,352,7285.071Z" transform="translate(-4 -4)"/></g></svg>