<svg xmlns="http://www.w3.org/2000/svg" width="20" height="20" viewBox="0 0 20 20"><defs><style>.a,.b{fill:#1c64d2;}.a{opacity:0.3;}</style></defs><g transform="translate(516 254)"><path class="a" d="M-514-254h6a2.006,2.006,0,0,1,2,2v8a2.006,2.006,0,0,1-2,2h-6a2.006,2.006,0,0,1-2-2v-8A2.006,2.006,0,0,1-514-254Z"/><path class="b" d="M-514-250h16a2.006,2.006,0,0,1,2,2v12a2.006,2.006,0,0,1-2,2h-16a2.006,2.006,0,0,1-2-2v-12A2.006,2.006,0,0,1-514-250Zm14,10a2.006,2.006,0,0,0,2-2,2.006,2.006,0,0,0-2-2,2.006,2.006,0,0,0-2,2A2.006,2.006,0,0,0-500-240Z"/></g></svg>