<svg xmlns="http://www.w3.org/2000/svg" width="18" height="17" viewBox="0 0 18 17"><defs><style>.a{opacity:0.3;}</style></defs><g transform="translate(-607 -7268)"><path class="a" d="M615.5,7296h1a1.5,1.5,0,0,1,1.5,1.5v2a1.5,1.5,0,0,1-1.5,1.5h-1a1.5,1.5,0,0,1-1.5-1.5v-2A1.5,1.5,0,0,1,615.5,7296Zm10,0h1a1.5,1.5,0,0,1,1.5,1.5v2a1.5,1.5,0,0,1-1.5,1.5h-1a1.5,1.5,0,0,1-1.5-1.5v-2A1.5,1.5,0,0,1,625.5,7296Z" transform="translate(-5 -16)"/><path d="M612,7272h14a2,2,0,0,1,2,2v11a2,2,0,0,1-2,2H612a2,2,0,0,1-2-2v-11A2,2,0,0,1,612,7272Zm10.5,11a3.5,3.5,0,1,0-3.5-3.5A3.5,3.5,0,0,0,622.5,7283Zm0-2a1.5,1.5,0,1,0-1.5-1.5A1.5,1.5,0,0,0,622.5,7281Zm-8.5-5h0a1,1,0,0,1,1,1v2a1,1,0,0,1-1,1h0a1,1,0,0,1-1-1v-2A1,1,0,0,1,614,7276Z" transform="translate(-3 -4)"/></g></svg>