<svg xmlns="http://www.w3.org/2000/svg" width="20.756" height="24" viewBox="0 0 20.756 24"><defs><style>.a{fill:#c89d5e;}</style></defs><path class="a" d="M241.228,240.2l-10.384,6.031.009,11.988,10.375,5.981,10.373-5.972V246.24Zm6.082,8.2-5.818-3.386,0-4.039,9.31,5.418Zm-6.084,10.536-5.819-3.355,0-6.418,3.511,2.02,0,2.361,2.309,1.331,2.309-1.329v-2.361l3.511-2.018v6.42ZM243,250.875v2.361l-1.776,1.023-1.777-1.024,0-2.361-3.778-2.173,5.558-3.228,5.552,3.231Zm-2.04-5.863-5.825,3.383-3.493-2.009,9.32-5.413Zm-6.09,3.844,0,6.724-3.49,2.026-.008-10.76Zm.271,7.185,5.819,3.354,0,4.04-9.312-5.368Zm6.351,3.354,5.817-3.349,3.495,2.03-9.31,5.36Zm6.083-3.81V248.86l3.493-2.008v10.763Z" transform="translate(-230.844 -240.203)"/></svg>