<svg xmlns="http://www.w3.org/2000/svg" width="16" height="16" viewBox="0 0 16 16"><path d="M15.206,16a.782.782,0,0,1-.577-.234l-4.812-4.8a.21.21,0,0,0-.045-.1.242.242,0,0,1-.051-.122,6.044,6.044,0,0,1-7.952-.5,5.974,5.974,0,0,1,0-8.485A6.055,6.055,0,0,1,6.063,0a6.007,6.007,0,0,1,4.715,9.677.253.253,0,0,1,.107.079.474.474,0,0,0,.086.079l4.812,4.8a.847.847,0,0,1,0,1.132A.782.782,0,0,1,15.206,16ZM6.063,1.6A4.367,4.367,0,0,0,1.636,6a4.366,4.366,0,0,0,4.427,4.4A4.269,4.269,0,0,0,9.131,9.111a4.464,4.464,0,0,0,0-6.223A4.268,4.268,0,0,0,6.063,1.6Z"/></svg>