<svg xmlns="http://www.w3.org/2000/svg" width="18.39" height="15.557" viewBox="0 0 18.39 15.557"><defs><style>.a{fill:#223063;}</style></defs><path class="a" d="M21.445-17.791a8.851,8.851,0,0,1-2.378,6.626C17.348-9.437,14.776-9.137,11.7-9v4.307a.75.75,0,0,1-.75.75.75.75,0,0,1-.5-.195l-7.14-6.478a.75.75,0,0,1-.052-1.059q.022-.024.046-.046l7.14-6.612a.75.75,0,0,1,1.06.041.75.75,0,0,1,.2.51V-13.5a16.561,16.561,0,0,0,4.608-.58q2.73-.869,4.22-4.928h0a.75.75,0,0,1,.7-.492h.218C21.45-19.007,21.445-18.226,21.445-17.791Z" transform="translate(21.45 -3.943) rotate(180)"/></svg>