<svg xmlns="http://www.w3.org/2000/svg" width="20" height="19.976" viewBox="0 0 20 19.976"><defs><style>.a,.b{fill:#fff;}.b{opacity:0.3;}</style></defs><g transform="translate(-0.982 -1)"><path class="a" d="M19.489,13.587a6.5,6.5,0,0,0-1.866-4.248l1.14-2.185a3.767,3.767,0,0,0-3.8.31A8.585,8.585,0,0,0,10.254,6.4,10.269,10.269,0,0,0,3.268,8.981L1.648,7.76l-.666.371.808,2.791-.262.443A6.049,6.049,0,0,0,1.006,13.8a6.79,6.79,0,0,0,2.916,5.384l-.7,3.6h3.7l.714-1.888a11.41,11.41,0,0,0,4.548.14l.658,1.749h3.7l-.611-3.151a8.021,8.021,0,0,0,2.636-2.609l1.488.477.925-3.552Zm-3.833.765a1.526,1.526,0,0,1-1.333-1.664,1.528,1.528,0,0,1,1.333-1.665,1.527,1.527,0,0,1,1.33,1.665A1.525,1.525,0,0,1,15.656,14.352Z" transform="translate(0 -1.804)"/><path class="b" d="M12.258,3.273c.421,0,.82.01,1.206.034A3.32,3.32,0,0,0,6.982,4.329c0,.036.009.069.011.1A12.309,12.309,0,0,1,12.258,3.273Z" transform="translate(-2.005)"/></g></svg>
