<svg xmlns="http://www.w3.org/2000/svg" width="20" height="17.946" viewBox="0 0 20 17.946"><defs><style>.a,.b{fill:#223063;}.b{opacity:0.3;}</style></defs><g transform="translate(-75.652 -20.556)"><path class="a" d="M93.508,38.743a41.318,41.318,0,0,1-6.1,1.436c-.722.051-3.779-1.89-4.194-2.15.208-.64.551-.564,1.111-.29.71.346,2.153,1.181,2.623,1.424.925.479,2.5-.92.807-2.056-1.422-.956-3.086-2.36-4.654-2.744a10.389,10.389,0,0,0-3.829.529,24.464,24.464,0,0,1-3.62.949v6.22l4.151.188s5.724,1.374,7.1,1.268a35.393,35.393,0,0,0,7.681-2.508C96.474,40.139,95.7,38.09,93.508,38.743Z" transform="translate(0 -5.021)"/><path class="b" d="M100.394,24.838A2.141,2.141,0,1,0,98.253,22.7,2.141,2.141,0,0,0,100.394,24.838Z" transform="translate(-8.248)"/><path class="a" d="M99.807,36.922a2.141,2.141,0,1,0-2.141-2.141A2.141,2.141,0,0,0,99.807,36.922Z" transform="translate(-8.034 -4.41)"/><path class="b" d="M92.41,32.247a2.141,2.141,0,1,0-2.141-2.141A2.141,2.141,0,0,0,92.41,32.247Z" transform="translate(-5.335 -2.704)"/></g></svg>
