<svg xmlns="http://www.w3.org/2000/svg" preserveAspectRatio="none" viewBox="0 0 300.999 733"><defs><style>.a{fill:#fff;stroke:rgba(0,0,0,0);}</style></defs><path class="a" d="M-162-2304h-6a4.492,4.492,0,0,0-1.173-3.062,3.824,3.824,0,0,0-2.827-1.27,4.181,4.181,0,0,0-4,4.332h-6a4.492,4.492,0,0,0-1.173-3.062,3.825,3.825,0,0,0-2.827-1.27,4.181,4.181,0,0,0-4,4.332h-6a4.492,4.492,0,0,0-1.173-3.062,3.824,3.824,0,0,0-2.827-1.27,4.181,4.181,0,0,0-4,4.332h-6a4.491,4.491,0,0,0-1.173-3.062,3.825,3.825,0,0,0-2.827-1.27,4.181,4.181,0,0,0-4,4.332h-6a4.492,4.492,0,0,0-1.173-3.062,3.824,3.824,0,0,0-2.827-1.27,4.181,4.181,0,0,0-4,4.332h-6a4.491,4.491,0,0,0-1.173-3.062,3.825,3.825,0,0,0-2.827-1.27,4.181,4.181,0,0,0-4,4.332h-6a4.492,4.492,0,0,0-1.173-3.062,3.824,3.824,0,0,0-2.827-1.27,4.181,4.181,0,0,0-4,4.332h-6a4.491,4.491,0,0,0-1.173-3.062,3.825,3.825,0,0,0-2.827-1.27,4.181,4.181,0,0,0-4,4.332h-6a4.492,4.492,0,0,0-1.173-3.062,3.824,3.824,0,0,0-2.827-1.27,4.181,4.181,0,0,0-4,4.332h-6a4.492,4.492,0,0,0-1.173-3.062,3.824,3.824,0,0,0-2.827-1.27,4.181,4.181,0,0,0-4,4.332h-6a4.491,4.491,0,0,0-1.173-3.062,3.825,3.825,0,0,0-2.827-1.27,4.181,4.181,0,0,0-4,4.332h-6a4.492,4.492,0,0,0-1.173-3.062,3.824,3.824,0,0,0-2.827-1.27,4.181,4.181,0,0,0-4,4.332h-6a4.492,4.492,0,0,0-1.173-3.062,3.825,3.825,0,0,0-2.827-1.27,4.181,4.181,0,0,0-4,4.332h-6a4.492,4.492,0,0,0-1.173-3.062,3.824,3.824,0,0,0-2.827-1.27,4.181,4.181,0,0,0-4,4.332h-6a4.491,4.491,0,0,0-1.173-3.062,3.825,3.825,0,0,0-2.827-1.27,4.181,4.181,0,0,0-4,4.332h-6a4.492,4.492,0,0,0-1.173-3.062,3.824,3.824,0,0,0-2.827-1.27,4.181,4.181,0,0,0-4,4.332h-6a4.491,4.491,0,0,0-1.173-3.062,3.825,3.825,0,0,0-2.827-1.27,4.181,4.181,0,0,0-4,4.332h-6a4.492,4.492,0,0,0-1.173-3.062,3.824,3.824,0,0,0-2.827-1.27,4.181,4.181,0,0,0-4,4.332h-6a4.492,4.492,0,0,0-1.173-3.062,3.824,3.824,0,0,0-2.827-1.27,4.181,4.181,0,0,0-4,4.332c-3.86,0-7-3.887-7-8.663v-714.674c0-4.776,3.139-8.662,7-8.662a4.186,4.186,0,0,0,4,4.331,4.18,4.18,0,0,0,4-4.331h6a4.491,4.491,0,0,0,1.173,3.061,3.826,3.826,0,0,0,2.827,1.27,4.18,4.18,0,0,0,4-4.331h6a4.491,4.491,0,0,0,1.173,3.061,3.825,3.825,0,0,0,2.827,1.27,4.18,4.18,0,0,0,4-4.331h6a4.491,4.491,0,0,0,1.173,3.061,3.826,3.826,0,0,0,2.827,1.27,4.18,4.18,0,0,0,4-4.331h6a4.491,4.491,0,0,0,1.173,3.061,3.825,3.825,0,0,0,2.827,1.27,4.18,4.18,0,0,0,4-4.331h6a4.491,4.491,0,0,0,1.173,3.061,3.826,3.826,0,0,0,2.827,1.27,4.18,4.18,0,0,0,4-4.331h6a4.492,4.492,0,0,0,1.173,3.061,3.825,3.825,0,0,0,2.827,1.27,4.18,4.18,0,0,0,4-4.331h6a4.491,4.491,0,0,0,1.173,3.061,3.826,3.826,0,0,0,2.827,1.27,4.18,4.18,0,0,0,4-4.331h6a4.492,4.492,0,0,0,1.173,3.061,3.825,3.825,0,0,0,2.827,1.27,4.18,4.18,0,0,0,4-4.331h6a4.492,4.492,0,0,0,1.173,3.061,3.825,3.825,0,0,0,2.827,1.27,4.18,4.18,0,0,0,4-4.331h6a4.491,4.491,0,0,0,1.173,3.061,3.826,3.826,0,0,0,2.827,1.27,4.18,4.18,0,0,0,4-4.331h6a4.491,4.491,0,0,0,1.173,3.061,3.825,3.825,0,0,0,2.827,1.27,4.18,4.18,0,0,0,4-4.331h6a4.491,4.491,0,0,0,1.173,3.061,3.826,3.826,0,0,0,2.827,1.27,4.18,4.18,0,0,0,4-4.331h6a4.492,4.492,0,0,0,1.173,3.061,3.825,3.825,0,0,0,2.827,1.27,4.18,4.18,0,0,0,4-4.331h6a4.491,4.491,0,0,0,1.173,3.061,3.826,3.826,0,0,0,2.827,1.27,4.18,4.18,0,0,0,4-4.331h6a4.492,4.492,0,0,0,1.173,3.061,3.825,3.825,0,0,0,2.827,1.27,4.18,4.18,0,0,0,4-4.331h6a4.491,4.491,0,0,0,1.173,3.061,3.826,3.826,0,0,0,2.827,1.27,4.18,4.18,0,0,0,4-4.331h6a4.492,4.492,0,0,0,1.173,3.061,3.825,3.825,0,0,0,2.827,1.27,4.18,4.18,0,0,0,4-4.331h6a4.491,4.491,0,0,0,1.173,3.061,3.825,3.825,0,0,0,2.827,1.27,4.18,4.18,0,0,0,4-4.331h6a4.491,4.491,0,0,0,1.173,3.061,3.826,3.826,0,0,0,2.827,1.27,4.18,4.18,0,0,0,4-4.331h6a4.492,4.492,0,0,0,1.173,3.061,3.825,3.825,0,0,0,2.827,1.27,3.826,3.826,0,0,0,2.719-1.154,4.461,4.461,0,0,0,1.269-2.823,7.242,7.242,0,0,1,3.593,3.078,9.99,9.99,0,0,1,1.419,5.231v714.674a9.99,9.99,0,0,1-1.419,5.231,7.244,7.244,0,0,1-3.593,3.078,4.462,4.462,0,0,0-1.269-2.824,3.826,3.826,0,0,0-2.719-1.154,4.181,4.181,0,0,0-4,4.331h-6a4.492,4.492,0,0,0-1.173-3.062,3.824,3.824,0,0,0-2.827-1.27,4.181,4.181,0,0,0-4,4.332Z" transform="translate(435.5 3036.501)"/></svg>
