<svg xmlns="http://www.w3.org/2000/svg" width="14" height="20" viewBox="0 0 14 20"><defs><style>.a,.b,.c{fill:#fff;}.a,.b{fill-rule:evenodd;}.a{opacity:0.3;}</style></defs><g transform="translate(-4 -1)"><path class="a" d="M7.5,3v.455A1.339,1.339,0,0,0,8.813,4.818h4.375A1.339,1.339,0,0,0,14.5,3.455V3h1.75A1.785,1.785,0,0,1,18,4.818V19.364a1.785,1.785,0,0,1-1.75,1.818H5.75A1.785,1.785,0,0,1,4,19.364V4.818A1.785,1.785,0,0,1,5.75,3Z" transform="translate(0 -0.182)"/><path class="b" d="M10.75,1.909a.876.876,0,1,1,1.75,0h1.313a.446.446,0,0,1,.438.455v.909a.446.446,0,0,1-.437.455H9.438A.446.446,0,0,1,9,3.273V2.364a.446.446,0,0,1,.438-.455Z" transform="translate(-0.625)"/><rect class="c" width="6.125" height="1.818" rx="0.909" transform="translate(9.25 8.273)"/><rect class="c" width="1.75" height="1.818" rx="0.875" transform="translate(6.625 8.273)"/><rect class="c" width="1.75" height="1.818" rx="0.875" transform="translate(6.625 11.909)"/><rect class="c" width="6.125" height="1.818" rx="0.909" transform="translate(9.25 11.909)"/><rect class="c" width="1.75" height="1.818" rx="0.875" transform="translate(6.625 15.545)"/><rect class="c" width="6.125" height="1.818" rx="0.909" transform="translate(9.25 15.545)"/></g></svg>