<svg xmlns="http://www.w3.org/2000/svg" width="16.364" height="18" viewBox="0 0 16.364 18">
  <g id="ico_podijeli_datoteku" transform="translate(-4 -2)">
    <path id="Combined-Shape" d="M21.54,21.213l-5.961-3.43a3.269,3.269,0,0,0,.838-1.451l5.92,3.438A3.267,3.267,0,0,0,21.54,21.213ZM15.512,13.1,21.5,9.575a3.262,3.262,0,0,0,.746,1.511L16.419,14.63A3.271,3.271,0,0,0,15.512,13.1Z" transform="translate(-6.802 -4.476)" fill="#fff"/>
    <circle id="Oval-77" cx="2.455" cy="2.455" r="2.455" transform="translate(15.455 2)" fill="#fff" opacity="0.3"/>
    <circle id="Oval-77-Copy" cx="2.455" cy="2.455" r="2.455" transform="translate(15.455 15.091)" fill="#fff" opacity="0.3"/>
    <circle id="Oval-77-Copy-2" cx="2.455" cy="2.455" r="2.455" transform="translate(4 8.545)" fill="#fff" opacity="0.3"/>
  </g>
</svg>
