<svg xmlns="http://www.w3.org/2000/svg" width="19" height="14" viewBox="0 0 19 14"><defs><style>.a{fill-rule:evenodd; fill: white}.b{fill:#ff6161;}</style></defs><g transform="translate(-3 -6)"><path class="a" d="M21,12.083A6.005,6.005,0,0,0,14.083,19H5a2,2,0,0,1-2-2V8A2,2,0,0,1,5,6H19a2,2,0,0,1,2,2ZM18.144,7.84,12,11.148,5.856,7.84A.75.75,0,0,0,5.144,9.16l6.5,3.5a.75.75,0,0,0,.711,0l6.5-3.5a.75.75,0,0,0-.711-1.321Z"/><circle class="b" cx="2.5" cy="2.5" r="2.5" transform="translate(17 15)"/></g></svg>
