<svg xmlns="http://www.w3.org/2000/svg" width="14.584" height="14.167" viewBox="0 0 14.584 14.167"><defs><style>.a{fill:#fff;}</style></defs><path class="a" d="M14.167,14.167H12.083a.417.417,0,0,1-.416-.417V8.984A1.668,1.668,0,0,0,10,7.292a1.644,1.644,0,0,0-.284.025A1.722,1.722,0,0,0,8.333,9.05v4.7a.417.417,0,0,1-.416.417H5.833a.417.417,0,0,1-.417-.417V5.417A.417.417,0,0,1,5.833,5H7.917a.417.417,0,0,1,.416.416v.35a3.717,3.717,0,0,1,3.292-.892,3.841,3.841,0,0,1,2.958,3.8V13.75A.417.417,0,0,1,14.167,14.167Zm-11.25,0H.833a.417.417,0,0,1-.416-.417V5.417A.417.417,0,0,1,.833,5H2.917a.417.417,0,0,1,.416.416V13.75A.417.417,0,0,1,2.917,14.167ZM1.666,3.333A1.667,1.667,0,1,1,3.333,1.666,1.668,1.668,0,0,1,1.666,3.333Z"/></svg>