<svg xmlns="http://www.w3.org/2000/svg" width="15.446" height="14.997" viewBox="0 0 15.446 14.997"><defs><style>.a,.b{fill:#fff;}.a{fill-rule:evenodd;}.b{opacity:0.3;}</style></defs><g transform="translate(-2.062 -1.646)"><path class="a" d="M11.8,13.126l1.837-1.837a1.667,1.667,0,0,0,.312-1.924l-.1-.208a1.667,1.667,0,0,1,.312-1.924l2.277-2.277a.417.417,0,0,1,.667.108l.92,1.84a3.656,3.656,0,0,1-.685,4.22l-5,5a4.523,4.523,0,0,1-4.628,1.093L5.7,16.545a.417.417,0,0,1-.163-.69l2.209-2.209a1.667,1.667,0,0,1,1.924-.312l.208.1A1.667,1.667,0,0,0,11.8,13.126Z" transform="translate(-0.902 -0.806)"/><path class="b" d="M12.2,5.335l-.159,1.659a4.167,4.167,0,0,0-4.55,4.537l-1.659.155A5.834,5.834,0,0,1,12.2,5.335Zm.292-3.321-.154,1.66a7.5,7.5,0,0,0-8.167,8.157l-1.66.152a9.167,9.167,0,0,1,9.981-9.969Z" transform="translate(-0.412 -0.329)"/></g></svg>