<svg xmlns="http://www.w3.org/2000/svg" width="16.667" height="14.167" viewBox="0 0 16.667 14.167"><defs><style>.a{fill:#fff;}</style></defs><path class="a" d="M16.642,2.053A6.658,6.658,0,0,1,15.1,3.535v.458A10.154,10.154,0,0,1,4.81,14.166,10.181,10.181,0,0,1,.275,13.117a.208.208,0,0,1-.125-.191v-.092a.216.216,0,0,1,.216-.216,7.37,7.37,0,0,0,4.26-1.532A3.636,3.636,0,0,1,1.39,8.954a.216.216,0,0,1,.216-.3,3.327,3.327,0,0,0,1.265-.117A3.629,3.629,0,0,1,0,5.366.216.216,0,0,1,.3,5.15a3.327,3.327,0,0,0,1.315.283A3.564,3.564,0,0,1,.192,1.321a.449.449,0,0,1,.757-.15,10.282,10.282,0,0,0,7,3.23,3.331,3.331,0,0,1-.1-.832A3.628,3.628,0,0,1,14.1,1.121,7.228,7.228,0,0,0,16.085.43a.141.141,0,0,1,.15,0,.142.142,0,0,1,0,.15A3.637,3.637,0,0,1,14.77,2.245a7.136,7.136,0,0,0,1.664-.4.133.133,0,0,1,.15,0,.142.142,0,0,1,.058.208Z"/></svg>