<?xml version="1.0" encoding="UTF-8"?>
<svg xmlns="http://www.w3.org/2000/svg" xmlns:xlink="http://www.w3.org/1999/xlink" width="584.629pt" height="185.29pt" viewBox="0 0 584.629 185.29" version="1.1">
<g id="surface1">
<path style=" stroke:none;fill-rule:evenodd;fill:rgb(0%,28.999329%,56.498718%);fill-opacity:1;" d="M 199.253906 74.886719 C 205.679688 74.886719 210.914063 69.886719 210.914063 63.34375 C 210.914063 57.269531 205.914063 52.152344 199.730469 52.152344 C 193.183594 52.152344 188.421875 57.511719 188.421875 63.9375 C 188.421875 69.652344 193.421875 74.886719 199.253906 74.886719 "/>
<path style=" stroke:none;fill-rule:nonzero;fill:rgb(0%,28.999329%,56.498718%);fill-opacity:1;" d="M 483.242188 84.996094 L 483.242188 77.425781 C 483.242188 77.03125 482.914063 76.707031 482.519531 76.714844 C 480.234375 76.761719 478.152344 76.957031 476.328125 77.292969 C 474.238281 77.679688 472.296875 78.476563 470.554688 79.667969 C 468.820313 80.851563 467.328125 82.644531 466.117188 84.992188 L 465.414063 86.359375 L 465.414063 77.710938 C 465.414063 77.191406 464.878906 76.871094 464.398438 77.082031 C 463.800781 77.347656 463.164063 77.503906 462.503906 77.554688 C 461.757813 77.609375 456.464844 77.757813 453.480469 77.839844 C 452.847656 77.855469 452.578125 78.636719 453.046875 79.058594 C 453.851563 79.785156 454.414063 80.582031 454.730469 81.4375 C 455.261719 82.871094 455.519531 85.070313 455.519531 88.164063 L 455.519531 121.445313 C 455.519531 123.660156 455.265625 125.53125 454.761719 127 C 454.464844 127.871094 453.921875 128.664063 453.144531 129.378906 C 452.683594 129.804688 453.015625 130.582031 453.644531 130.582031 L 467.5625 130.582031 C 468.214844 130.582031 468.503906 129.78125 468.019531 129.351563 C 467.214844 128.628906 466.636719 127.851563 466.289063 127.019531 C 465.710938 125.621094 465.414063 123.671875 465.414063 121.21875 L 465.414063 100.558594 C 465.414063 96.519531 466.046875 93.167969 467.289063 90.601563 C 468.554688 87.992188 470.46875 86.269531 472.976563 85.484375 C 475.09375 85.015625 476.675781 84.789063 477.84375 84.789063 C 479.65625 84.789063 481.128906 85.074219 482.246094 85.644531 C 482.703125 85.878906 483.242188 85.511719 483.242188 84.996094 "/>
<path style=" stroke:none;fill-rule:nonzero;fill:rgb(0%,28.999329%,56.498718%);fill-opacity:1;" d="M 529.058594 119.078125 C 526.097656 122.847656 521.664063 124.871094 515.875 125.101563 C 515.59375 125.101563 515.34375 125.175781 515.097656 125.328125 L 515.003906 125.390625 L 514.886719 125.386719 C 511.539063 125.269531 508.460938 124.171875 505.730469 122.117188 C 503.015625 120.070313 500.84375 117.304688 499.277344 113.890625 C 497.714844 110.484375 496.921875 106.773438 496.921875 102.851563 C 496.960938 98.125 497.980469 94.25 499.960938 91.339844 C 501.933594 88.429688 504.273438 86.371094 506.910156 85.214844 C 509.527344 84.070313 512.128906 83.414063 514.652344 83.261719 L 514.65625 83.261719 C 518.476563 83.261719 521.832031 84.324219 524.660156 86.414063 C 527.472656 88.496094 529.671875 91.277344 531.199219 94.675781 C 532.726563 98.0625 533.496094 101.707031 533.496094 105.507813 C 533.496094 110.769531 532.003906 115.335938 529.058594 119.078125 M 542.296875 114.863281 C 543.890625 111.433594 544.695313 107.726563 544.695313 103.84375 C 544.695313 99.804688 543.90625 96.019531 542.351563 92.589844 C 540.796875 89.164063 538.65625 86.234375 535.992188 83.886719 C 533.320313 81.53125 530.246094 79.6875 526.851563 78.40625 C 523.457031 77.128906 519.835938 76.480469 516.089844 76.480469 C 511.035156 76.589844 506.546875 77.445313 502.757813 79.023438 C 498.980469 80.601563 495.796875 82.769531 493.296875 85.472656 C 490.792969 88.179688 488.921875 91.167969 487.738281 94.351563 C 486.550781 97.539063 485.914063 100.925781 485.839844 104.410156 C 485.839844 109.15625 486.988281 113.695313 489.246094 117.898438 C 491.503906 122.101563 494.875 125.539063 499.269531 128.113281 C 503.660156 130.691406 508.917969 131.996094 514.898438 131.996094 C 518.757813 131.996094 522.539063 131.273438 526.140625 129.84375 C 529.738281 128.414063 532.964844 126.402344 535.730469 123.859375 C 538.496094 121.316406 540.703125 118.292969 542.296875 114.863281 "/>
<path style=" stroke:none;fill-rule:nonzero;fill:rgb(0%,28.999329%,56.498718%);fill-opacity:1;" d="M 429.621094 128.757813 C 433.585938 126.609375 436.84375 123.574219 439.308594 119.738281 C 441.773438 115.90625 443.214844 111.519531 443.585938 106.695313 C 443.660156 106.023438 443.695313 105.027344 443.695313 103.722656 C 443.695313 98.304688 442.539063 93.5 440.265625 89.445313 C 437.984375 85.394531 434.890625 82.203125 431.0625 79.964844 C 427.230469 77.726563 423.035156 76.554688 418.59375 76.480469 C 414.585938 76.480469 410.6875 77.191406 407.015625 78.59375 C 403.367188 79.984375 398.074219 85.613281 398.074219 85.613281 L 398.074219 77.738281 C 398.074219 77.257813 397.597656 76.902344 397.144531 77.074219 C 395.734375 77.605469 393.539063 77.949219 390.503906 78.121094 C 389.496094 78.015625 388.042969 77.945313 386.140625 77.914063 C 385.484375 77.902344 385.1875 78.691406 385.660156 79.144531 C 386.460938 79.902344 387.039063 80.78125 387.390625 81.765625 C 387.988281 83.425781 388.292969 85.578125 388.292969 88.175781 L 388.292969 145.671875 C 388.292969 148.890625 387.378906 151.394531 385.566406 153.152344 C 385.117188 153.59375 385.425781 154.355469 386.054688 154.355469 L 400.105469 154.355469 C 400.742188 154.355469 401.074219 153.558594 400.59375 153.132813 C 400.121094 152.714844 399.742188 152.285156 399.464844 151.84375 C 398.847656 150.875 398.460938 149.660156 398.304688 148.234375 C 398.152344 146.851563 398.074219 144.546875 398.074219 141.378906 L 398.074219 98.679688 C 398.074219 94.902344 399.574219 91.472656 402.535156 88.488281 C 405.492188 85.511719 409.589844 83.941406 414.714844 83.828125 C 419.972656 83.828125 424.316406 85.777344 427.632813 89.628906 C 430.9375 93.464844 432.613281 98.585938 432.613281 104.859375 C 432.613281 106.28125 432.574219 107.367188 432.496094 108.167969 C 431.964844 113.777344 429.96875 118.023438 426.570313 120.785156 C 423.1875 123.535156 418.972656 124.988281 414.050781 125.101563 C 410.480469 124.914063 407.304688 124.300781 404.5625 123.273438 C 403.925781 123.03125 403.347656 123.71875 403.710938 124.296875 L 407.527344 130.402344 C 407.621094 130.550781 407.769531 130.664063 407.941406 130.714844 C 415.757813 132.941406 423.207031 132.234375 429.621094 128.757813 "/>
<path style=" stroke:none;fill-rule:evenodd;fill:rgb(0%,28.999329%,56.498718%);fill-opacity:1;" d="M 158.199219 70.644531 L 158.199219 70.625 L 158.203125 70.625 C 158.203125 67.4375 157.988281 64.140625 158.523438 61.121094 C 158.917969 58.898438 159.710938 56.851563 161.261719 55.144531 C 161.59375 54.730469 161.351563 54.101563 160.777344 54.101563 L 134.820313 54.101563 C 134.257813 54.097656 134.019531 54.78125 134.34375 55.136719 C 137.566406 58.660156 137.496094 63.609375 137.421875 68.457031 C 137.414063 69.0625 137.40625 69.671875 137.40625 70.527344 L 137.40625 115.078125 L 137.402344 115.078125 C 137.402344 118.203125 137.617188 121.421875 137.078125 124.417969 C 136.6875 126.605469 135.894531 128.625 134.355469 130.316406 C 133.972656 130.804688 134.332031 131.367188 134.820313 131.367188 L 176.417969 131.367188 C 183.871094 131.332031 185.035156 125.746094 185.046875 113.5625 C 185.105469 113.140625 184.496094 112.613281 183.96875 113.082031 C 179.695313 116.628906 177.054688 117.410156 170.765625 117.402344 L 158.832031 117.382813 C 158.546875 117.375 158.210938 117.160156 158.199219 116.75 L 158.199219 70.644531 "/>
<path style=" stroke:none;fill-rule:evenodd;fill:rgb(0%,28.999329%,56.498718%);fill-opacity:1;" d="M 188.175781 78.949219 C 190.710938 81.925781 190.753906 84.949219 190.734375 89.191406 L 190.730469 90.355469 L 190.734375 90.355469 L 190.734375 118.921875 L 190.730469 118.921875 L 190.734375 120.035156 C 190.753906 124.226563 190.800781 127.253906 188.230469 130.3125 C 187.855469 130.757813 188.164063 131.367188 188.691406 131.367188 L 212.054688 131.367188 C 212.527344 131.371094 212.933594 130.8125 212.527344 130.308594 C 209.957031 127.253906 210.011719 124.226563 210.03125 120.039063 L 210.03125 77.210938 C 210.03125 76.816406 209.65625 76.429688 209.144531 76.628906 C 207.058594 77.445313 204.703125 77.875 202.230469 77.910156 L 188.660156 77.910156 C 188.175781 77.910156 187.820313 78.472656 188.175781 78.949219 "/>
<path style=" stroke:none;fill-rule:evenodd;fill:rgb(0%,28.999329%,56.498718%);fill-opacity:1;" d="M 239.828125 76.621094 C 237.480469 77.523438 235.039063 77.914063 232.523438 77.914063 L 219.3125 77.914063 C 218.871094 77.910156 218.464844 78.429688 218.832031 78.941406 C 221.421875 82.007813 221.40625 85.042969 221.386719 89.242188 L 221.386719 120.058594 C 221.40625 124.308594 221.421875 127.339844 218.886719 130.316406 C 218.492188 130.792969 218.871094 131.367188 219.351563 131.367188 L 242.710938 131.367188 C 243.296875 131.359375 243.53125 130.699219 243.179688 130.308594 C 240.65625 127.332031 240.664063 124.308594 240.6875 120.0625 L 240.6875 98.347656 C 240.679688 95.714844 240.671875 92.523438 242.476563 90.21875 L 242.488281 90.199219 L 242.492188 90.195313 C 242.671875 89.945313 242.875 89.703125 243.089844 89.484375 C 243.3125 89.25 243.554688 89.035156 243.800781 88.835938 L 243.804688 88.839844 C 245.09375 87.820313 246.753906 87.21875 248.351563 87.21875 L 248.351563 87.214844 L 248.355469 87.214844 L 248.355469 87.21875 C 249.710938 87.21875 251.035156 87.539063 252.191406 88.152344 C 252.386719 88.253906 252.578125 88.363281 252.753906 88.476563 C 253.675781 89.070313 254.476563 89.859375 255.074219 90.824219 C 255.964844 92.046875 256.414063 93.386719 256.632813 94.765625 C 256.851563 96.117188 256.851563 97.480469 256.851563 98.808594 L 256.851563 118.921875 C 256.871094 123.28125 257.179688 127.003906 254.339844 130.3125 C 253.945313 130.808594 254.328125 131.367188 254.792969 131.367188 L 278.1875 131.367188 C 278.597656 131.375 279.066406 130.859375 278.648438 130.3125 C 276.117188 127.332031 276.128906 124.308594 276.148438 120.058594 L 276.152344 118.921875 L 276.148438 118.921875 L 276.148438 99.28125 L 276.152344 99.28125 L 276.15625 97.960938 C 276.179688 92.351563 276.199219 87.5 272.257813 82.921875 C 270.136719 80.453125 267.636719 78.8125 264.894531 77.796875 C 262.128906 76.769531 259.109375 76.359375 255.96875 76.359375 L 255.96875 76.367188 L 255.960938 76.367188 L 255.960938 76.359375 C 253.011719 76.363281 250.300781 76.824219 247.910156 77.820313 C 247.515625 77.984375 247.132813 78.15625 246.777344 78.34375 C 244.886719 79.308594 243.222656 80.65625 241.839844 82.425781 C 241.414063 82.953125 240.6875 82.667969 240.6875 82.027344 L 240.6875 77.199219 C 240.6875 76.890625 240.390625 76.429688 239.828125 76.621094 "/>
<path style=" stroke:none;fill-rule:evenodd;fill:rgb(83.898926%,67.799377%,40.79895%);fill-opacity:1;" d="M 360.496094 54.09375 L 365.535156 54.09375 C 365.882813 54.09375 366.164063 54.382813 366.164063 54.726563 L 366.164063 130.730469 C 366.164063 131.074219 365.878906 131.359375 365.535156 131.359375 L 360.496094 131.359375 C 360.148438 131.359375 359.863281 131.078125 359.863281 130.730469 L 359.863281 54.726563 C 359.863281 54.378906 360.148438 54.09375 360.496094 54.09375 "/>
<path style=" stroke:none;fill-rule:evenodd;fill:rgb(0%,28.999329%,56.498718%);fill-opacity:1;" d="M 286.953125 118.921875 L 286.957031 120.035156 C 286.976563 124.226563 287.019531 127.253906 284.449219 130.3125 C 284.078125 130.753906 284.386719 131.367188 284.914063 131.367188 L 308.277344 131.367188 C 308.753906 131.371094 309.15625 130.816406 308.753906 130.308594 C 306.179688 127.253906 306.234375 124.226563 306.253906 120.039063 L 306.253906 120.035156 L 306.257813 118.921875 L 306.253906 118.921875 L 306.253906 116.328125 L 306.265625 116.328125 L 306.265625 106.699219 C 306.253906 105.988281 307.09375 105.746094 307.460938 106.367188 L 317.980469 124.027344 L 317.984375 124.035156 C 319.207031 126.132813 320.34375 128.054688 321.808594 129.421875 C 322.808594 130.355469 325.058594 131.363281 326.339844 131.359375 L 345.054688 131.359375 C 345.671875 131.359375 345.882813 130.648438 345.46875 130.261719 C 344.769531 129.613281 344.121094 128.90625 343.507813 128.15625 C 342.214844 126.578125 341.066406 124.800781 339.925781 122.992188 L 339.925781 122.996094 L 324.21875 98.480469 C 324.089844 98.246094 324.050781 97.945313 324.28125 97.699219 L 341.179688 78.941406 C 341.492188 78.605469 341.292969 77.914063 340.6875 77.914063 L 319.101563 77.914063 C 318.628906 77.914063 318.253906 78.515625 318.65625 78.976563 C 319.875 80.238281 320.765625 81.90625 320.765625 83.730469 C 320.765625 86.164063 319.269531 87.777344 317.746094 89.421875 C 317.476563 89.714844 317.199219 90.015625 316.914063 90.339844 L 307.394531 101.289063 C 306.964844 101.761719 306.261719 101.488281 306.265625 100.867188 C 306.265625 85.023438 306.253906 69.195313 306.253906 53.339844 C 306.253906 52.953125 305.878906 52.5625 305.371094 52.765625 C 303.28125 53.578125 300.925781 54.007813 298.449219 54.042969 L 284.882813 54.042969 C 284.394531 54.042969 284.042969 54.609375 284.394531 55.082031 C 286.929688 58.0625 286.976563 61.082031 286.957031 65.324219 L 286.953125 66.492188 L 286.953125 118.921875 "/>
<path style=" stroke:none;fill-rule:evenodd;fill:rgb(83.898926%,67.799377%,40.79895%);fill-opacity:1;" d="M 106.527344 54.09375 L 52.773438 54.09375 C 46.28125 54.09375 41.015625 59.359375 41.015625 65.851563 L 41.015625 119.609375 C 41.015625 126.101563 46.28125 131.367188 52.773438 131.367188 L 106.527344 131.367188 C 113.019531 131.367188 118.285156 126.101563 118.285156 119.609375 L 118.285156 65.851563 C 118.285156 59.359375 113.019531 54.09375 106.527344 54.09375 "/>
<path style=" stroke:none;fill-rule:nonzero;fill:rgb(100%,100%,100%);fill-opacity:1;" d="M 87.871094 72.796875 L 87.894531 72.429688 C 87.964844 71.414063 88.257813 70.59375 88.667969 69.921875 C 89.074219 69.261719 89.59375 68.761719 90.128906 68.371094 L 90.132813 68.367188 C 90.886719 67.820313 91.738281 67.542969 92.582031 67.511719 C 93.324219 67.480469 94.066406 67.644531 94.738281 67.980469 C 95.414063 68.308594 96.011719 68.808594 96.480469 69.453125 C 96.976563 70.128906 97.320313 70.96875 97.449219 71.945313 C 98.308594 72.242188 99 72.671875 99.503906 73.21875 C 100.148438 73.921875 100.484375 74.792969 100.503906 75.808594 C 100.511719 76.726563 100.382813 77.617188 100.058594 78.59375 C 99.746094 79.539063 99.25 80.554688 98.527344 81.742188 L 98.007813 82.605469 L 87.871094 72.796875 "/>
<path style=" stroke:none;fill-rule:nonzero;fill:rgb(100%,100%,100%);fill-opacity:1;" d="M 80.082031 96.085938 L 80.90625 96.890625 L 79.867188 97.386719 C 78.605469 97.988281 77.34375 98.5625 76.046875 99.121094 C 74.753906 99.675781 73.460938 100.199219 72.121094 100.710938 L 71.644531 100.894531 L 66.402344 95.722656 C 66.113281 96.5 65.898438 97.253906 65.75 98.019531 C 65.542969 99.132813 65.46875 100.292969 65.53125 101.589844 L 65.566406 102.304688 L 64.855469 102.417969 C 60.890625 103.0625 58.105469 102.660156 56.433594 101.511719 C 55.117188 100.605469 54.484375 99.273438 54.496094 97.648438 C 54.511719 96.15625 55.097656 94.410156 56.222656 92.53125 C 59.535156 86.988281 67.71875 80 79.882813 74.640625 L 80.378906 74.421875 L 80.765625 74.804688 L 93.875 87.589844 L 93.226563 88.160156 C 92.238281 89.027344 91.226563 89.863281 90.203125 90.6875 C 89.191406 91.488281 88.160156 92.28125 87.101563 93.089844 L 86.546875 93.515625 L 86.050781 93.019531 L 75.394531 82.453125 C 75.28125 82.574219 75.164063 82.695313 75.046875 82.816406 C 73.660156 84.238281 72.304688 85.636719 71.105469 87.335938 L 80.082031 96.085938 "/>
<path style=" stroke:none;fill-rule:nonzero;fill:rgb(0%,28.999329%,56.498718%);fill-opacity:1;" d="M 98.007813 82.605469 L 98.53125 81.742188 C 99.25 80.554688 99.742188 79.539063 100.058594 78.59375 C 100.382813 77.617188 100.511719 76.726563 100.503906 75.808594 C 100.496094 75.488281 100.460938 75.1875 100.390625 74.898438 C 102.109375 75.015625 103.425781 75.996094 104.15625 77.28125 C 104.492188 77.871094 104.707031 78.53125 104.777344 79.203125 C 104.847656 79.875 104.773438 80.566406 104.535156 81.214844 C 103.984375 82.71875 102.589844 83.980469 100.152344 84.285156 L 99.769531 84.335938 L 99.492188 84.066406 L 98.007813 82.605469 "/>
<path style=" stroke:none;fill-rule:nonzero;fill:rgb(0%,28.999329%,56.498718%);fill-opacity:1;" d="M 90.234375 97.167969 L 86.550781 93.511719 L 87.101563 93.089844 C 88.160156 92.28125 89.191406 91.488281 90.199219 90.6875 C 91.226563 89.863281 92.238281 89.027344 93.226563 88.160156 L 93.875 87.589844 L 97.8125 91.429688 L 98.1875 91.796875 L 98.003906 92.289063 C 93.960938 102.90625 86.652344 111.859375 80.605469 115.769531 C 78.671875 117.019531 76.839844 117.773438 75.253906 117.925781 C 73.507813 118.089844 72.050781 117.5625 71.039063 116.226563 C 69.839844 114.644531 69.339844 111.90625 69.847656 107.8125 L 69.941406 107.070313 L 70.683594 107.105469 C 72.074219 107.164063 73.320313 107.085938 74.539063 106.871094 C 75.382813 106.722656 76.21875 106.503906 77.078125 106.222656 L 71.644531 100.894531 L 72.121094 100.710938 C 73.460938 100.199219 74.753906 99.675781 76.046875 99.121094 C 77.34375 98.5625 78.605469 97.988281 79.867188 97.386719 L 80.90625 96.890625 L 85.519531 101.382813 C 86.332031 100.769531 87.132813 100.128906 87.910156 99.441406 C 88.695313 98.75 89.46875 98 90.234375 97.167969 "/>
</g>
</svg>
